<?xml version="1.0" standalone="no"?>
<!DOCTYPE svg PUBLIC "-//W3C//DTD SVG 1.1//EN" "http://www.w3.org/Graphics/SVG/1.1/DTD/svg11.dtd" >
<svg>
<metadata>
Created by FontForge 20090914 at Fri Nov 13 12:01:15 2015
 By www-data
Copyright (c) May,3.05   Manfred Klein rev.1
</metadata>
<defs>
<font id="PetitaLight" horiz-adv-x="490" >
  <font-face 
    font-family="PetitaLight"
    font-weight="500"
    font-stretch="normal"
    units-per-em="1000"
    panose-1="2 0 6 6 4 0 0 2 0 3"
    ascent="800"
    descent="-200"
    x-height="449"
    cap-height="682"
    bbox="-215 -304 1035 917"
    underline-thickness="50"
    underline-position="-75"
    unicode-range="U+0005-U+E061"
  />
<missing-glyph horiz-adv-x="500" 
 />
    <glyph glyph-name=".notdef" horiz-adv-x="500" 
 />
    <glyph glyph-name="breve" horiz-adv-x="333" 
d="M303 647l-41.0029 -0.00195312c-11.333 -23.333 -25 -40.333 -41 -51c-16.667 -10.667 -35 -16 -55 -16c-19.333 0 -37.666 5.66699 -54.999 17c-16 10.667 -29.333 27.334 -40 50.001h-41c11.333 -34 30 -61.667 56 -83c24.667 -20.667 51.334 -31 80.001 -31
c29.333 0 56.333 10.333 81 31s43.334 48.334 56.001 83.001z" />
    <glyph glyph-name="dotaccent" horiz-adv-x="333" 
d="M210 548v88h-88v-88h88z" />
    <glyph glyph-name="ring" horiz-adv-x="333" 
d="M253 592c0 23.333 -8.66797 43.667 -26.001 61c-16.667 16.667 -37 25 -61 25s-44.333 -8.33301 -61 -25s-25 -37 -25 -61s8.33301 -44.333 25 -61s37 -25 61 -25c24.667 0 45.334 8.33301 62.001 25s25 37 25 61zM225.999 592.001c0 -17.333 -6 -31.333 -18 -42
c-11.333 -11.333 -25.333 -17 -42 -17s-30.667 5.66699 -42 17s-17 25.333 -17 42s5.66699 30.667 17 42s25.333 17 42 17c16 0 30.333 -5.66699 43 -17c11.333 -11.333 17 -25.333 17 -42z" />
    <glyph glyph-name="hungarumlaut" unicode="&#xa;" horiz-adv-x="333" 
d="M384 677h-81l-104 -156h34l37.5 40.5l36.5 37.5l37.5 37.5zM251 677h-81l-104 -156h34z" />
    <glyph glyph-name="ogonek" horiz-adv-x="333" 
d="M233 -165l0.00195312 38l-18 -1c-9.33301 -0.666992 -17.833 0.333008 -25.5 3s-14.834 6.33398 -21.501 11.001c-12.667 8 -19 22.333 -19 43c0 15.333 6.33301 30.333 19 45c12.667 16 24 28 34 36h-33c-22 -8.66699 -40 -22 -54 -40c-12 -17.333 -18 -36 -18 -56
c0 -26.667 9.33301 -47.334 28 -62.001c17.333 -14.667 39.666 -22 66.999 -22z" />
    <glyph glyph-name="caron" horiz-adv-x="333" 
d="M304 676h-38l-100 -108l-99 108h-38l108 -164h58z" />
    <glyph glyph-name="dotlessi" unicode="&#xd;" horiz-adv-x="188" 
d="M118 0v449h-48v-449h48z" />
    <glyph glyph-name="fraction" horiz-adv-x="135" 
d="M350 691h-40l-525 -718h39z" />
    <glyph glyph-name="fi" horiz-adv-x="479" 
d="M409 0v449h-48v-449h48zM409 565c-4 46 -20.001 78.335 -48.001 97.002c-28.667 19.333 -64 29 -106 29c-49.333 0 -88.666 -15.667 -117.999 -47c-28.667 -30.667 -43 -74.334 -43 -131.001v-64h-83v-39h83v-410h48v410h94v39h-94v64c0 46 9.66699 80.667 29 104
c18.667 22.667 46 34 82 34c33.333 0 59 -7 77 -21c18 -14.667 28.333 -36.334 31 -65.001h37h11z" />
    <glyph glyph-name="fl" horiz-adv-x="479" 
d="M409 0v682h-48v-682h48zM314 629l0.00195312 46.999l-21 8c-12 4.66699 -26.667 7 -44 7c-44.667 0 -81.667 -14.667 -111 -44c-28 -29.333 -42 -67.666 -42 -114.999v-83h-83v-39h83v-410h48v410h93v39h-93v82c0 32 8.33301 58.667 25 80c16.667 22 41.667 33 75 33
c15.333 0 29.666 -2.33301 42.999 -7c7.33301 -2 13.166 -3.66699 17.499 -5s7.5 -2.33301 9.5 -3z" />
    <glyph glyph-name="Lslash" horiz-adv-x="469" 
d="M469 0v44h-337v258l167 136v52l-167 -136v328h-53v-371l-121 -99v-52l121 99v-259h390z" />
    <glyph glyph-name="lslash" horiz-adv-x="188" 
d="M218 411v48l-100 -83v306h-48v-346l-97 -81v-48l97 81v-288h48v328z" />
    <glyph glyph-name="Zcaron" horiz-adv-x="635" 
d="M455 894h-38l-100 -108l-99 108h-38l108 -164h58zM611 0v44h-515l512 619l-5 19h-571v-44h488l-511 -623l5 -15h597z" />
    <glyph glyph-name="zcaron" horiz-adv-x="396" 
d="M338 676h-38l-100 -108l-99 108h-38l108 -164h58zM385 0v44h-295l295 390l-4 15h-355v-44h281l-297 -390l5 -15h370z" />
    <glyph glyph-name="space" unicode=" " horiz-adv-x="278" 
 />
    <glyph glyph-name="exclam" unicode="!" horiz-adv-x="177" 
d="M121 682h-65l17 -490h31zM121 0v97h-65v-97h65z" />
    <glyph glyph-name="quotedbl" unicode="&#x22;" horiz-adv-x="278" 
d="M241 570v114h-66v-113l12 -121h42zM104 570v114h-66v-113l12 -121h42z" />
    <glyph glyph-name="numbersign" unicode="#" horiz-adv-x="660" 
d="M583 210v46h-131l39 191h92v46h-82l42 205h-47l-42 -205h-188l42 205h-47l-42 -205h-142v-46h132l-39 -191h-93v-46h83l-43 -210h47l43 210h188l-43 -210h47l43 210h141zM444 447l-39 -191h-188l39 191h188z" />
    <glyph glyph-name="dollar" unicode="$" horiz-adv-x="521" 
d="M476 165c0 50.667 -15.665 89.6689 -46.998 117.002s-86.333 53 -165 77c-56.667 17.333 -99 36 -127 56c-26.667 18 -40 44.333 -40 79s15.333 63.334 46 86.001c31.333 23.333 68.666 35 111.999 35c42 0 79.333 -7.66699 112 -23
c15.333 -7.33301 29.666 -14.833 42.999 -22.5s25.333 -15.834 36 -24.501v55c-19.333 15.333 -44.666 29.333 -75.999 42c-22.667 9.33301 -51.667 15.666 -87 18.999l1 80h-48l-1 -80c-49.333 -4 -92 -21 -128 -51c-41.333 -33.333 -62 -74 -62 -122
c0 -48.667 15.333 -85.334 46 -110.001c30 -24 78 -45.667 144 -65c62.667 -18.667 110.334 -38.667 143.001 -60c31.333 -21.333 47 -51 47 -89c0 -35.333 -15.667 -65.666 -47 -90.999c-30.667 -24.667 -69 -37 -115 -37c-30.667 0 -66 7.66699 -106 23
c-19.333 7.33301 -38.833 16.666 -58.5 27.999s-39.167 24.333 -58.5 39v-55c22 -20.667 52.667 -39.667 92 -57c15.333 -7.33301 31.666 -12.833 48.999 -16.5s35.666 -6.16699 54.999 -7.5v-107h48v107c50 4.66699 93 21.667 129 51c42 34.667 63 76 63 124z" />
    <glyph glyph-name="percent" unicode="%" horiz-adv-x="698" 
d="M341 531c0 44 -15.667 81.667 -47 113s-69.333 47 -114 47c-43.333 0 -81.333 -15.667 -114 -47c-31.333 -31.333 -47 -69 -47 -113c0 -43.333 15.667 -81.333 47 -114c31.333 -31.333 69.333 -47 114 -47c44 0 82 16 114 48c31.333 31.333 47 69 47 113zM298 529
c0 -31.333 -11.666 -58.666 -34.999 -81.999c-22.667 -22.667 -50 -34 -82 -34c-32.667 0 -60.667 11.667 -84 35s-35 51.333 -35 84c0 31.333 11.667 58.666 35 81.999c22.667 22.667 51 34 85 34c31.333 0 58.666 -11.667 81.999 -35c22.667 -22.667 34 -50.667 34 -84z
M646.001 687h-51l-550 -698h51zM680.001 147c0 44 -16 81.668 -48 113.001c-31.333 31.333 -69.333 47 -114 47c-43.333 0 -81.333 -15.667 -114 -47c-31.333 -31.333 -47 -69 -47 -113s16 -81.333 48 -112c31.333 -31.333 69 -47 113 -47s82.333 15.667 115 47
c31.333 31.333 47 68.666 47 111.999zM637.001 145.001c0 -30.667 -11.667 -57.666 -35 -80.999c-23.333 -22 -51 -33 -83 -33c-32.667 0 -60.667 11.667 -84 35c-23.333 22 -35 49.333 -35 82c0 31.333 12 58.666 36 81.999c22.667 22.667 50.667 34 84 34
c32 0 59.667 -11.667 83 -35c22.667 -24 34 -52 34 -84z" />
    <glyph glyph-name="ampersand" unicode="&#x26;" horiz-adv-x="615" 
d="M609 0l-141.003 147.998c16.667 22 32.667 48 48 78c18.667 36.667 34.667 74.667 48 114h-56c-6.66699 -19.333 -13.667 -37.333 -21 -54s-14.666 -32 -21.999 -46l-15 -27c-5.33301 -9.33301 -11.333 -18.666 -18 -27.999l-154 162c38.667 18.667 71 41.667 97 69
c30.667 30.667 46 68.334 46 113.001c0 44 -15.333 78.333 -46 103c-29.333 24.667 -64.666 37 -105.999 37c-42.667 0 -79.667 -14.333 -111 -43c-32 -28 -48 -62.333 -48 -103c0 -29.333 7.33301 -56.333 22 -81c14.667 -26 32.667 -49.667 54 -71l10 -10
c-47.333 -18 -87.333 -45 -120 -81c-33.333 -37.333 -50 -79.333 -50 -126c0 -43.333 15 -81.333 45 -114s74.333 -49 133 -49c52.667 0 99.334 11.667 140.001 35c32.667 19.333 64 47 94 83l104 -109h67zM371.997 523.998c0 -29.333 -12.333 -57 -37 -83
c-21.333 -21.333 -52 -40.333 -92 -57l-10 10c-9.33301 9.33301 -18.333 19.333 -27 30s-16.667 21.667 -24 33c-14 22.667 -21 45 -21 67c0 30 11.333 53.333 34 70c23.333 17.333 48.333 26 75 26s50.667 -9 72 -27c20 -17.333 30 -40.333 30 -69zM402.997 144.998
c-28 -34.667 -56.668 -60.668 -86.001 -78.001c-31.333 -18 -66 -27 -104 -27c-39.333 0 -70.666 10.333 -93.999 31c-24 20.667 -36 51.334 -36 92.001c0 38 14 70 42 96s63.333 48 106 66z" />
    <glyph glyph-name="quotesingle" unicode="'" horiz-adv-x="222" 
d="M144 570v114h-66v-113l12 -121h42z" />
    <glyph glyph-name="parenleft" unicode="(" horiz-adv-x="333" 
d="M325 -220c-52 44.667 -97.334 106.333 -136.001 185c-38.667 78 -58 166.667 -58 266c0 97.333 19.667 186 59 266c39.333 79.333 84.333 141 135 185h-51c-45.333 -42 -89.333 -101.667 -132 -179c-41.333 -77.333 -62 -168 -62 -272c0 -105.333 21 -196.333 63 -273
c40.667 -76 84.334 -135.333 131.001 -178h51z" />
    <glyph glyph-name="parenright" unicode=")" horiz-adv-x="333" 
d="M253 231c0 104.667 -21 195.666 -63 272.999c-42 76.667 -86.333 136 -133 178h-51c52 -44 97.667 -105.667 137 -185c39.333 -80 59 -168.667 59 -266s-19.667 -186 -59 -266c-39.333 -79.333 -85 -141 -137 -185h51c46 41.333 90.333 101 133 179
c42 76.667 63 167.334 63 272.001z" />
    <glyph glyph-name="asterisk" unicode="*" horiz-adv-x="469" 
d="M422 409l-38 16c-10.667 4.66699 -21.5 9.83398 -32.5 15.501l-37.5 19.5l-54 28l54 28l37.5 19.5c11 5.66699 21.833 10.834 32.5 15.501l38 16l-25 45c-12.667 -10 -23.667 -18.333 -33 -25s-19.333 -13.334 -30 -20.001l-36.5 -23l-51.5 -33
c1.33301 24.667 2.33301 44.834 3 60.501s1.5 29.834 2.5 42.501s2 24.667 3 36s2.5 25 4.5 41h-50c2 -16 3.5 -29.667 4.5 -41s2 -23.333 3 -36s1.83301 -26.834 2.5 -42.501s1.66699 -35.834 3 -60.501l-51.5 33l-36.5 23c-10.667 6.66699 -20.667 13.334 -30 20.001
s-20.333 15 -33 25l-25 -45l38 -16c10.667 -4.66699 21.5 -9.83398 32.5 -15.501l37.5 -19.5l54 -28l-54 -28l-37.5 -19.5c-11 -5.66699 -21.833 -10.834 -32.5 -15.501l-38 -16l25 -45c12.667 10 23.667 18.333 33 25s19.333 13.334 30 20.001l36.5 23l51.5 33
c-1.33301 -24.667 -2.33301 -44.834 -3 -60.501s-1.5 -29.834 -2.5 -42.501s-2 -24.667 -3 -36s-2.5 -25 -4.5 -41h50c-2 16 -3.5 29.667 -4.5 41s-2 23.333 -3 36s-1.83301 26.834 -2.5 42.501s-1.66699 35.834 -3 60.501l51.5 -33l36.5 -23
c10.667 -6.66699 20.667 -13.334 30 -20.001s20.333 -15 33 -25z" />
    <glyph glyph-name="plus" unicode="+" horiz-adv-x="660" 
d="M592 331v44h-240v237h-44v-237h-240v-44h240v-240h44v240h240z" />
    <glyph glyph-name="comma" unicode="," horiz-adv-x="177" 
d="M121 17l0.000976562 80h-65v-97h21c0 -24 -2.33301 -41.667 -7 -53c-2 -6 -5.83301 -11.5 -11.5 -16.5s-9.83398 -9.16699 -12.501 -12.5v-35l31 25c11.333 9.33301 20 20.333 26 33c12 24.667 18 50 18 76z" />
    <glyph glyph-name="hyphen" unicode="-" horiz-adv-x="313" 
d="M275 226v47h-237v-47h237z" />
    <glyph glyph-name="period" unicode="." horiz-adv-x="177" 
d="M120 0v98h-64v-98h64z" />
    <glyph glyph-name="slash" unicode="/" horiz-adv-x="281" 
d="M270 691h-47l-220 -700h47z" />
    <glyph glyph-name="zero" unicode="0" horiz-adv-x="500" 
d="M469 338v6c0 101.333 -19.667 184.666 -59 249.999c-38.667 64.667 -91.667 97 -159 97c-66.667 0 -120 -32.333 -160 -97c-39.333 -65.333 -59 -148.666 -59 -249.999v-6c0 -101.333 19.667 -184.666 59 -249.999c38.667 -64.667 91.667 -97 159 -97
c66.667 0 120 32.333 160 97c39.333 65.333 59 148.666 59 249.999zM417 337c0 -84.667 -15.667 -155.667 -47 -213c-30.667 -56.667 -70.334 -85 -119.001 -85c-50 0 -90.333 28.333 -121 85s-46 127.667 -46 213v8c0 84.667 15.667 155.667 47 213
c30.667 56.667 70.334 85 119.001 85c50 0 90.333 -28.333 121 -85c30.667 -58 46 -129 46 -213v-8z" />
    <glyph glyph-name="one" unicode="1" horiz-adv-x="335" 
d="M257 0v682h-52v-52l-186 -185l35 -36l151 151v-560h52z" />
    <glyph glyph-name="two" unicode="2" horiz-adv-x="500" 
d="M470 0l0.000976562 47.001h-317l42.5 49.5l40.5 49.5l37 50.5l37 51.5c9.33301 13.333 19.333 29.166 30 47.499s21.667 39.166 33 62.499c21.333 48 32 93 32 135c0 56 -19.333 103 -58 141c-38 38 -85.667 57 -143 57c-38 0 -70.333 -7.33301 -97 -22
c-28.667 -14.667 -49.334 -28 -62.001 -40v-61c22.667 21.333 46 39.333 70 54c24.667 14 53 21 85 21c44 0 80.333 -14.333 109 -43c29.333 -29.333 44 -65.333 44 -108c0 -39.333 -8.33301 -77.666 -25 -114.999c-8.66699 -19.333 -18 -38.5 -28 -57.5
s-21.667 -38.167 -35 -57.5c-33.333 -48.667 -67 -91.667 -101 -129l-51.5 -57l-59.5 -62v-14h417z" />
    <glyph glyph-name="three" unicode="3" horiz-adv-x="500" 
d="M429 192c0 39.333 -11.6699 74.333 -35.0029 105c-23.333 29.333 -56.333 51 -99 65c45.333 15.333 77.666 37 96.999 65c19.333 28.667 29 58.667 29 90c0 50.667 -18.667 92.667 -56 126c-37.333 32 -84.666 48 -141.999 48c-39.333 0 -72 -5.66699 -98 -17
c-25.333 -11.333 -42.333 -20.333 -51 -27v-49c4.66699 3.33301 11 7.16602 19 11.499s18.333 9.5 31 15.5c24.667 12 55.334 18 92.001 18c44.667 0 81.667 -12.667 111 -38c28.667 -24.667 43 -55 43 -91c0 -38 -16 -69.333 -48 -94c-31.333 -24.667 -69.333 -37 -114 -37
h-6v-48h10c26.667 0 50.167 -3.83301 70.5 -11.5s37.833 -18.167 52.5 -31.5c28.667 -26.667 43 -62.667 43 -108c0 -43.333 -15 -78.333 -45 -105c-28.667 -26.667 -67 -40 -115 -40c-32.667 0 -62.667 3.66699 -90 11c-12.667 3.33301 -24 7 -34 11
s-18.667 7.66699 -26 11v-47c12 -6 33 -13.333 63 -22c28.667 -8 59.334 -12 92.001 -12c60.667 0 110.334 18.333 149.001 55c38 36.667 57 85.334 57 146.001z" />
    <glyph glyph-name="four" unicode="4" horiz-adv-x="500" 
d="M471 263v41h-94v387h-20l-343 -411v-17h312v-263h51v263h94zM326 304h-241l241 291v-291z" />
    <glyph glyph-name="five" unicode="5" horiz-adv-x="500" 
d="M425 212c0 64 -20.333 115.333 -61 154c-20.667 19.333 -44.167 34 -70.5 44s-56.5 14.333 -90.5 13l-58 -3v215h241v47h-289v-318c6.66699 2 13.5 3.83301 20.5 5.5s14.167 3.16699 21.5 4.5c13.333 2.66699 29 4 47 4c58 0 104 -15 138 -45s51 -71 51 -123
c0 -50 -16 -91 -48 -123c-31.333 -32 -71.666 -48 -120.999 -48c-34.667 0 -67.334 7 -98.001 21c-15.333 6.66699 -28.5 12.834 -39.5 18.501s-20.167 11.167 -27.5 16.5v-59c14 -8.66699 36 -18.334 66 -29.001c29.333 -10.667 63.333 -16 102 -16
c62.667 0 114.667 20.667 156 62c40 40.667 60 93.667 60 159z" />
    <glyph glyph-name="six" unicode="6" horiz-adv-x="500" 
d="M462 176c0 58 -17.999 104.668 -53.999 140.001c-35.333 35.333 -82 53 -140 53c-29.333 0 -57.333 -5.66699 -84 -17c-24.667 -10 -46.334 -22.667 -65.001 -38c12.667 56.667 34 107 64 151c48.667 71.333 112.667 134.666 192 189.999l-30 36
c-74 -51.333 -139.667 -116.333 -197 -195c-58 -79.333 -87 -167 -87 -263c0 -78 20 -138 60 -180c39.333 -41.333 88.333 -62 147 -62c54.667 0 100.667 17.667 138 53s56 79.333 56 132zM411.001 174.001c0 -38.667 -13.999 -71 -41.999 -97
c-28.667 -25.333 -63.334 -38 -104.001 -38c-42 0 -78.667 16.667 -110 50c-30 32.667 -45 78.334 -45 137.001v15c0 5.33301 0.333008 10.333 1 15c10 11.333 28 24.666 54 39.999c27.333 16.667 60.333 25 99 25c42.667 0 78 -14 106 -42
c27.333 -27.333 41 -62.333 41 -105z" />
    <glyph glyph-name="seven" unicode="7" horiz-adv-x="500" 
d="M474 682h-445v-47h372l-282 -625l43 -19z" />
    <glyph glyph-name="eight" unicode="8" horiz-adv-x="500" 
d="M445 187c0 38 -9.66699 71.6689 -29 101.002c-19.333 28.667 -43.333 50.667 -72 66c30 22 52 45.333 66 70c14 24 21 52.667 21 86c0 49.333 -17.333 91.666 -52 126.999c-35.333 36 -76.666 54 -123.999 54c-52.667 0 -96.667 -17.667 -132 -53s-53 -79 -53 -131
c0 -26.667 6.66699 -53.334 20 -80.001c12.667 -25.333 35.667 -49.666 69 -72.999c-30.667 -16 -55.667 -38.667 -75 -68c-18.667 -28.667 -28 -62.334 -28 -101.001c0 -54 19 -100 57 -138c37.333 -37.333 83 -56 137 -56c55.333 0 101.666 18.667 138.999 56
s56 84 56 140zM380 507.002c0 -36 -12.667 -66.667 -38 -92s-55.666 -38 -90.999 -38c-34.667 0 -65.334 12.667 -92.001 38c-25.333 25.333 -38 55 -38 89c0 41.333 12 74.666 36 99.999s55.333 38 94 38c36.667 0 67.667 -12.667 93 -38c24 -25.333 36 -57.666 36 -96.999
zM394 185.002c0 -40.667 -13.667 -75.332 -41 -103.999c-27.333 -28 -61 -42 -101 -42c-41.333 0 -76 14 -104 42c-27.333 27.333 -41 61.666 -41 102.999c0 42 13.667 76.667 41 104s62 41 104 41c39.333 0 73 -14 101 -42c27.333 -28.667 41 -62.667 41 -102z" />
    <glyph glyph-name="nine" unicode="9" horiz-adv-x="500" 
d="M435 444c0 81.333 -19.999 143 -59.999 185c-39.333 41.333 -90 62 -152 62c-54.667 0 -100.334 -18 -137.001 -54c-36 -36 -54 -81.667 -54 -137c0 -52 18.333 -96 55 -132c37.333 -35.333 82.666 -53 135.999 -53c31.333 0 62.333 6.66699 93 20
c22.667 10.667 42.334 21.667 59.001 33c-6.66699 -30 -15.5 -58 -26.5 -84s-25.167 -50.667 -42.5 -74c-25.333 -34.667 -53.833 -67 -85.5 -97s-66.5 -58.333 -104.5 -85l28 -37c104.667 76.667 179.667 152.667 225 228c44 74.667 66 149.667 66 225zM382.001 450
l0.000976562 -12.001c0 -3.33301 -0.333008 -6.66602 -1 -9.99902c-12.667 -13.333 -31.667 -27 -57 -41c-29.333 -16 -62.333 -24 -99 -24c-38.667 0 -72.334 13.667 -101.001 41c-27.333 27.333 -41 59.333 -41 96c0 40.667 13.667 74.667 41 102s61 41 101 41
c48.667 0 87 -15.667 115 -47s42 -80 42 -146z" />
    <glyph glyph-name="colon" unicode=":" horiz-adv-x="177" 
d="M120 352v98h-64v-98h64zM120 0v98h-64v-98h64z" />
    <glyph glyph-name="semicolon" unicode=";" horiz-adv-x="177" 
d="M120 352v98h-64v-98h64zM121 17l0.000976562 80h-65v-97h21c0 -24 -2.33301 -41.667 -7 -53c-2 -6 -5.83301 -11.5 -11.5 -16.5s-9.83398 -9.16699 -12.501 -12.5v-35l31 25c11.333 9.33301 20 20.333 26 33c12 24.667 18 50 18 76z" />
    <glyph glyph-name="less" unicode="&#x3c;" horiz-adv-x="660" 
d="M592 110v49l-464 192l464 192v49l-524 -220v-42z" />
    <glyph glyph-name="equal" unicode="=" horiz-adv-x="660" 
d="M592 450v44h-524v-44h524zM592 208v44h-524v-44h524z" />
    <glyph glyph-name="greater" unicode="&#x3e;" horiz-adv-x="660" 
d="M592 330v42l-524 220v-49l463 -192l-463 -192v-49z" />
    <glyph glyph-name="question" unicode="?" horiz-adv-x="281" 
d="M241 550c0 38 -10.333 71.335 -31 100.002c-21.333 28 -53 42 -95 42c-16 0 -29.667 -2.33301 -41 -7c-3.33301 -1.33301 -9 -3.83301 -17 -7.5l-20.5 -9.5c-5.66699 -2.66699 -8.83398 -4.33398 -9.50098 -5.00098l17 -43c1.33301 0.666992 6 3.16699 14 7.5
s17.667 9 29 14s20.333 7.5 27 7.5c22 0 40.333 -9.33301 55 -28c14 -18 21 -40 21 -66c0 -29.333 -6.66699 -58 -20 -86c-13.333 -27.333 -31.333 -59.333 -54 -96c-16 -26 -27.333 -48 -34 -66c-5.33301 -18 -8 -36.333 -8 -55c0 -15.333 4.33301 -31.333 13 -48
c7.33301 -15.333 16 -28.333 26 -39l17 15c-4.66699 8.66699 -8.16699 16.167 -10.5 22.5s-4.16602 11.166 -5.49902 14.499c-0.666992 3.33301 -1.16699 7 -1.5 11s-0.5 8 -0.5 12c0 15.333 2.33301 30 7 44c4.66699 14.667 14.667 33 30 55c33.333 48 57 85.667 71 113
c14 28 21 60.667 21 98zM150 0.00195312v97h-65v-97h65z" />
    <glyph glyph-name="at" unicode="@" horiz-adv-x="800" 
d="M708 87l-38 -0.000976562c-19.333 -29.333 -53 -56.333 -101 -81c-48 -24 -102 -36 -162 -36c-74 0 -140 27.667 -198 83c-58.667 54.667 -88 125.334 -88 212.001c0 84 28.333 154.667 85 212c57.333 57.333 124.666 86 201.999 86c72.667 0 133.667 -24 183 -72
s74 -103.667 74 -167c0 -60 -17 -112 -51 -156c-34 -43.333 -66.333 -65 -97 -65c-2.66699 0 -6.33398 3.66699 -11.001 11c-2 2.66699 -3 8 -3 16c0 6 1 14 3 24l62 290h-47l-12 -61c-9.33301 25.333 -25.666 44.333 -48.999 57c-22.667 12.667 -43.667 19 -63 19
c-58.667 0 -106 -24.333 -142 -73c-35.333 -49.333 -53 -101 -53 -155c0 -52.667 13.333 -92.667 40 -120c26 -28 56.667 -42 92 -42c26.667 0 51.667 7.66699 75 23c22 14.667 38.333 30 49 46c4 -27.333 10 -46 18 -56c8.66699 -10 17.334 -15 26.001 -15
c46 0 89.667 25.333 131 76c41.333 49.333 62 109 62 179c0 73.333 -27 137 -81 191s-123.333 81 -208 81c-88 0 -163 -32.667 -225 -98c-61.333 -65.333 -92 -141 -92 -227c0 -88 30 -165 90 -231s138 -99 234 -99c68 0 129.667 16.333 185 49c55.333 32 92 65 110 99z
M491 311.999c0 -17.333 -3.66797 -36.833 -11.001 -58.5s-17.666 -45.167 -30.999 -70.5c-28 -52 -63.333 -78 -106 -78c-22 0 -43 10.333 -63 31c-20 20 -30 50.667 -30 92c0 48 13.333 92.667 40 134c28.667 42.667 63 64 103 64c30 0 53.667 -11 71 -33
c18 -22 27 -49 27 -81z" />
    <glyph glyph-name="A" unicode="A" horiz-adv-x="667" 
d="M662 0l-314 687h-29l-315 -687h55l108 236h333l108 -236h54zM480 280h-293l146 321z" />
    <glyph glyph-name="B" unicode="B" horiz-adv-x="531" 
d="M508 185c0 47.333 -14.999 85.666 -44.999 114.999c-28.667 28 -66.334 46 -113.001 54c34 18 59 39.333 75 64s24 53.334 24 86.001c0 56.667 -19.667 100.667 -59 132c-38.667 30.667 -92.667 46 -162 46h-148v-682h199c71.333 -0 127.333 16.333 168 49
c40.667 32 61 77.333 61 136zM392.001 499c0 -43.333 -15.667 -76.667 -47 -100c-31.333 -22 -75.333 -33 -132 -33h-80v272h77c60 0 105.333 -11.333 136 -34s46 -57.667 46 -105zM452.001 179.999c0 -43.333 -16.333 -77 -49 -101c-33.333 -23.333 -78 -35 -134 -35h-136
v278h119c64 0 113.667 -11.667 149 -35c34 -23.333 51 -59 51 -107z" />
    <glyph glyph-name="C" unicode="C" horiz-adv-x="677" 
d="M655 56l0.000976562 54.999c-15.333 -8.66699 -31.833 -17.167 -49.5 -25.5s-37.167 -16.166 -58.5 -23.499c-41.333 -14.667 -86.333 -22 -135 -22c-90.667 0 -164.334 28 -221.001 84s-85 128.333 -85 217c0 86 29 157.667 87 215c57.333 57.333 129.333 86 216 86
c44 0 86 -6.33301 126 -19c42.667 -13.333 80 -29.333 112 -48v59c-33.333 17.333 -71 31.333 -113 42c-42 10 -80.667 15 -116 15c-105.333 0 -193.333 -33.333 -264 -100c-70 -67.333 -105 -150.666 -105 -249.999c0 -103.333 35 -187.333 105 -252
c69.333 -65.333 158.333 -98 267 -98c39.333 0 80 6.33301 122 19c21.333 6.66699 41.5 13.667 60.5 21s36.167 15.666 51.5 24.999z" />
    <glyph glyph-name="D" unicode="D" horiz-adv-x="740" 
d="M689 340c0 106 -32.999 189.667 -98.999 251c-66 60.667 -155.333 91 -268 91h-243v-682h250c113.333 0 201.666 31.667 264.999 95s95 145 95 245zM632.001 340c0 -89.333 -28.999 -161 -86.999 -215s-134.667 -81 -230 -81h-183v594h185
c95.333 0 171.666 -27.333 228.999 -82c57.333 -55.333 86 -127.333 86 -216z" />
    <glyph glyph-name="E" unicode="E" 
d="M460 0v44h-327v277l311 1v43h-311v273h320v44h-373v-682h380z" />
    <glyph glyph-name="F" unicode="F" horiz-adv-x="438" 
d="M431 638v44h-353v-682h53v335h269v44h-269v259h300z" />
    <glyph glyph-name="G" unicode="G" horiz-adv-x="719" 
d="M662 49l0.00292969 261h-196v-44h144v-184c-17.333 -10 -42.666 -19.667 -75.999 -29c-32 -8.66699 -67.333 -13 -106 -13c-96 0 -173.667 27.667 -233 83c-58.667 54.667 -88 127.667 -88 219c0 86 29 157.667 87 215c58.667 56.667 131 85 217 85
c42.667 0 84 -6.33301 124 -19c39.333 -11.333 77.666 -28 114.999 -50v60c-18.667 10.667 -50.334 23 -95.001 37c-44 14 -92 21 -144 21c-103.333 0 -189.333 -33.333 -258 -100c-68.667 -66 -103 -148.667 -103 -248c0 -101.333 35.333 -185.333 106 -252
c69.333 -66.667 157.666 -100 264.999 -100c44.667 0 88.667 5.66699 132 17c41.333 11.333 77.666 25 108.999 41z" />
    <glyph glyph-name="H" unicode="H" horiz-adv-x="719" 
d="M639 0v682h-53v-315h-454v315h-53v-682h53v323h454v-323h53z" />
    <glyph glyph-name="I" unicode="I" horiz-adv-x="208" 
d="M130 0v682h-52v-682h52z" />
    <glyph glyph-name="J" unicode="J" horiz-adv-x="208" 
d="M136 -7v688.999h-53v-678c0 -50 -8 -88.333 -24 -115c-14.667 -26.667 -38.667 -40 -72 -40l-32 4l5 -50l34 -2c20.667 -1.33301 39.5 2.33398 56.5 11.001s32.167 20.667 45.5 36c26.667 30.667 40 79 40 145z" />
    <glyph glyph-name="K" unicode="K" horiz-adv-x="531" 
d="M129 0v342l357 -342h67l-356 342l325 340h-66l-327 -340v340h-53v-682h53z" />
    <glyph glyph-name="L" unicode="L" horiz-adv-x="469" 
d="M469 0v44h-337v638h-53v-682h390z" />
    <glyph glyph-name="M" unicode="M" horiz-adv-x="781" 
d="M702 0v682h-53l-259 -317l-260 317h-53v-682h53v607l260 -321l259 321v-607h53z" />
    <glyph glyph-name="N" unicode="N" horiz-adv-x="771" 
d="M694 0v682h-53v-598l-129 152l-130 147l-130 147l-129 152h-45v-682h53v596l518 -596h45z" />
    <glyph glyph-name="O" unicode="O" horiz-adv-x="823" 
d="M773 341c0 99.333 -34.668 182.666 -104.001 249.999c-70 66.667 -155.667 100 -257 100c-102.667 0 -188.667 -33.667 -258 -101c-68.667 -66.667 -103 -149.667 -103 -249s34.667 -182.666 104 -249.999c68.667 -66.667 154.334 -100 257.001 -100
c102 0 187.667 33.667 257 101s104 150.333 104 249zM715.999 341c0 -82.667 -29.668 -153.667 -89.001 -213c-58.667 -58.667 -130.334 -88 -215.001 -88c-85.333 0 -157.333 29.333 -216 88s-88 129.667 -88 213c0 82.667 29.667 153.667 89 213
c58.667 58.667 130.334 88 215.001 88s156.334 -29.333 215.001 -88c59.333 -59.333 89 -130.333 89 -213z" />
    <glyph glyph-name="P" unicode="P" horiz-adv-x="510" 
d="M488 500c0 59.333 -18.999 104.667 -56.999 136c-38 30.667 -91.333 46 -160 46h-193v-682h53v319h135c69.333 0 123.666 15.667 162.999 47s59 76 59 134zM432.001 501.001c0 -44.667 -15 -79 -45 -103c-29.333 -23.333 -71 -35 -125 -35h-131v275h137
c50.667 0 90.667 -12.333 120 -37c29.333 -24 44 -57.333 44 -100z" />
    <glyph glyph-name="Q" unicode="Q" horiz-adv-x="823" 
d="M773 341c0 100 -34.668 183.335 -104.001 250.002c-34 34 -72.5 59.167 -115.5 75.5s-90.167 24.5 -141.5 24.5c-102.667 0 -188.667 -33.667 -258 -101c-68.667 -66.667 -103 -149.667 -103 -249c0 -100 34.333 -183.333 103 -250
c57.333 -56 130.666 -88.667 219.999 -98c54 -48 111.667 -82.333 173 -103c64.667 -22 110.334 -33 137.001 -33l-4 54l-14 1.5c-9.33301 1 -20.833 2.5 -34.5 4.5s-28 4.66699 -43 8s-27.833 7.33301 -38.5 12c-18.667 7.33301 -36.5 15.666 -53.5 24.999
s-33.167 19.333 -48.5 30c88.667 9.33301 162.334 42.333 221.001 99c69.333 67.333 104 150.666 104 249.999zM715.999 341.002c0 -82.667 -29.668 -153.667 -89.001 -213c-58.667 -58.667 -130.334 -88 -215.001 -88c-85.333 0 -157.333 29.333 -216 88
s-88 129.667 -88 213c0 82.667 29.667 153.667 89 213c58.667 58.667 130.334 88 215.001 88s156.334 -29.333 215.001 -88c59.333 -59.333 89 -130.333 89 -213z" />
    <glyph glyph-name="R" unicode="R" horiz-adv-x="573" 
d="M595 0l-128 196.001l-28 42l-30 43c-20.667 28 -40 47.667 -58 59c33.333 10.667 63.333 30 90 58c26 26.667 39 62 39 106c0 57.333 -20 101.666 -60 132.999c-40 30 -96.333 45 -169 45h-172v-682h53v327h104c46.667 0 82 -13.667 106 -41
c12 -13.333 23.833 -28.333 35.5 -45s23.5 -34.667 35.5 -54l120 -187h62zM423 505.001c0 -43.333 -15.665 -76.666 -46.998 -99.999c-30.667 -22.667 -74.334 -34 -131.001 -34h-113v267h118c53.333 0 95.666 -11.667 126.999 -35c30.667 -22.667 46 -55.334 46 -98.001z
" />
    <glyph glyph-name="S" unicode="S" horiz-adv-x="469" 
d="M427 173c0 52 -12.6719 92.334 -38.0049 121.001c-24.667 27.333 -71.667 53.666 -141 78.999c-52 19.333 -89.333 38.666 -112 57.999c-22 18.667 -33 46.667 -33 84c0 34.667 14 64.667 42 90c26.667 24.667 60.334 37 101.001 37c34 0 64 -6.33301 90 -19l36.5 -18
c11 -5.33301 20.167 -10.333 27.5 -15l-1 58c-3.33301 2.66699 -9.66602 6.16699 -18.999 10.5s-21.666 9.5 -36.999 15.5c-30.667 11.333 -65 17 -103 17c-52 0 -97.667 -17.667 -137 -53c-38 -35.333 -57 -77 -57 -125c0 -49.333 13 -87 39 -113
c25.333 -26 66 -48.667 122 -68c54.667 -18.667 96 -39.334 124 -62.001c26.667 -22 40 -53.333 40 -94c0 -38.667 -14 -71 -42 -97s-62.667 -39 -104 -39c-26 0 -52.333 6 -79 18c-13.333 6 -27.666 13.5 -42.999 22.5s-31.333 19.833 -48 32.5v-62
c7.33301 -5.33301 16.833 -11.166 28.5 -17.499s25.834 -13.166 42.501 -20.499c32 -14.667 68 -22 108 -22c52.667 0 98 18 136 54s57 78.667 57 128z" />
    <glyph glyph-name="T" unicode="T" horiz-adv-x="573" 
d="M569 638v44h-565v-44h256v-638h53v638h256z" />
    <glyph glyph-name="U" unicode="U" horiz-adv-x="698" 
d="M635 296v386h-53v-382c0 -79.333 -21 -142.333 -63 -189c-41.333 -47.333 -97.333 -71 -168 -71c-71.333 0 -128.333 23 -171 69c-42 46 -63 108 -63 186v387h-53v-391c0 -88 26.667 -160.333 80 -217c53.333 -55.333 122 -83 206 -83s152.667 28.667 206 86
c52.667 58 79 131 79 219z" />
    <glyph glyph-name="V" unicode="V" horiz-adv-x="594" 
d="M593 682h-55l-240 -577l-242 577h-53l287 -689h15z" />
    <glyph glyph-name="W" unicode="W" horiz-adv-x="1031" 
d="M1031 682h-53l-226 -566l-228 566h-16l-229 -565l-226 565h-54l274 -689h14l229 576l229 -576h13z" />
    <glyph glyph-name="X" unicode="X" horiz-adv-x="688" 
d="M689 0l-311 349l293 333h-68l-259 -294l-260 294h-68l293 -333l-309 -349h68l276 312l276 -312h69z" />
    <glyph glyph-name="Y" unicode="Y" horiz-adv-x="583" 
d="M583 682h-64l-227 -270l-228 270h-64l265 -316v-366h53v366z" />
    <glyph glyph-name="Z" unicode="Z" horiz-adv-x="635" 
d="M611 0v44h-515l512 619l-5 19h-571v-44h488l-511 -623l5 -15h597z" />
    <glyph glyph-name="bracketleft" unicode="[" horiz-adv-x="302" 
d="M295 -220v47h-178v808h178v47h-226v-902h226z" />
    <glyph glyph-name="backslash" unicode="\" horiz-adv-x="281" 
d="M278 -9l-219 700h-46l219 -700h46z" />
    <glyph glyph-name="bracketright" unicode="]" horiz-adv-x="302" 
d="M233 -220v902h-226v-47h178v-808h-178v-47h226z" />
    <glyph glyph-name="asciicircum" unicode="^" horiz-adv-x="660" 
d="M550 430l-217 258h-6l-216 -258l31 -28l188 225l189 -225z" />
    <glyph glyph-name="underscore" unicode="_" horiz-adv-x="500" 
d="M507 -304v50h-513v-50h513z" />
    <glyph glyph-name="grave" unicode="`" horiz-adv-x="333" 
d="M262 521l-104 156h-81l153 -156h32z" />
    <glyph glyph-name="a" unicode="a" horiz-adv-x="510" 
d="M446 -2v451h-47v-31c-21.333 12.667 -44 22.667 -68 30c-22 6.66699 -44.333 10 -67 10c-66.667 0 -121.334 -23 -164.001 -69c-42 -46 -63 -105 -63 -177c0 -64.667 20.333 -117.667 61 -159c41.333 -41.333 93.333 -62 156 -62c28.667 0 54.334 3.33301 77.001 10
c24.667 6.66699 47 14.667 67 24v-27h48zM399 75c-14.667 -9.33301 -33.666 -18.666 -56.999 -27.999c-22 -8 -48.333 -12 -79 -12c-52.667 0 -95 16.333 -127 49c-32 32 -48 75 -48 129c0 57.333 17.667 104.666 53 141.999s79.666 56 132.999 56c28 0 53.667 -5 77 -15
c23.333 -10.667 39.333 -19 48 -25v-296z" />
    <glyph glyph-name="b" unicode="b" horiz-adv-x="510" 
d="M471 236c0 67.333 -18.3311 121.332 -54.998 161.999c-37.333 40 -86.333 60 -147 60c-28.667 0 -56.334 -6 -83.001 -18c-26.667 -10.667 -52 -29.667 -76 -57v299h-48l1 -657c20.667 -9.33301 45 -17.666 73 -24.999c26 -6 52.667 -9 80 -9
c79.333 0 141.666 22.667 186.999 68s68 104.333 68 177zM421.002 233.999c0 -55.333 -18.999 -102.001 -56.999 -140.001c-38.667 -37.333 -85.667 -56 -141 -56c-26.667 0 -50.667 2.66699 -72 8c-19.333 4.66699 -33 9.33398 -41 14.001v273
c7.33301 8.66699 16.166 17.5 26.499 26.5s22.166 18.5 35.499 28.5c26.667 20 58.667 30 96 30c44.667 0 81.334 -17.333 110.001 -52c28.667 -36 43 -80 43 -132z" />
    <glyph glyph-name="c" unicode="c" horiz-adv-x="417" 
d="M387 14l0.00195312 50.001c-12 -5.33301 -28.333 -11 -49 -17c-21.333 -6 -44.333 -9 -69 -9c-55.333 0 -98.333 17 -129 51c-31.333 33.333 -47 78.333 -47 135c0 54.667 15.667 99.667 47 135c30.667 34.667 71.667 52 123 52c26.667 0 49 -3.33301 67 -10
c9.33301 -3.33301 18.166 -6.33301 26.499 -9s15.833 -5.66699 22.5 -9v53c-9.33301 3.33301 -18.5 6.16602 -27.5 8.49902l-27.5 7.5c-19.333 4 -40 6 -62 6c-67.333 0 -121 -23 -161 -69c-39.333 -45.333 -59 -100.333 -59 -165c0 -71.333 20 -128 60 -170s95 -63 165 -63
c25.333 0 49.666 3 72.999 9l28.5 8.5z" />
    <glyph glyph-name="d" unicode="d" horiz-adv-x="510" 
d="M450 0v682h-48v-260c-12.667 8 -31.667 16.333 -57 25c-24 7.33301 -47 11 -69 11c-70 0 -126.667 -21.667 -170 -65s-65 -99.666 -65 -168.999c0 -66 22 -121.333 66 -166s98 -67 162 -67c26 0 49 3.33301 69 10c20 7.33301 41.333 18.666 64 33.999v-35h48zM401 79
c-3.33301 -2.66699 -8.33203 -6.16797 -14.999 -10.501s-15.334 -9.16602 -26.001 -14.499c-19.333 -10.667 -46 -16 -80 -16c-54 0 -99 18 -135 54c-35.333 35.333 -53 79.333 -53 132c0 54.667 17 99.667 51 135c32.667 34.667 76 52 130 52c29.333 0 55 -5 77 -15
c23.333 -10.667 40.333 -20 51 -28v-289z" />
    <glyph glyph-name="e" unicode="e" horiz-adv-x="479" 
d="M446 241c0 62.667 -18.6631 114.665 -55.9961 155.998c-36.667 40.667 -84.334 61 -143.001 61c-60.667 0 -110.334 -22 -149.001 -66c-38.667 -43.333 -58 -97 -58 -161c0 -70 21.667 -127.667 65 -173c42.667 -44.667 98 -67 166 -67c35.333 0 68 6.66699 98 20
c14.667 6.66699 27.5 13.334 38.5 20.001s20.833 13.334 29.5 20.001v54c-6.66699 -6 -15.334 -12.5 -26.001 -19.5s-23.334 -14.833 -38.001 -23.5c-29.333 -16 -62 -24 -98 -24c-52.667 0 -96.667 17.667 -132 53c-35.333 34 -53 77.333 -53 130v11
c0 3.33301 0.333008 6.33301 1 9h355zM387.004 279.998h-290.999c9.33301 32.667 21.666 58.667 36.999 78c28.667 35.333 67 53 115 53c40 0 71.667 -11.667 95 -35c22 -22 36.667 -54 44 -96z" />
    <glyph glyph-name="f" unicode="f" horiz-adv-x="240" 
d="M332 627l-0.000976562 44.998c-3.33301 2.66699 -13 6.33398 -29 11.001c-17.333 5.33301 -34.666 8 -51.999 8c-46 0 -83.667 -15.667 -113 -47s-44 -71.666 -44 -120.999v-74h-83v-39h83v-410h48v410h87v39h-87v59c0 46.667 9 81 27 103s44.333 33 79 33
c18.667 0 37 -2.66699 55 -8c8 -2.66699 14.5 -4.66699 19.5 -6s8.16699 -2.33301 9.5 -3z" />
    <glyph glyph-name="g" unicode="g" horiz-adv-x="510" 
d="M447 -92l-0.999023 0.000976562v541h-47v-31c-21.333 12.667 -44 22.667 -68 30c-22 6.66699 -44.333 10 -67 10c-66.667 0 -121.334 -23 -164.001 -69c-42 -46 -63 -105 -63 -177c0 -64.667 20.333 -117.667 61 -159c41.333 -41.333 93.333 -62 156 -62
c28.667 0 54.334 3.33301 77.001 10c24.667 6.66699 47 14.667 67 24v-117c0 -10.667 -4.16699 -20.834 -12.5 -30.501s-18.5 -18.334 -30.5 -26.001s-24.667 -13.667 -38 -18s-24.666 -6.5 -33.999 -6.5c-23.333 0 -45.333 6.66699 -66 20
c-9.33301 6.66699 -17.833 15.334 -25.5 26.001s-14.834 22.667 -21.501 36l-50 -1c14 -41.333 36 -74.666 66 -99.999c29.333 -24.667 61.666 -37 96.999 -37c16 0 33.5 3.83301 52.5 11.5s36.833 18 53.5 31s30.5 27.667 41.5 44s16.5 33.166 16.5 50.499zM399.001 75.001
c-14.667 -9.33301 -33.666 -18.666 -56.999 -27.999c-22 -8 -48.333 -12 -79 -12c-52.667 0 -95 16.333 -127 49c-32 32 -48 75 -48 129c0 57.333 17.667 104.666 53 141.999s79.666 56 132.999 56c28 0 53.667 -5 77 -15c23.333 -10.667 39.333 -19 48 -25v-296z" />
    <glyph glyph-name="h" unicode="h" 
d="M428 0l-0.000976562 271c0 58.667 -15.333 104.334 -46 137.001c-31.333 33.333 -73 50 -125 50c-29.333 0 -55.666 -6.66699 -78.999 -20c-22.667 -12.667 -45.334 -36.334 -68.001 -71.001v315h-48v-682h48v317c16.667 25.333 36 47.333 58 66
c22.667 18.667 52.334 28 89.001 28c40 0 70.667 -13.667 92 -41c20.667 -28 31 -66 31 -114v-256h48z" />
    <glyph glyph-name="i" unicode="i" horiz-adv-x="188" 
d="M118 600v82h-48v-82h48zM118 0v449h-48v-449h48z" />
    <glyph glyph-name="j" unicode="j" horiz-adv-x="188" 
d="M116 600v82h-48v-82h48zM116 -32l0.000976562 481h-48v-496c0 -53.333 -8 -90.333 -24 -111c-16.667 -20.667 -39.334 -31 -68.001 -31h-4l13 -41c31.333 0 61 14 89 42c28 26.667 42 78.667 42 156z" />
    <glyph glyph-name="k" unicode="k" horiz-adv-x="427" 
d="M463 0l-284 236l246 213h-63l-248 -213l284 -236h65zM107 0v236v446h-48v-682h48z" />
    <glyph glyph-name="l" unicode="l" horiz-adv-x="188" 
d="M118 0v682h-48v-682h48z" />
    <glyph glyph-name="m" unicode="m" horiz-adv-x="771" 
d="M709 0v271.001c0 55.333 -13.333 100.333 -40 135c-26 34.667 -61 52 -105 52h-12c-38.667 0 -70.667 -11.667 -96 -35c-26 -24 -45.333 -48 -58 -72c-18.667 42 -39.667 70.333 -63 85c-22.667 14.667 -46.667 22 -72 22h-12c-28.667 0 -54.667 -6.66699 -78 -20
c-22.667 -13.333 -44.667 -37 -66 -71v82h-47v-449h48v316c8 12.667 16.5 24.667 25.5 36s18.833 21.666 29.5 30.999c22 18.667 49.333 28 82 28c38 0 67 -13.667 87 -41c19.333 -27.333 29 -65.333 29 -114v-256h48v306c14.667 24 33 47.667 55 71
c22 22.667 47.667 34 77 34c38 0 67.667 -13.667 89 -41c20.667 -26.667 31 -64.667 31 -114v-256h48z" />
    <glyph glyph-name="n" unicode="n" 
d="M428 0v271c0 58.667 -15.333 104.334 -46 137.001c-31.333 33.333 -73 50 -125 50c-30 0 -56.667 -6.66699 -80 -20c-22.667 -12.667 -45.334 -36.334 -68.001 -71.001v82h-47v-449h48v317c16.667 25.333 36 47.333 58 66c22.667 18.667 52.334 28 89.001 28
c40 0 70.667 -13.667 92 -41c20.667 -28 31 -66 31 -114v-256h48z" />
    <glyph glyph-name="o" unicode="o" horiz-adv-x="542" 
d="M500 224c0 66 -22 121.668 -66 167.001c-42.667 44.667 -97 67 -163 67c-65.333 0 -120 -22.333 -164 -67c-43.333 -45.333 -65 -101 -65 -167s22 -121.333 66 -166c42.667 -44.667 97 -67 163 -67c65.333 0 120 22.333 164 67c43.333 45.333 65 100.666 65 165.999z
M449 224.001c0 -51.333 -17.333 -95.333 -52 -132c-35.333 -36 -77.333 -54 -126 -54c-49.333 0 -91.333 18.333 -126 55c-34.667 35.333 -52 79 -52 131s17.333 96.333 52 133c34.667 36 76.667 54 126 54s91.333 -18.333 126 -55c34.667 -35.333 52 -79.333 52 -132z" />
    <glyph glyph-name="p" unicode="p" horiz-adv-x="510" 
d="M469 225c0 68.667 -21.332 124.664 -63.999 167.997c-43.333 43.333 -98 65 -164 65c-21.333 0 -43.333 -3 -66 -9c-24 -6 -45 -14.333 -63 -25v25h-49v-679h48v255c11.333 -5.33301 22.5 -10.166 33.5 -14.499s22.167 -8.16602 33.5 -11.499
c23.333 -5.33301 47.666 -8 72.999 -8c60 0 111.333 23.333 154 70s64 101.334 64 164.001zM416.001 223.997c0 -54 -16.665 -98.668 -49.998 -134.001c-32.667 -34.667 -76.334 -52 -131.001 -52c-28.667 0 -53.334 4 -74.001 12c-19.333 6.66699 -36 13.667 -50 21v308
c4.66699 2.66699 10.667 5.66699 18 9s16.333 7 27 11c20 8 44.333 12 73 12c53.333 0 98 -18 134 -54c35.333 -35.333 53 -79.666 53 -132.999z" />
    <glyph glyph-name="q" unicode="q" horiz-adv-x="510" 
d="M446 -230v679h-47v-31c-21.333 12.667 -44 22.667 -68 30c-22 6.66699 -44.333 10 -67 10c-66.667 0 -121.334 -23 -164.001 -69c-42 -46 -63 -105 -63 -177c0 -64.667 20.333 -117.667 61 -159c41.333 -41.333 93.333 -62 156 -62c28.667 0 54.334 3.33301 77.001 10
c24.667 6.66699 47 14.667 67 24v-255h48zM399 75c-14.667 -9.33301 -33.666 -18.666 -56.999 -27.999c-22 -8 -48.333 -12 -79 -12c-52.667 0 -95 16.333 -127 49c-32 32 -48 75 -48 129c0 57.333 17.667 104.666 53 141.999s79.666 56 132.999 56c28 0 53.667 -5 77 -15
c23.333 -10.667 39.333 -19 48 -25v-296z" />
    <glyph glyph-name="r" unicode="r" horiz-adv-x="333" 
d="M373 404c-4.66699 6 -17.333 16.333 -38 31c-21.333 15.333 -43 23 -65 23c-13.333 0 -26.833 -1.33301 -40.5 -4s-27.5 -9.66699 -41.5 -21c-13.333 -11.333 -26.5 -23.333 -39.5 -36s-25.5 -29 -37.5 -49v101h-48v-449h48v283c13.333 24 33.666 51 60.999 81
c28 31.333 56 47 84 47c12.667 0 26.667 -4.66699 42 -14c7.33301 -4.66699 14.833 -10 22.5 -16s15.834 -13 24.501 -21z" />
    <glyph glyph-name="s" unicode="s" horiz-adv-x="354" 
d="M323 116c0 36 -12.3359 63.998 -37.0029 83.998c-26 20.667 -57.667 37.334 -95 50.001c-29.333 10.667 -54 22.667 -74 36c-18 12.667 -27 30 -27 52c0 20.667 9 38.667 27 54c16.667 14.667 40.667 22 72 22c21.333 0 43 -4.66699 65 -14
c10.667 -4.66699 20.5 -9.66699 29.5 -15s17.5 -11 25.5 -17v51c-10 8.66699 -26 17.334 -48 26.001c-11.333 4 -23.166 7.16699 -35.499 9.5s-25.833 3.5 -40.5 3.5c-36 0 -68.667 -11.667 -98 -35c-28.667 -22.667 -43 -51.334 -43 -86.001c0 -32 10 -57.333 30 -76
c20.667 -20 49.334 -36.333 86.001 -49c48.667 -18 80.667 -34 96 -48c14 -14 21 -29.667 21 -47c0 -24 -9.33301 -43.333 -28 -58c-19.333 -14 -43 -21 -71 -21c-23.333 0 -47.666 4.33301 -72.999 13c-25.333 8 -46.666 17.667 -63.999 29v-48
c12 -7.33301 29.333 -16.333 52 -27c24 -10 52.333 -15 85 -15c41.333 0 75.666 12.333 102.999 37c28 24.667 42 54.334 42 89.001z" />
    <glyph glyph-name="t" unicode="t" horiz-adv-x="302" 
d="M293 13l0.000976562 47c-14 -6.66699 -27.667 -12 -41 -16s-26 -6 -38 -6c-28.667 0 -47.667 5.66699 -57 17c-8.66699 10.667 -13 33.667 -13 69v286h126v39h-126v149h-15l-33 -22v-127h-121v-39h121v-319c0 -31.333 9.33301 -56 28 -74c19.333 -17.333 45 -26 77 -26
c17.333 0 33 2 47 6c7.33301 2 14.666 4.33301 21.999 7s15 5.66699 23 9z" />
    <glyph glyph-name="u" unicode="u" 
d="M428 0l-0.00195312 449.001h-48v-314c-11.333 -22 -30 -43.667 -56 -65c-25.333 -21.333 -55.333 -32 -90 -32c-39.333 0 -70 12.667 -92 38c-21.333 25.333 -32 60.666 -32 105.999v267h-48v-277c0 -58.667 15.667 -103.667 47 -135
c30.667 -30.667 74.334 -46 131.001 -46c24.667 0 49.334 6.66699 74.001 20c23.333 12.667 45.333 35 66 67v-78h48z" />
    <glyph glyph-name="v" unicode="v" horiz-adv-x="427" 
d="M427 449h-47l-162 -378l-169 378h-49l204 -458h30z" />
    <glyph glyph-name="w" unicode="w" horiz-adv-x="708" 
d="M707 449h-47l-156 -366l-141 366h-22l-141 -366l-153 366h-47l192 -458h22l139 365l138 -365h23z" />
    <glyph glyph-name="x" unicode="x" horiz-adv-x="479" 
d="M482 449h-62l-176 -186l-176 186h-62l205 -219l-205 -230h62l176 197l176 -197h61l-205 230z" />
    <glyph glyph-name="y" unicode="y" horiz-adv-x="417" 
d="M422 449h-49l-154 -314l-162 314h-52l190 -363l-157 -316h49z" />
    <glyph glyph-name="z" unicode="z" horiz-adv-x="396" 
d="M385 0v44h-295l295 390l-4 15h-355v-44h281l-297 -390l5 -15h370z" />
    <glyph glyph-name="braceleft" unicode="{" horiz-adv-x="333" 
d="M287 -220l-0.000976562 53.998h-16c-22 0 -39.667 6.66699 -53 20c-12.667 12 -19 35.333 -19 70v126c0 52.667 -9 93.667 -27 123c-18 27.333 -41 46.666 -69 57.999c28.667 11.333 51.667 31 69 59c18 28 27 68.667 27 122v126c0 34 6.66699 57.667 20 71
c14 12.667 31.333 19 52 19h16v54h-13c-49.333 0 -83.666 -14.667 -102.999 -44c-18.667 -28.667 -28 -64 -28 -106v-145c0 -37.333 -7.66699 -66.666 -23 -87.999c-14.667 -20 -38 -32.667 -70 -38v-60c32 -5.33301 55.333 -18 70 -38
c15.333 -21.333 23 -50.666 23 -87.999v-145c0 -41.333 9.66699 -76.666 29 -105.999s53.333 -44 102 -44h13z" />
    <glyph glyph-name="bar" unicode="|" horiz-adv-x="222" 
d="M134 -250v1000h-48v-1000h48z" />
    <glyph glyph-name="braceright" unicode="}" horiz-adv-x="333" 
d="M284 201l0.000976562 60.002c-32 5.33301 -55.667 18 -71 38c-15.333 21.333 -23 50.666 -23 87.999v145c0 41.333 -9.66699 76.666 -29 105.999s-53.333 44 -102 44h-13v-54h16c22 0 39.667 -6.66699 53 -20c12.667 -12 19 -35.333 19 -70v-126
c0 -53.333 9.33301 -94.333 28 -123c18 -27.333 41 -46.666 69 -57.999c-28 -11.333 -51.333 -31 -70 -59c-18 -28 -27 -68.667 -27 -122v-126c0 -34 -6.66699 -57.667 -20 -71c-14 -12.667 -31.333 -19 -52 -19h-16v-54h13c49.333 0 83.666 14.667 102.999 44
c18.667 30 28 65.333 28 106v145c0 37.333 8 66.666 24 87.999c14.667 20 38 32.667 70 38z" />
    <glyph glyph-name="asciitilde" unicode="~" horiz-adv-x="660" 
d="M594 392l-32.499 -21.999c-11 -7.33301 -22.833 -14.666 -35.5 -21.999c-24.667 -15.333 -48 -23 -70 -23c-27.333 0 -68 13.333 -122 40c-55.333 26 -98.666 39 -129.999 39c-32.667 0 -62.334 -9 -89.001 -27l-32 -21c-8 -5.33301 -13.333 -9 -16 -11v-55
c8.66699 7.33301 18.167 14.666 28.5 21.999s22.166 14.666 35.499 21.999c26.667 15.333 51.334 23 74.001 23c27.333 0 68 -13.333 122 -40c54.667 -26 98 -39 130 -39c31.333 0 60.666 9 87.999 27l32 21c8 5.33301 13.333 9 16 11z" />
    <glyph glyph-name="exclamdown" unicode="&#xa1;" horiz-adv-x="177" 
d="M121 364v97h-65v-97h65zM121 -221l-17 490h-31l-17 -490h65z" />
    <glyph glyph-name="cent" unicode="&#xa2;" horiz-adv-x="417" 
d="M410 638h-43.998l-65 -183c-11.333 2 -24.333 3 -39 3c-67.333 0 -121 -23 -161 -69c-39.333 -45.333 -59 -100.333 -59 -165c0 -71.333 20 -128 60 -170c12 -12 27 -23.667 45 -35l-73 -208h44l68 192c18.667 -8 45.667 -12 81 -12c25.333 0 49.666 3 72.999 9l28.5 8.5
l18.5 5.5v50c-12 -5.33301 -28.333 -11 -49 -17c-21.333 -6 -44.333 -9 -69 -9c-28 0 -50.333 3.66699 -67 11l125 353c0.666992 -0.666992 1.66699 -1 3 -1c9.33301 -3.33301 18.166 -6.33301 26.499 -9s15.833 -5.66699 22.5 -9v53l-18 6c-6 2 -12.333 3.66699 -19 5z
M285.002 410l-120.999 -342.999c-10 8 -18 15 -24 21c-31.333 33.333 -47 78.666 -47 135.999c0 54.667 15.667 99.667 47 135c30.667 34.667 71.667 52 123 52h12c3.33301 0 6.66602 -0.333008 9.99902 -1z" />
    <glyph glyph-name="sterling" unicode="&#xa3;" horiz-adv-x="552" 
d="M539 13l0.00195312 53.001c-8.66699 -4.66699 -17 -8.5 -25 -11.5l-23 -8.5c-13.333 -4.66699 -29.666 -7 -48.999 -7c-7.33301 0 -17.5 1 -30.5 3s-29.167 4.66699 -48.5 8s-37.333 6.16602 -54 8.49902s-32.334 2.83301 -47.001 1.5l-103 -7l67 254h120v47h-106l36 101
c19.333 54.667 45.666 99.667 78.999 135c16.667 17.333 35.167 31 55.5 41s42.833 14 67.5 12l26 -2l27 -6l-24 47l-45 9c-60.667 0 -111.334 -25.333 -152.001 -76c-20.667 -25.333 -37.667 -50.833 -51 -76.5s-24.333 -51.167 -33 -76.5l-36 -108h-96v-47h84
c-1.33301 0 -14.333 -47.333 -39 -142c-25.333 -94 -40.333 -143 -45 -147v-23l34.5 6l36.5 6c12.667 1.33301 26 2.5 40 3.5s29 1.5 45 1.5c29.333 0 65.333 -3.66699 108 -11c39.333 -6.66699 67 -10 83 -10c22.667 0 42 2.33301 58 7s29.333 9.66699 40 15z" />
    <glyph glyph-name="currency" unicode="&#xa4;" horiz-adv-x="677" 
d="M665 56l0.00195312 54.999c-15.333 -8.66699 -31.833 -17.167 -49.5 -25.5s-37.167 -16.166 -58.5 -23.499c-41.333 -14.667 -86.333 -22 -135 -22c-90.667 0 -164.334 28 -221.001 84c-28.667 28.667 -50.334 61.667 -65.001 99h496v40h-508
c-5.33301 25.333 -8 51.333 -8 78c0 38 5.33301 72 16 102h500v40h-483c12.667 26.667 30.667 51 54 73c57.333 57.333 129.333 86 216 86c44 0 86 -6.33301 126 -19c42.667 -13.333 80 -29.333 112 -48v59c-33.333 17.333 -71 31.333 -113 42c-42 10 -80.667 15 -116 15
c-105.333 0 -193.333 -33.333 -264 -100c-34 -33.333 -59.333 -69.333 -76 -108h-80v-40h65c-9.33301 -33.333 -14 -67.333 -14 -102c0 -13.333 0.5 -26.666 1.5 -39.999s2.83301 -26 5.5 -38h-58v-40h69c17.333 -51.333 46.333 -96 87 -134
c69.333 -65.333 158.333 -98 267 -98c39.333 0 80 6.33301 122 19c21.333 6.66699 41.5 13.667 60.5 21s36.167 15.666 51.5 24.999z" />
    <glyph glyph-name="currency" unicode="&#x20ac;" horiz-adv-x="677" 
d="M665 56l0.00195312 54.999c-15.333 -8.66699 -31.833 -17.167 -49.5 -25.5s-37.167 -16.166 -58.5 -23.499c-41.333 -14.667 -86.333 -22 -135 -22c-90.667 0 -164.334 28 -221.001 84c-28.667 28.667 -50.334 61.667 -65.001 99h496v40h-508
c-5.33301 25.333 -8 51.333 -8 78c0 38 5.33301 72 16 102h500v40h-483c12.667 26.667 30.667 51 54 73c57.333 57.333 129.333 86 216 86c44 0 86 -6.33301 126 -19c42.667 -13.333 80 -29.333 112 -48v59c-33.333 17.333 -71 31.333 -113 42c-42 10 -80.667 15 -116 15
c-105.333 0 -193.333 -33.333 -264 -100c-34 -33.333 -59.333 -69.333 -76 -108h-80v-40h65c-9.33301 -33.333 -14 -67.333 -14 -102c0 -13.333 0.5 -26.666 1.5 -39.999s2.83301 -26 5.5 -38h-58v-40h69c17.333 -51.333 46.333 -96 87 -134
c69.333 -65.333 158.333 -98 267 -98c39.333 0 80 6.33301 122 19c21.333 6.66699 41.5 13.667 60.5 21s36.167 15.666 51.5 24.999z" />
    <glyph glyph-name="yen" unicode="&#xa5;" horiz-adv-x="556" 
d="M555 716h-70l-204 -354l-207 354h-72l213 -354h-184v-47h212l4 -7v-69h-216v-47h216v-192h64v192h212v47h-212v69l4 7h208v47h-180z" />
    <glyph glyph-name="brokenbar" unicode="&#xa6;" horiz-adv-x="222" 
d="M134 325v425h-48v-425h48zM134 -250v425h-48v-425h48z" />
    <glyph glyph-name="section" unicode="&#xa7;" horiz-adv-x="396" 
d="M370 178c0 32.667 -8.33105 62.6689 -24.998 90.002c-15.333 27.333 -38.333 54.666 -69 81.999l-93 83c-24.667 22.667 -43.334 44.667 -56.001 66c-12.667 20.667 -19 41.334 -19 62.001c0 28.667 10.333 50.334 31 65.001c19.333 14.667 40.333 22 63 22
c18.667 0 36.334 -5.66699 53.001 -17c16 -12 26.333 -28.667 31 -50h51c-6.66699 39.333 -23.334 67.666 -50.001 84.999c-24.667 16.667 -51.334 25 -80.001 25c-42 0 -77.333 -11.667 -106 -35c-27.333 -23.333 -41 -56 -41 -98c0 -21.333 4.66699 -42.333 14 -63
s21.666 -39.667 36.999 -57c-25.333 -22.667 -46.333 -48.334 -63 -77.001c-15.333 -28.667 -23 -54.667 -23 -78c0 -32.667 8.33301 -62.667 25 -90c8 -14 17.833 -27.833 29.5 -41.5s25.167 -27.167 40.5 -40.5l92 -83c24.667 -22.667 43.334 -44.667 56.001 -66
c13.333 -21.333 20 -42 20 -62c0 -28.667 -10.333 -50.334 -31 -65.001s-42 -22 -64 -22c-18.667 0 -36.334 5.66699 -53.001 17c-15.333 11.333 -25.333 28 -30 50h-51c6.66699 -40 23 -68.333 49 -85c24.667 -16.667 51.667 -25 81 -25c42 0 77.333 11.667 106 35
c27.333 23.333 41 56 41 98c0 21.333 -4.66699 42.333 -14 63s-21.666 39.667 -36.999 57c25.333 23.333 46 49 62 77c15.333 28.667 23 54.667 23 78zM320.002 178.002c0 -20 -4.33301 -39 -13 -57c-4.66699 -9.33301 -11.334 -19.5 -20.001 -30.5s-19.667 -22.5 -33 -34.5
l-125 114c-5.33301 5.33301 -10.833 11.833 -16.5 19.5s-11.834 16.5 -18.501 26.5c-12.667 18.667 -19 41.667 -19 69c0 20 4.33301 39 13 57c4.66699 9.33301 11.334 19.5 20.001 30.5s19.667 22.5 33 34.5l125 -114c5.33301 -5.33301 10.833 -11.833 16.5 -19.5
s11.834 -16.5 18.501 -26.5c12.667 -18.667 19 -41.667 19 -69z" />
    <glyph glyph-name="dieresis" unicode="&#xa8;" horiz-adv-x="333" 
d="M269 558v68h-68v-68h68zM132 558v68h-68v-68h68z" />
    <glyph glyph-name="copyright" unicode="&#xa9;" horiz-adv-x="800" 
d="M772 356c0 102.667 -36.333 190.334 -109 263.001s-160.667 109 -264 109c-102.667 0 -190.334 -36.333 -263.001 -109s-109 -160.667 -109 -264c0 -102.667 36.333 -190.334 109 -263.001s160.667 -109 264 -109c102.667 0 190.334 36.333 263.001 109
s109 160.667 109 264zM725 355c0 -89.333 -32 -166 -96 -230c-63.333 -63.333 -140 -95 -230 -95c-89.333 0 -166 32 -230 96c-63.333 63.333 -95 140 -95 230c0 89.333 32 166 96 230c63.333 63.333 140 95 230 95c89.333 0 166 -32 230 -96
c63.333 -63.333 95 -140 95 -230zM566 270l-43.9971 16c-8.66699 -29.333 -23.667 -53.666 -45 -72.999c-21.333 -18 -46.333 -27 -75 -27c-44.667 0 -78.334 17 -101.001 51c-23.333 34.667 -35 76.667 -35 126c0 44 12.333 80.667 37 110c24 30 58.667 45 104 45
c25.333 0 47.333 -7.33301 66 -22c18.667 -15.333 32.667 -35 42 -59l47 12c-14.667 32.667 -35 59 -61 79c-26.667 20.667 -57.334 31 -92.001 31c-58.667 0 -106 -19.333 -142 -58c-35.333 -38.667 -53 -86.334 -53 -143.001c0 -64.667 18.333 -116.667 55 -156
c36 -40 81.333 -60 136 -60c37.333 0 70.666 11.667 99.999 35c30 24 50.333 55 61 93z" />
    <glyph glyph-name="ordfeminine" unicode="&#xaa;" horiz-adv-x="281" 
d="M277 435l-0.000976562 23.999c-3.33301 -2 -6.66602 -4.16699 -9.99902 -6.5s-7.33301 -4.83301 -12 -7.5c-9.33301 -6 -16.666 -9.33301 -21.999 -10l-6 12v170c0 24 -8.33301 42.333 -25 55c-15.333 12.667 -38 19 -68 19c-21.333 0 -41.333 -4 -60 -12
c-18.667 -7.33301 -30.334 -13.333 -35.001 -18v-29c3.33301 2.66699 7.83301 5.83398 13.5 9.50098s12.834 7.83398 21.501 12.501c17.333 8.66699 36.333 13 57 13s36.667 -4.33301 48 -13c11.333 -9.33301 17 -24 17 -44v-34c-26.667 -0.666992 -47 -2.66699 -61 -6
c-6.66699 -1.33301 -13.167 -2.83301 -19.5 -4.5s-12.833 -3.5 -19.5 -5.5c-20 -6.66699 -37.333 -17.334 -52 -32.001c-14 -13.333 -21 -31.666 -21 -54.999c0 -18.667 8 -34.334 24 -47.001c15.333 -13.333 35.333 -20 60 -20c14 0 30 3.66699 48 11
c15.333 6 29 14.333 41 25c0 -10.667 1.66699 -19.334 5 -26.001c2.66699 -6 8 -9 16 -9c9.33301 0 20.333 3.66699 33 11c6 3.33301 11.167 6.33301 15.5 9s8.16602 5.33398 11.499 8.00098zM195.999 465.999l-15.499 -11c-5.66699 -4 -12.167 -8.33301 -19.5 -13
c-14 -8 -30 -12 -48 -12s-32.667 4.66699 -44 14c-10 8 -15 18.333 -15 31c0 16.667 6.33301 30.334 19 41.001c14 12 29 20.333 45 25c10 3.33301 19 5.66602 27 6.99902s14.667 2.33301 20 3s10.666 1 15.999 1h15v-86z" />
    <glyph glyph-name="guillemotleft" unicode="&#xab;" horiz-adv-x="500" 
d="M482 6l-189 225l187 225h-61l-187 -225l189 -225h61zM270 6l-189 225l187 225h-61l-187 -225l189 -225h61z" />
    <glyph glyph-name="logicalnot" unicode="&#xac;" horiz-adv-x="672" 
d="M455 490c-9.33301 3.33301 -17.165 6.50098 -23.498 9.50098l-19 9c-6.33301 3 -13.333 6.5 -21 10.5l-27.5 15l27.5 14c7.66699 4 14.667 7.5 21 10.5l19 9c6.33301 3 14.166 6.16699 23.499 9.5l-19 34c-9.33301 -7.33301 -17 -13 -23 -17l-17 -11
c-5.33301 -4 -11.5 -8.16699 -18.5 -12.5l-25.5 -15.5c0.666992 12 1.16699 22.167 1.5 30.5s0.833008 16 1.5 23s1.16699 14 1.5 21s1.16602 15.5 2.49902 25.5h-37c1.33301 -10 2.33301 -18.5 3 -25.5s1.16699 -14 1.5 -21s0.5 -14.833 0.5 -23.5c0 -8 0.333008 -18 1 -30
l-25.5 15.5c-7 4.33301 -13.167 8.5 -18.5 12.5l-17 11c-6 4 -13.667 9.66699 -23 17l-18 -34c8.66699 -3.33301 16.334 -6.5 23.001 -9.5s13 -6 19 -9l20 -10.5c7.33301 -4 16.666 -8.66699 27.999 -14l-28 -15l-20 -10.5c-6 -3 -12.333 -6 -19 -9
s-14.334 -6.16699 -23.001 -9.5l18 -35c9.33301 7.33301 16.833 13 22.5 17l17.5 12l18.5 11.5l25.5 16.5c-0.666992 -12.667 -1 -23.334 -1 -32.001c0 -8 -0.166992 -15.5 -0.5 -22.5s-0.833008 -13.833 -1.5 -20.5s-1.66699 -15 -3 -25h37
c-1.33301 10 -2.16602 18.333 -2.49902 25s-0.833008 13.5 -1.5 20.5s-1.16699 14.667 -1.5 23s-0.833008 18.833 -1.5 31.5l25.5 -16.5l18.5 -11.5l17.5 -12c5.66699 -4 13.167 -9.66699 22.5 -17zM645.001 -43.999h-303l-2 276l198 243v-475h50v551h-48l-204 -250
l-205 250h-49v-551h51v475l197 -241l-26 -25v-275l-138 142l-28 -27l290 -302l29 28l-139 144l290 1z" />
    <glyph glyph-name="registered" unicode="&#xae;" horiz-adv-x="800" 
d="M772 356c0 102.667 -36.333 190.334 -109 263.001s-160.667 109 -264 109c-102.667 0 -190.334 -36.333 -263.001 -109s-109 -160.667 -109 -264c0 -102.667 36.333 -190.334 109 -263.001s160.667 -109 264 -109c102.667 0 190.334 36.333 263.001 109
s109 160.667 109 264zM725 355c0 -89.333 -32 -166 -96 -230c-63.333 -63.333 -140 -95 -230 -95c-89.333 0 -166 32 -230 96c-63.333 63.333 -95 140 -95 230c0 89.333 32 166 96 230c63.333 63.333 140 95 230 95c89.333 0 166 -32 230 -96
c63.333 -63.333 95 -140 95 -230zM560 155l-27.999 63l-15.5 33c-5 10.667 -11.167 21.334 -18.5 32.001c-12.667 20.667 -34.334 37.667 -65.001 51c36 4 63.333 16 82 36c19.333 19.333 29 43.666 29 72.999c0 30 -10.667 55 -32 75c-21.333 19.333 -58.333 29 -111 29
h-151v-392h48v172h38c40 0 71 -13.333 93 -40s45.667 -70.667 71 -132h60zM488.001 440c0 -24 -8.33301 -42.332 -25 -54.999c-15.333 -12.667 -46.333 -19 -93 -19h-72v142h84c32.667 0 58.667 -5 78 -15c18.667 -8.66699 28 -26.334 28 -53.001z" />
    <glyph glyph-name="macron" unicode="&#xaf;" horiz-adv-x="333" 
d="M299 572v51h-266v-51h266z" />
    <glyph glyph-name="degree" unicode="&#xb0;" horiz-adv-x="400" 
d="M340 552c0 38 -13.667 70.667 -41 98s-60.333 41 -99 41c-38 0 -70.667 -13.667 -98 -41s-41 -60.333 -41 -99c0 -38 13.667 -70.667 41 -98s60.333 -41 99 -41c38 0 70.667 13.667 98 41s41 60.333 41 99zM300 551c0 -27.333 -9.66699 -50.666 -29 -69.999
s-43 -29 -71 -29c-27.333 0 -50.666 9.66699 -69.999 29s-29 43 -29 71c0 27.333 9.66699 50.666 29 69.999s43 29 71 29c27.333 0 50.666 -9.66699 69.999 -29s29 -43 29 -71z" />
    <glyph glyph-name="plusminus" unicode="&#xb1;" horiz-adv-x="660" 
d="M592 329v44h-240v240h-44v-240h-240v-44h240v-240h44v240h240zM592 0v44h-524v-44h524z" />
    <glyph glyph-name="twosuperior" unicode="&#xb2;" horiz-adv-x="313" 
d="M302 332v24.002h-203l27 26l26 26l24 25.5c8 8.33301 15.667 17.5 23 27.5c6.66699 7.33301 13.334 15.5 20.001 24.5s13.667 19.833 21 32.5c13.333 25.333 20 48.666 20 69.999c0 29.333 -12.333 54 -37 74c-24.667 19.333 -55 29 -91 29
c-23.333 0 -44.333 -3.66699 -63 -11c-17.333 -7.33301 -30.333 -14.333 -39 -21v-32l22 15.5c7.33301 5 15 9.16699 23 12.5c16 7.33301 34 11 54 11c28 0 51.333 -7.33301 70 -22s28 -33.334 28 -56.001c0 -20.667 -5.33301 -40.667 -16 -60
c-5.33301 -10 -11.333 -20 -18 -30s-14 -20 -22 -30c-11.333 -13.333 -22.333 -25.5 -33 -36.5s-21.334 -21.167 -32.001 -30.5l-33.5 -29.5l-37.5 -32.5v-7h267z" />
    <glyph glyph-name="threesuperior" unicode="&#xb3;" horiz-adv-x="313" 
d="M271 432c0 20.667 -7.66895 38.6689 -23.002 54.002c-16 16 -37 27.333 -63 34c28.667 8 49.334 19.333 62.001 34c12 14.667 18 30.334 18 47.001c0 26 -12 47.667 -36 65c-22.667 16.667 -52.667 25 -90 25c-26 0 -47 -3 -63 -9
c-15.333 -4.66699 -26.333 -9.33398 -33 -14.001v-25c3.33301 1.33301 7.66602 3.16602 12.999 5.49902l20 8.5c14.667 6 34 9 58 9c28 0 51.667 -6.66699 71 -20c18.667 -12.667 28 -28.334 28 -47.001c0 -20 -10.333 -36.333 -31 -49s-45 -19 -73 -19h-4v-25h7
c32 0 58 -7.33301 78 -22c18.667 -14 28 -32.667 28 -56c0 -22.667 -9.66699 -41 -29 -55s-43.666 -21 -72.999 -21c-22 0 -41.333 2 -58 6c-8 2 -15.167 4 -21.5 6s-11.833 3.66699 -16.5 5v-24c8.66699 -3.33301 22 -7.33301 40 -12c18.667 -4 38.334 -6 59.001 -6
c38 0 69.667 9.66699 95 29c24.667 18.667 37 44 37 76z" />
    <glyph glyph-name="acute" unicode="&#xb4;" horiz-adv-x="333" 
d="M338 677h-81l-104 -156h32z" />
    <glyph glyph-name="mu" unicode="&#xb5;" horiz-adv-x="556" 
d="M460 0l0.000976562 449h-48v-314c-10.667 -21.333 -29 -43 -55 -65c-25.333 -21.333 -54.333 -32 -87 -32c-38.667 0 -68.667 12.667 -90 38c-20.667 24.667 -31 60 -31 106v267h-48v-626h48v228c12.667 -18 30 -32.333 52 -43c24 -11.333 50 -17 78 -17
c23.333 0 46.666 6.66699 69.999 20c22.667 12.667 43.667 35 63 67v-78h48z" />
    <glyph glyph-name="paragraph" unicode="&#xb6;" horiz-adv-x="650" 
d="M621 648v68h-340c-70 0 -126.333 -18.667 -169 -56c-42 -37.333 -63 -87.333 -63 -150c0 -63.333 20 -113.333 60 -150c38.667 -36.667 92 -55 160 -55v-504h64v847h129v-847h64v847h95z" />
    <glyph glyph-name="periodcentered" unicode="&#xb7;" horiz-adv-x="281" 
d="M120 297v98h-64v-98h64z" />
    <glyph glyph-name="periodcentered" unicode="&#x2219;" horiz-adv-x="281" 
d="M120 297v98h-64v-98h64z" />
    <glyph glyph-name="cedilla" unicode="&#xb8;" horiz-adv-x="333" 
d="M248 -101c0 18 -6 33.666 -18 46.999c-12 12.667 -26.667 19 -44 19l12 43h-30l-21 -70c20 0 35.333 -3.33301 46 -10s16 -16.667 16 -30s-5.66699 -23 -17 -29c-12.667 -6.66699 -28.667 -9.66699 -48 -9l-33 2l-5 -32l45 -5c28.667 0 52 7 70 21
c18 12.667 27 30.334 27 53.001z" />
    <glyph glyph-name="onesuperior" unicode="&#xb9;" horiz-adv-x="313" 
d="M173 332l-1 355h-33l1 -355h33z" />
    <glyph glyph-name="ordmasculine" unicode="&#xba;" horiz-adv-x="354" 
d="M328 549c0 41.333 -14.333 75.333 -43 102c-30 26.667 -66 40 -108 40c-42.667 0 -78.667 -13.667 -108 -41c-28.667 -26.667 -43 -60.334 -43 -101.001c0 -41.333 14.333 -75.333 43 -102s64.667 -40 108 -40c42.667 0 78.667 13.667 108 41
c28.667 26.667 43 60.334 43 101.001zM294 549c0 -31.333 -11.335 -58.333 -34.002 -81c-23.333 -22 -51 -33 -83 -33c-33.333 0 -61.333 11.333 -84 34c-22.667 22 -34 48.667 -34 80c0 30.667 11.667 57.667 35 81c22.667 22 50.334 33 83.001 33
s60.334 -11.333 83.001 -34c22.667 -22 34 -48.667 34 -80z" />
    <glyph glyph-name="guillemotright" unicode="&#xbb;" horiz-adv-x="500" 
d="M480 231l-187 225h-61l187 -225l-189 -225h61zM268 231l-187 225h-61l187 -225l-189 -225h61z" />
    <glyph glyph-name="onequarter" unicode="&#xbc;" horiz-adv-x="833" 
d="M600 309v-151h-155zM692 137v21h-60v201h-13l-219 -213v-9h200v-137h32v137h60zM627 691h-40l-525 -718h39zM179 332l-1 355h-33l1 -355h33z" />
    <glyph glyph-name="onehalf" unicode="&#xbd;" horiz-adv-x="833" 
d="M746 0v24.002h-203l27 26l26 26l24 25.5c8 8.33301 15.667 17.5 23 27.5c6.66699 7.33301 13.334 15.5 20.001 24.5s13.667 19.833 21 32.5c13.333 25.333 20 48.666 20 69.999c0 29.333 -12.333 54 -37 74c-24.667 19.333 -55 29 -91 29
c-23.333 0 -44.333 -3.66699 -63 -11c-17.333 -7.33301 -30.333 -14.333 -39 -21v-32l22 15.5c7.33301 5 15 9.16699 23 12.5c16 7.33301 34 11 54 11c28 0 51.333 -7.33301 70 -22s28 -33.334 28 -56.001c0 -20.667 -5.33301 -40.667 -16 -60
c-5.33301 -10 -11.333 -20 -18 -30s-14 -20 -22 -30c-11.333 -13.333 -22.333 -25.5 -33 -36.5s-21.334 -21.167 -32.001 -30.5l-33.5 -29.5l-37.5 -32.5v-7h267zM627 691.002h-40l-525 -718h39zM179 332.002l-1 355h-33l1 -355h33z" />
    <glyph glyph-name="threequarters" unicode="&#xbe;" horiz-adv-x="833" 
d="M657 309v-151h-155zM749 137v21h-60v201h-13l-219 -213v-9h200v-137h32v137h60zM678 691h-40l-525 -718h39zM289 432c0 20.667 -7.66895 38.6689 -23.002 54.002c-16 16 -37 27.333 -63 34c28.667 8 49.334 19.333 62.001 34c12 14.667 18 30.334 18 47.001
c0 26 -12 47.667 -36 65c-22.667 16.667 -52.667 25 -90 25c-26 0 -47 -3 -63 -9c-15.333 -4.66699 -26.333 -9.33398 -33 -14.001v-25c3.33301 1.33301 7.66602 3.16602 12.999 5.49902l20 8.5c14.667 6 34 9 58 9c28 0 51.667 -6.66699 71 -20
c18.667 -12.667 28 -28.334 28 -47.001c0 -20 -10.333 -36.333 -31 -49s-45 -19 -73 -19h-4v-25h7c32 0 58 -7.33301 78 -22c18.667 -14 28 -32.667 28 -56c0 -22.667 -9.66699 -41 -29 -55s-43.666 -21 -72.999 -21c-22 0 -41.333 2 -58 6c-8 2 -15.167 4 -21.5 6
s-11.833 3.66699 -16.5 5v-24c8.66699 -3.33301 22 -7.33301 40 -12c18.667 -4 38.334 -6 59.001 -6c38 0 69.667 9.66699 95 29c24.667 18.667 37 44 37 76z" />
    <glyph glyph-name="questiondown" unicode="&#xbf;" horiz-adv-x="281" 
d="M183 375v97h-65v-97h65zM241 -191l-17.001 42.998c-1.33301 -0.666992 -6 -3.16699 -14 -7.5s-17.667 -9 -29 -14s-20.333 -7.5 -27 -7.5c-22 0 -40.333 9.33301 -55 28c-14 18 -21 40 -21 66c0 29.333 6.66699 58 20 86c12.667 26.667 30.667 58.667 54 96
c16 26 27.333 48 34 66c5.33301 18 8 36.333 8 55c0 15.333 -4.33301 31.333 -13 48c-7.33301 15.333 -16 28.333 -26 39l-17 -15c4.66699 -8.66699 8.16699 -16.167 10.5 -22.5s4.16602 -11.166 5.49902 -14.499c0.666992 -3.33301 1.16699 -7 1.5 -11s0.5 -8 0.5 -12
c0 -15.333 -2.33301 -30 -7 -44c-4.66699 -14.667 -14.667 -33 -30 -55c-33.333 -48 -57 -85.667 -71 -113c-14 -28 -21 -60.667 -21 -98c0 -38 10.333 -71.333 31 -100c20.667 -28 52.334 -42 95.001 -42c16 0 29.667 2.33301 41 7c3.33301 1.33301 9 3.83301 17 7.5
l20.5 9.5c5.66699 2.66699 8.83398 4.33398 9.50098 5.00098z" />
    <glyph glyph-name="Agrave" unicode="&#xc0;" horiz-adv-x="667" 
d="M429 739l-104 156h-81l153 -156h32zM662 0l-314 687h-29l-315 -687h55l108 236h333l108 -236h54zM480 280h-293l146 321z" />
    <glyph glyph-name="Aacute" unicode="&#xc1;" horiz-adv-x="667" 
d="M505 895h-81l-104 -156h32zM662 0l-314 687h-29l-315 -687h55l108 236h333l108 -236h54zM480 280h-293l146 321z" />
    <glyph glyph-name="Acircumflex" unicode="&#xc2;" horiz-adv-x="667" 
d="M471 730l-109 164h-58l-108 -164h38l99 108l100 -108h38zM662 0l-314 687h-29l-315 -687h55l108 236h333l108 -236h54zM480 280h-293l146 321z" />
    <glyph glyph-name="Atilde" unicode="&#xc3;" horiz-adv-x="667" 
d="M496 860h-31.0029c-3.33301 -18.667 -9 -31.334 -17 -38.001c-7.33301 -6.66699 -15.666 -10 -24.999 -10c-16.667 0 -44 8.33301 -82 25c-38 16 -67.667 24 -89 24c-27.333 0 -48 -9.33301 -62 -28c-13.333 -19.333 -20 -41.666 -20 -66.999h32
c2 18.667 7.33301 31.334 16 38.001s17.334 10 26.001 10c16 0 43 -8.33301 81 -25c38 -16 67.667 -24 89 -24c28.667 0 49.334 9.33301 62.001 28c13.333 19.333 20 41.666 20 66.999zM661.997 0l-314 687h-29l-315 -687h55l108 236h333l108 -236h54zM479.997 280h-293
l146 321z" />
    <glyph glyph-name="Adieresis" unicode="&#xc4;" horiz-adv-x="667" 
d="M437 776v68h-68v-68h68zM300 776v68h-68v-68h68zM662 0l-314 687h-29l-315 -687h55l108 236h333l108 -236h54zM480 280h-293l146 321z" />
    <glyph glyph-name="Aring" unicode="&#xc5;" horiz-adv-x="667" 
d="M421 810c0 23.333 -8.66797 43.667 -26.001 61c-16.667 16.667 -37 25 -61 25s-44.333 -8.33301 -61 -25s-25 -37 -25 -61s8.33301 -44.333 25 -61s37 -25 61 -25c24.667 0 45.334 8.33301 62.001 25s25 37 25 61zM393.999 810.001c0 -17.333 -6 -31.333 -18 -42
c-11.333 -11.333 -25.333 -17 -42 -17s-30.667 5.66699 -42 17s-17 25.333 -17 42s5.66699 30.667 17 42s25.333 17 42 17c16 0 30.333 -5.66699 43 -17c11.333 -11.333 17 -25.333 17 -42zM661.999 0.000976562l-314 687h-29l-315 -687h55l108 236h333l108 -236h54z
M479.999 280.001h-293l146 321z" />
    <glyph glyph-name="AE" unicode="&#xc6;" horiz-adv-x="865" 
d="M824 0v44h-327v277l311 1v43h-311v273h320v44h-405l-426 -682h57l201 322h200v-322h380zM444 366h-171l171 278v-278z" />
    <glyph glyph-name="Ccedilla" unicode="&#xc7;" horiz-adv-x="677" 
d="M443 -101c0 18 -5.99805 33.665 -17.998 46.998c-12 12.667 -26.667 19 -44 19l8 27c5.33301 -0.666992 10.666 -1 15.999 -1h16c39.333 0 80 6.33301 122 19c21.333 6.66699 41.5 13.667 60.5 21s36.167 15.666 51.5 24.999v55
c-15.333 -8.66699 -31.833 -17.167 -49.5 -25.5s-37.167 -16.166 -58.5 -23.499c-41.333 -14.667 -86.333 -22 -135 -22c-90.667 0 -164.334 28 -221.001 84s-85 128.333 -85 217c0 86 29 157.667 87 215c57.333 57.333 129.333 86 216 86c44 0 86 -6.33301 126 -19
c42.667 -13.333 80 -29.333 112 -48v59c-33.333 17.333 -71 31.333 -113 42c-42 10 -80.667 15 -116 15c-105.333 0 -193.333 -33.333 -264 -100c-70 -67.333 -105 -150.666 -105 -249.999c0 -103.333 35 -187.333 105 -252c56.667 -52.667 125 -84 205 -94l-17 -57
c20 0 35.333 -3.33301 46 -10s16 -16.667 16 -30s-5.66699 -23 -17 -29c-12.667 -6.66699 -28.667 -9.66699 -48 -9l-33 2l-5 -32l45 -5c28.667 0 52 7 70 21c18 12.667 27 30.334 27 53.001z" />
    <glyph glyph-name="Egrave" unicode="&#xc8;" 
d="M353 739l-104 156h-81l153 -156h32zM460 0v44h-327v277l311 1v43h-311v273h320v44h-373v-682h380z" />
    <glyph glyph-name="Eacute" unicode="&#xc9;" 
d="M429 895h-81l-104 -156h32zM460 0v44h-327v277l311 1v43h-311v273h320v44h-373v-682h380z" />
    <glyph glyph-name="Ecircumflex" unicode="&#xca;" 
d="M395 730l-109 164h-58l-108 -164h38l99 108l100 -108h38zM460 0v44h-327v277l311 1v43h-311v273h320v44h-373v-682h380z" />
    <glyph glyph-name="Edieresis" unicode="&#xcb;" 
d="M361 776v68h-68v-68h68zM224 776v68h-68v-68h68zM460 0v44h-327v277l311 1v43h-311v273h320v44h-373v-682h380z" />
    <glyph glyph-name="Igrave" unicode="&#xcc;" horiz-adv-x="208" 
d="M201 739l-104 156h-81l153 -156h32zM130 0v682h-52v-682h52z" />
    <glyph glyph-name="Iacute" unicode="&#xcd;" horiz-adv-x="208" 
d="M277 895h-81l-104 -156h32zM130 0v682h-52v-682h52z" />
    <glyph glyph-name="Icircumflex" unicode="&#xce;" horiz-adv-x="208" 
d="M243 730l-109 164h-58l-108 -164h38l99 108l100 -108h38zM130 0v682h-52v-682h52z" />
    <glyph glyph-name="Idieresis" unicode="&#xcf;" horiz-adv-x="208" 
d="M209 776v68h-68v-68h68zM72 776v68h-68v-68h68zM130 0v682h-52v-682h52z" />
    <glyph glyph-name="Eth" unicode="&#xd0;" horiz-adv-x="740" 
d="M689 340c0 106 -32.999 189.668 -98.999 251.001c-64.667 59.333 -154 89.666 -268 90.999l-243 3v-321h-102v-44h102v-320h250c113.333 0 201.666 31.667 264.999 95s95 145 95 245zM632.001 340.001c0 -89.333 -28.999 -161 -86.999 -215s-134.667 -81 -230 -81h-183
v276h221v44h-221v274h185c95.333 0 171.666 -27.333 228.999 -82c57.333 -55.333 86 -127.333 86 -216z" />
    <glyph glyph-name="Ntilde" unicode="&#xd1;" horiz-adv-x="771" 
d="M552 860h-31.0029c-3.33301 -18.667 -9 -31.334 -17 -38.001c-7.33301 -6.66699 -15.666 -10 -24.999 -10c-16.667 0 -44 8.33301 -82 25c-38 16 -67.667 24 -89 24c-27.333 0 -48 -9.33301 -62 -28c-13.333 -19.333 -20 -41.666 -20 -66.999h32
c2 18.667 7.33301 31.334 16 38.001s17.334 10 26.001 10c16 0 43 -8.33301 81 -25c38 -16 67.667 -24 89 -24c28.667 0 49.334 9.33301 62.001 28c13.333 19.333 20 41.666 20 66.999zM693.997 0v682h-53v-598l-129 152l-130 147l-130 147l-129 152h-45v-682h53v596
l518 -596h45z" />
    <glyph glyph-name="Ograve" unicode="&#xd2;" horiz-adv-x="823" 
d="M507 739l-104 156h-81l153 -156h32zM773 341c0 99.333 -34.668 182.666 -104.001 249.999c-70 66.667 -155.667 100 -257 100c-102.667 0 -188.667 -33.667 -258 -101c-68.667 -66.667 -103 -149.667 -103 -249s34.667 -182.666 104 -249.999
c68.667 -66.667 154.334 -100 257.001 -100c102 0 187.667 33.667 257 101s104 150.333 104 249zM715.999 341c0 -82.667 -29.668 -153.667 -89.001 -213c-58.667 -58.667 -130.334 -88 -215.001 -88c-85.333 0 -157.333 29.333 -216 88s-88 129.667 -88 213
c0 82.667 29.667 153.667 89 213c58.667 58.667 130.334 88 215.001 88s156.334 -29.333 215.001 -88c59.333 -59.333 89 -130.333 89 -213z" />
    <glyph glyph-name="Oacute" unicode="&#xd3;" horiz-adv-x="823" 
d="M583 895h-81l-104 -156h32zM773 341c0 99.333 -34.668 182.666 -104.001 249.999c-70 66.667 -155.667 100 -257 100c-102.667 0 -188.667 -33.667 -258 -101c-68.667 -66.667 -103 -149.667 -103 -249s34.667 -182.666 104 -249.999
c68.667 -66.667 154.334 -100 257.001 -100c102 0 187.667 33.667 257 101s104 150.333 104 249zM715.999 341c0 -82.667 -29.668 -153.667 -89.001 -213c-58.667 -58.667 -130.334 -88 -215.001 -88c-85.333 0 -157.333 29.333 -216 88s-88 129.667 -88 213
c0 82.667 29.667 153.667 89 213c58.667 58.667 130.334 88 215.001 88s156.334 -29.333 215.001 -88c59.333 -59.333 89 -130.333 89 -213z" />
    <glyph glyph-name="Ocircumflex" unicode="&#xd4;" horiz-adv-x="823" 
d="M549 730l-109 164h-58l-108 -164h38l99 108l100 -108h38zM773 341c0 99.333 -34.668 182.666 -104.001 249.999c-70 66.667 -155.667 100 -257 100c-102.667 0 -188.667 -33.667 -258 -101c-68.667 -66.667 -103 -149.667 -103 -249s34.667 -182.666 104 -249.999
c68.667 -66.667 154.334 -100 257.001 -100c102 0 187.667 33.667 257 101s104 150.333 104 249zM715.999 341c0 -82.667 -29.668 -153.667 -89.001 -213c-58.667 -58.667 -130.334 -88 -215.001 -88c-85.333 0 -157.333 29.333 -216 88s-88 129.667 -88 213
c0 82.667 29.667 153.667 89 213c58.667 58.667 130.334 88 215.001 88s156.334 -29.333 215.001 -88c59.333 -59.333 89 -130.333 89 -213z" />
    <glyph glyph-name="Otilde" unicode="&#xd5;" horiz-adv-x="823" 
d="M574 860h-31.0029c-3.33301 -18.667 -9 -31.334 -17 -38.001c-7.33301 -6.66699 -15.666 -10 -24.999 -10c-16.667 0 -44 8.33301 -82 25c-38 16 -67.667 24 -89 24c-27.333 0 -48 -9.33301 -62 -28c-13.333 -19.333 -20 -41.666 -20 -66.999h32
c2 18.667 7.33301 31.334 16 38.001s17.334 10 26.001 10c16 0 43 -8.33301 81 -25c38 -16 67.667 -24 89 -24c28.667 0 49.334 9.33301 62.001 28c13.333 19.333 20 41.666 20 66.999zM772.997 341c0 99.333 -34.668 182.666 -104.001 249.999
c-70 66.667 -155.667 100 -257 100c-102.667 0 -188.667 -33.667 -258 -101c-68.667 -66.667 -103 -149.667 -103 -249s34.667 -182.666 104 -249.999c68.667 -66.667 154.334 -100 257.001 -100c102 0 187.667 33.667 257 101s104 150.333 104 249zM715.996 341
c0 -82.667 -29.668 -153.667 -89.001 -213c-58.667 -58.667 -130.334 -88 -215.001 -88c-85.333 0 -157.333 29.333 -216 88s-88 129.667 -88 213c0 82.667 29.667 153.667 89 213c58.667 58.667 130.334 88 215.001 88s156.334 -29.333 215.001 -88
c59.333 -59.333 89 -130.333 89 -213z" />
    <glyph glyph-name="Odieresis" unicode="&#xd6;" horiz-adv-x="823" 
d="M515 776v68h-68v-68h68zM378 776v68h-68v-68h68zM773 341c0 99.333 -34.668 182.666 -104.001 249.999c-70 66.667 -155.667 100 -257 100c-102.667 0 -188.667 -33.667 -258 -101c-68.667 -66.667 -103 -149.667 -103 -249s34.667 -182.666 104 -249.999
c68.667 -66.667 154.334 -100 257.001 -100c102 0 187.667 33.667 257 101s104 150.333 104 249zM715.999 341c0 -82.667 -29.668 -153.667 -89.001 -213c-58.667 -58.667 -130.334 -88 -215.001 -88c-85.333 0 -157.333 29.333 -216 88s-88 129.667 -88 213
c0 82.667 29.667 153.667 89 213c58.667 58.667 130.334 88 215.001 88s156.334 -29.333 215.001 -88c59.333 -59.333 89 -130.333 89 -213z" />
    <glyph glyph-name="multiply" unicode="&#xd7;" horiz-adv-x="660" 
d="M531 182l-169 169l169 169l-32 32l-169 -169l-169 169l-32 -32l169 -169l-169 -169l32 -32l169 169l169 -169z" />
    <glyph glyph-name="Oslash" unicode="&#xd8;" horiz-adv-x="823" 
d="M773 341c0 98.667 -34.332 181.333 -102.999 248l66 73l-37 26l-63 -70c-60.667 48.667 -135.334 73 -224.001 73c-102.667 0 -188.667 -33.667 -258 -101c-68.667 -66.667 -103 -149.667 -103 -249c0 -98 34.333 -181.333 103 -250l4 -4l-64 -71l37 -26l62 69
c59.333 -45.333 132.333 -68 219 -68c102 0 187.667 33.667 257 101s104 150.333 104 249zM716.001 340.999c0 -82.667 -29.666 -153.667 -88.999 -213c-58.667 -58.667 -130.334 -88 -215.001 -88c-70.667 0 -131.667 19.667 -183 59l404 449
c55.333 -57.333 83 -126.333 83 -207zM600.002 577.999l-405.001 -449c-58 58 -87 128.667 -87 212c0 82.667 29.667 153.667 89 213c58.667 58.667 130.334 88 215.001 88c74 0 136.667 -21.333 188 -64z" />
    <glyph glyph-name="Ugrave" unicode="&#xd9;" horiz-adv-x="698" 
d="M444 739l-104 156h-81l153 -156h32zM635 296v386h-53v-382c0 -79.333 -21 -142.333 -63 -189c-41.333 -47.333 -97.333 -71 -168 -71c-71.333 0 -128.333 23 -171 69c-42 46 -63 108 -63 186v387h-53v-391c0 -88 26.667 -160.333 80 -217c53.333 -55.333 122 -83 206 -83
s152.667 28.667 206 86c52.667 58 79 131 79 219z" />
    <glyph glyph-name="Uacute" unicode="&#xda;" horiz-adv-x="698" 
d="M520 895h-81l-104 -156h32zM635 296v386h-53v-382c0 -79.333 -21 -142.333 -63 -189c-41.333 -47.333 -97.333 -71 -168 -71c-71.333 0 -128.333 23 -171 69c-42 46 -63 108 -63 186v387h-53v-391c0 -88 26.667 -160.333 80 -217c53.333 -55.333 122 -83 206 -83
s152.667 28.667 206 86c52.667 58 79 131 79 219z" />
    <glyph glyph-name="Ucircumflex" unicode="&#xdb;" horiz-adv-x="698" 
d="M486 730l-109 164h-58l-108 -164h38l99 108l100 -108h38zM635 296v386h-53v-382c0 -79.333 -21 -142.333 -63 -189c-41.333 -47.333 -97.333 -71 -168 -71c-71.333 0 -128.333 23 -171 69c-42 46 -63 108 -63 186v387h-53v-391c0 -88 26.667 -160.333 80 -217
c53.333 -55.333 122 -83 206 -83s152.667 28.667 206 86c52.667 58 79 131 79 219z" />
    <glyph glyph-name="Udieresis" unicode="&#xdc;" horiz-adv-x="698" 
d="M452 776v68h-68v-68h68zM315 776v68h-68v-68h68zM635 296v386h-53v-382c0 -79.333 -21 -142.333 -63 -189c-41.333 -47.333 -97.333 -71 -168 -71c-71.333 0 -128.333 23 -171 69c-42 46 -63 108 -63 186v387h-53v-391c0 -88 26.667 -160.333 80 -217
c53.333 -55.333 122 -83 206 -83s152.667 28.667 206 86c52.667 58 79 131 79 219z" />
    <glyph glyph-name="Yacute" unicode="&#xdd;" horiz-adv-x="583" 
d="M462 895h-81l-104 -156h32zM583 682h-64l-227 -270l-228 270h-64l265 -316v-366h53v366z" />
    <glyph glyph-name="Thorn" unicode="&#xde;" horiz-adv-x="510" 
d="M131 205v274h137c50.667 0 90.667 -12.333 120 -37c29.333 -24 44 -57.333 44 -100c0 -45.333 -15 -79.333 -45 -102c-29.333 -23.333 -71 -35 -125 -35h-131zM488 341c0 59.333 -19.666 104.667 -58.999 136c-40 30.667 -95 46 -165 46h-133v159h-53v-682h53v160h135
c69.333 0 123.666 15.667 162.999 47s59 76 59 134z" />
    <glyph glyph-name="germandbls" unicode="&#xdf;" horiz-adv-x="500" 
d="M460 199c0 50 -11.667 89.667 -35 119c-24 30 -53 50.333 -87 61c33.333 14 57 36 71 66c13.333 30.667 20 57.667 20 81c0 48.667 -17.333 88.334 -52 119.001s-79 46 -133 46c-53.333 0 -97 -17 -131 -51s-51 -86.667 -51 -158v-482h48v448c0 84 12.333 138.667 37 164
c24 26 55.333 39 94 39c38 0 70.333 -10.333 97 -31c26.667 -20 40 -52.667 40 -98c0 -34.667 -9 -63.334 -27 -86.001c-18 -23.333 -41.333 -35 -70 -35h-8v-45c50.667 -6 86 -23.667 106 -53c19.333 -29.333 29 -64 29 -104c0 -45.333 -11.333 -83.333 -34 -114
c-22 -31.333 -53.667 -47 -95 -47c-12.667 0 -25 1.66699 -37 5l-14 3.5c-4 1 -7.33301 2.16699 -10 3.5v-50c6.66699 -2 14.667 -4 24 -6c8.66699 -2 19.667 -3 33 -3c56.667 0 101.667 20.667 135 62s50 90 50 146z" />
    <glyph glyph-name="agrave" unicode="&#xe0;" horiz-adv-x="483" 
d="M308 521l-104 156h-81l153 -156h32zM446 -2v451h-47v-31c-21.333 12.667 -44 22.667 -68 30c-22 6.66699 -44.333 10 -67 10c-66.667 0 -121.334 -23 -164.001 -69c-42 -46 -63 -105 -63 -177c0 -64.667 20.333 -117.667 61 -159c41.333 -41.333 93.333 -62 156 -62
c28.667 0 54.334 3.33301 77.001 10c24.667 6.66699 47 14.667 67 24v-27h48zM399 75c-14.667 -9.33301 -33.666 -18.666 -56.999 -27.999c-22 -8 -48.333 -12 -79 -12c-52.667 0 -95 16.333 -127 49c-32 32 -48 75 -48 129c0 57.333 17.667 104.666 53 141.999
s79.666 56 132.999 56c28 0 53.667 -5 77 -15c23.333 -10.667 39.333 -19 48 -25v-296z" />
    <glyph glyph-name="aacute" unicode="&#xe1;" horiz-adv-x="474" 
d="M384 677h-81l-104 -156h32zM446 -2v451h-47v-31c-21.333 12.667 -44 22.667 -68 30c-22 6.66699 -44.333 10 -67 10c-66.667 0 -121.334 -23 -164.001 -69c-42 -46 -63 -105 -63 -177c0 -64.667 20.333 -117.667 61 -159c41.333 -41.333 93.333 -62 156 -62
c28.667 0 54.334 3.33301 77.001 10c24.667 6.66699 47 14.667 67 24v-27h48zM399 75c-14.667 -9.33301 -33.666 -18.666 -56.999 -27.999c-22 -8 -48.333 -12 -79 -12c-52.667 0 -95 16.333 -127 49c-32 32 -48 75 -48 129c0 57.333 17.667 104.666 53 141.999
s79.666 56 132.999 56c28 0 53.667 -5 77 -15c23.333 -10.667 39.333 -19 48 -25v-296z" />
    <glyph glyph-name="acircumflex" unicode="&#xe2;" horiz-adv-x="493" 
d="M390 512l-109 164h-58l-108 -164h38l99 108l100 -108h38zM446 -2v451h-47v-31c-21.333 12.667 -44 22.667 -68 30c-22 6.66699 -44.333 10 -67 10c-66.667 0 -121.334 -23 -164.001 -69c-42 -46 -63 -105 -63 -177c0 -64.667 20.333 -117.667 61 -159
c41.333 -41.333 93.333 -62 156 -62c28.667 0 54.334 3.33301 77.001 10c24.667 6.66699 47 14.667 67 24v-27h48zM399 75c-14.667 -9.33301 -33.666 -18.666 -56.999 -27.999c-22 -8 -48.333 -12 -79 -12c-52.667 0 -95 16.333 -127 49c-32 32 -48 75 -48 129
c0 57.333 17.667 104.666 53 141.999s79.666 56 132.999 56c28 0 53.667 -5 77 -15c23.333 -10.667 39.333 -19 48 -25v-296z" />
    <glyph glyph-name="atilde" unicode="&#xe3;" horiz-adv-x="482" 
d="M415 642h-31.0029c-3.33301 -18.667 -9 -31.334 -17 -38.001c-7.33301 -6.66699 -15.666 -10 -24.999 -10c-16.667 0 -44 8.33301 -82 25c-38 16 -67.667 24 -89 24c-27.333 0 -48 -9.33301 -62 -28c-13.333 -19.333 -20 -41.666 -20 -66.999h32
c2 18.667 7.33301 31.334 16 38.001s17.334 10 26.001 10c16 0 43 -8.33301 81 -25c38 -16 67.667 -24 89 -24c28.667 0 49.334 9.33301 62.001 28c13.333 19.333 20 41.666 20 66.999zM445.997 -2v451h-47v-31c-21.333 12.667 -44 22.667 -68 30
c-22 6.66699 -44.333 10 -67 10c-66.667 0 -121.334 -23 -164.001 -69c-42 -46 -63 -105 -63 -177c0 -64.667 20.333 -117.667 61 -159c41.333 -41.333 93.333 -62 156 -62c28.667 0 54.334 3.33301 77.001 10c24.667 6.66699 47 14.667 67 24v-27h48zM398.997 75
c-14.667 -9.33301 -33.666 -18.666 -56.999 -27.999c-22 -8 -48.333 -12 -79 -12c-52.667 0 -95 16.333 -127 49c-32 32 -48 75 -48 129c0 57.333 17.667 104.666 53 141.999s79.666 56 132.999 56c28 0 53.667 -5 77 -15c23.333 -10.667 39.333 -19 48 -25v-296z" />
    <glyph glyph-name="adieresis" unicode="&#xe4;" 
d="M356 558v68h-68v-68h68zM219 558v68h-68v-68h68zM446 -2v451h-47v-31c-21.333 12.667 -44 22.667 -68 30c-22 6.66699 -44.333 10 -67 10c-66.667 0 -121.334 -23 -164.001 -69c-42 -46 -63 -105 -63 -177c0 -64.667 20.333 -117.667 61 -159
c41.333 -41.333 93.333 -62 156 -62c28.667 0 54.334 3.33301 77.001 10c24.667 6.66699 47 14.667 67 24v-27h48zM399 75c-14.667 -9.33301 -33.666 -18.666 -56.999 -27.999c-22 -8 -48.333 -12 -79 -12c-52.667 0 -95 16.333 -127 49c-32 32 -48 75 -48 129
c0 57.333 17.667 104.666 53 141.999s79.666 56 132.999 56c28 0 53.667 -5 77 -15c23.333 -10.667 39.333 -19 48 -25v-296z" />
    <glyph glyph-name="aring" unicode="&#xe5;" horiz-adv-x="427" 
d="M350 592c0 23.333 -8.66797 43.667 -26.001 61c-16.667 16.667 -37 25 -61 25s-44.333 -8.33301 -61 -25s-25 -37 -25 -61s8.33301 -44.333 25 -61s37 -25 61 -25c24.667 0 45.334 8.33301 62.001 25s25 37 25 61zM322.999 592.001c0 -17.333 -6 -31.333 -18 -42
c-11.333 -11.333 -25.333 -17 -42 -17s-30.667 5.66699 -42 17s-17 25.333 -17 42s5.66699 30.667 17 42s25.333 17 42 17c16 0 30.333 -5.66699 43 -17c11.333 -11.333 17 -25.333 17 -42zM445.999 -1.99902v451h-47v-31c-21.333 12.667 -44 22.667 -68 30
c-22 6.66699 -44.333 10 -67 10c-66.667 0 -121.334 -23 -164.001 -69c-42 -46 -63 -105 -63 -177c0 -64.667 20.333 -117.667 61 -159c41.333 -41.333 93.333 -62 156 -62c28.667 0 54.334 3.33301 77.001 10c24.667 6.66699 47 14.667 67 24v-27h48zM398.999 75.001
c-14.667 -9.33301 -33.666 -18.666 -56.999 -27.999c-22 -8 -48.333 -12 -79 -12c-52.667 0 -95 16.333 -127 49c-32 32 -48 75 -48 129c0 57.333 17.667 104.666 53 141.999s79.666 56 132.999 56c28 0 53.667 -5 77 -15c23.333 -10.667 39.333 -19 48 -25v-296z" />
    <glyph glyph-name="ae" unicode="&#xe6;" horiz-adv-x="750" 
d="M728 241c0 63.333 -16.335 115.331 -49.002 155.998s-74.667 61 -126 61c-28.667 0 -53.667 -5.66699 -75 -17c-4 -2 -8.5 -5 -13.5 -9s-9.83301 -8.33301 -14.5 -13l-13.5 -13.5l-10.5 -10.5v54h-47v-31c-21.333 12.667 -44 22.667 -68 30
c-22 6.66699 -44.333 10 -67 10c-66.667 0 -121.334 -23 -164.001 -69c-42 -46 -63 -105 -63 -177c0 -64.667 20.333 -117.667 61 -159c41.333 -41.333 93.333 -62 156 -62c28.667 0 54.334 3.33301 77.001 10c24.667 6.66699 47 14.667 67 24v-27h48v62
c7.33301 -8 17 -17.5 29 -28.5s22.333 -18.5 31 -22.5c22.667 -12 48.334 -18 77.001 -18c33.333 0 64 6.66699 92 20c13.333 6.66699 25.333 13.334 36 20.001s20 13.334 28 20.001v54c-6 -6 -13.667 -12.5 -23 -19.5s-20.333 -14.833 -33 -23.5
c-25.333 -16 -53 -24 -83 -24c-45.333 0 -82.666 17.667 -111.999 53c-22 24.667 -36 55 -42 91v59h302zM668.998 279.998h-241c6.66699 30.667 17 56.667 31 78c24 35.333 56 53 96 53c33.333 0 59.666 -11.667 78.999 -35c18.667 -23.333 30.334 -55.333 35.001 -96z
M378.998 74.998c-14.667 -9.33301 -33.666 -18.666 -56.999 -27.999c-22 -8 -48.333 -12 -79 -12c-52.667 0 -95 16.333 -127 49c-32 32 -48 75 -48 129c0 57.333 17.667 104.666 53 141.999s79.666 56 132.999 56c28 0 53.667 -5 77 -15c23.333 -10.667 39.333 -19 48 -25
v-296z" />
    <glyph glyph-name="ccedilla" unicode="&#xe7;" horiz-adv-x="417" 
d="M297 -101c0 18 -5.99805 33.667 -17.998 47c-12 12.667 -26.667 19 -44 19l8 27c3.33301 -0.666992 7 -1 11 -1h13c25.333 0 49.666 3 72.999 9l28.5 8.5l18.5 5.5v50c-12 -5.33301 -28.333 -11 -49 -17c-21.333 -6 -44.333 -9 -69 -9c-55.333 0 -98.333 17 -129 51
c-31.333 33.333 -47 78.333 -47 135c0 54.667 15.667 99.667 47 135c30.667 34.667 71.667 52 123 52c26.667 0 49 -3.33301 67 -10c9.33301 -3.33301 18.166 -6.33301 26.499 -9s15.833 -5.66699 22.5 -9v53c-9.33301 3.33301 -18.5 6.16602 -27.5 8.49902l-27.5 7.5
c-19.333 4 -40 6 -62 6c-67.333 0 -121 -23 -161 -69c-39.333 -45.333 -59 -100.333 -59 -165c0 -71.333 20 -128 60 -170c28.667 -30.667 65.667 -50 111 -58l-17 -58c20 0 35.333 -3.33301 46 -10s16 -16.667 16 -30s-5.66699 -23 -17 -29
c-12.667 -6.66699 -28.667 -9.66699 -48 -9l-33 2l-5 -32l45 -5c28.667 0 52 7 70 21c18 12.667 27 30.334 27 53.001z" />
    <glyph glyph-name="egrave" unicode="&#xe8;" horiz-adv-x="479" 
d="M335 521l-104 156h-81l153 -156h32zM446 241c0 62.667 -18.6631 114.665 -55.9961 155.998c-36.667 40.667 -84.334 61 -143.001 61c-60.667 0 -110.334 -22 -149.001 -66c-38.667 -43.333 -58 -97 -58 -161c0 -70 21.667 -127.667 65 -173
c42.667 -44.667 98 -67 166 -67c35.333 0 68 6.66699 98 20c14.667 6.66699 27.5 13.334 38.5 20.001s20.833 13.334 29.5 20.001v54c-6.66699 -6 -15.334 -12.5 -26.001 -19.5s-23.334 -14.833 -38.001 -23.5c-29.333 -16 -62 -24 -98 -24
c-52.667 0 -96.667 17.667 -132 53c-35.333 34 -53 77.333 -53 130v11c0 3.33301 0.333008 6.33301 1 9h355zM387.004 279.998h-290.999c9.33301 32.667 21.666 58.667 36.999 78c28.667 35.333 67 53 115 53c40 0 71.667 -11.667 95 -35c22 -22 36.667 -54 44 -96z" />
    <glyph glyph-name="eacute" unicode="&#xe9;" horiz-adv-x="479" 
d="M411 677h-81l-104 -156h32zM446 241c0 62.667 -18.6631 114.665 -55.9961 155.998c-36.667 40.667 -84.334 61 -143.001 61c-60.667 0 -110.334 -22 -149.001 -66c-38.667 -43.333 -58 -97 -58 -161c0 -70 21.667 -127.667 65 -173c42.667 -44.667 98 -67 166 -67
c35.333 0 68 6.66699 98 20c14.667 6.66699 27.5 13.334 38.5 20.001s20.833 13.334 29.5 20.001v54c-6.66699 -6 -15.334 -12.5 -26.001 -19.5s-23.334 -14.833 -38.001 -23.5c-29.333 -16 -62 -24 -98 -24c-52.667 0 -96.667 17.667 -132 53
c-35.333 34 -53 77.333 -53 130v11c0 3.33301 0.333008 6.33301 1 9h355zM387.004 279.998h-290.999c9.33301 32.667 21.666 58.667 36.999 78c28.667 35.333 67 53 115 53c40 0 71.667 -11.667 95 -35c22 -22 36.667 -54 44 -96z" />
    <glyph glyph-name="ecircumflex" unicode="&#xea;" horiz-adv-x="479" 
d="M377 512l-109 164h-58l-108 -164h38l99 108l100 -108h38zM446 241c0 62.667 -18.6631 114.665 -55.9961 155.998c-36.667 40.667 -84.334 61 -143.001 61c-60.667 0 -110.334 -22 -149.001 -66c-38.667 -43.333 -58 -97 -58 -161c0 -70 21.667 -127.667 65 -173
c42.667 -44.667 98 -67 166 -67c35.333 0 68 6.66699 98 20c14.667 6.66699 27.5 13.334 38.5 20.001s20.833 13.334 29.5 20.001v54c-6.66699 -6 -15.334 -12.5 -26.001 -19.5s-23.334 -14.833 -38.001 -23.5c-29.333 -16 -62 -24 -98 -24
c-52.667 0 -96.667 17.667 -132 53c-35.333 34 -53 77.333 -53 130v11c0 3.33301 0.333008 6.33301 1 9h355zM387.004 279.998h-290.999c9.33301 32.667 21.666 58.667 36.999 78c28.667 35.333 67 53 115 53c40 0 71.667 -11.667 95 -35c22 -22 36.667 -54 44 -96z" />
    <glyph glyph-name="edieresis" unicode="&#xeb;" horiz-adv-x="479" 
d="M343 558v68h-68v-68h68zM206 558v68h-68v-68h68zM446 241c0 62.667 -18.6631 114.665 -55.9961 155.998c-36.667 40.667 -84.334 61 -143.001 61c-60.667 0 -110.334 -22 -149.001 -66c-38.667 -43.333 -58 -97 -58 -161c0 -70 21.667 -127.667 65 -173
c42.667 -44.667 98 -67 166 -67c35.333 0 68 6.66699 98 20c14.667 6.66699 27.5 13.334 38.5 20.001s20.833 13.334 29.5 20.001v54c-6.66699 -6 -15.334 -12.5 -26.001 -19.5s-23.334 -14.833 -38.001 -23.5c-29.333 -16 -62 -24 -98 -24
c-52.667 0 -96.667 17.667 -132 53c-35.333 34 -53 77.333 -53 130v11c0 3.33301 0.333008 6.33301 1 9h355zM387.004 279.998h-290.999c9.33301 32.667 21.666 58.667 36.999 78c28.667 35.333 67 53 115 53c40 0 71.667 -11.667 95 -35c22 -22 36.667 -54 44 -96z" />
    <glyph glyph-name="igrave" unicode="&#xec;" horiz-adv-x="188" 
d="M189 521l-104 156h-81l153 -156h32zM118 0v449h-48v-449h48z" />
    <glyph glyph-name="iacute" unicode="&#xed;" horiz-adv-x="188" 
d="M225 677h-81l-104 -156h32zM118 0v449h-48v-449h48z" />
    <glyph glyph-name="icircumflex" unicode="&#xee;" horiz-adv-x="188" 
d="M231 512l-109 164h-58l-108 -164h38l99 108l100 -108h38zM118 0v449h-48v-449h48z" />
    <glyph glyph-name="idieresis" unicode="&#xef;" horiz-adv-x="188" 
d="M197 558v68h-68v-68h68zM60 558v68h-68v-68h68zM118 0v449h-48v-449h48z" />
    <glyph glyph-name="eth" unicode="&#xf0;" horiz-adv-x="559" 
d="M524 248c0 98.667 -26.3359 186.332 -79.0029 262.999c-9.33301 13.333 -20.166 26.833 -32.499 40.5s-27.166 28.167 -44.499 43.5l115 54l-16 33l-132 -62c-28 22 -67.333 42.333 -118 61l-18 -34c20 -9.33301 37.5 -18.166 52.5 -26.499s27.167 -15.833 36.5 -22.5
l-125 -58l15 -33l145 67c25.333 -20 43 -36 53 -48c38 -40.667 66.667 -90.334 86 -149.001c-27.333 28.667 -55.333 49.667 -84 63c-29.333 12 -60.333 18 -93 18c-72 0 -131.333 -22.333 -178 -67c-46 -45.333 -69 -101.666 -69 -168.999c0 -66 23.333 -121.333 70 -166
c46.667 -44 105.334 -66 176.001 -66s128.667 24 174 72c44 48 66 110 66 186zM472.997 228.998c0 -58 -17.666 -105.668 -52.999 -143.001c-34.667 -36.667 -80.334 -55 -137.001 -55c-56 0 -103.333 18.333 -142 55c-38 36.667 -57 81.667 -57 135
c0 54.667 18.667 101.334 56 140.001c36.667 38 84 57 142 57c56 0 102 -18 138 -54c35.333 -36.667 53 -81.667 53 -135z" />
    <glyph glyph-name="ntilde" unicode="&#xf1;" 
d="M409 642h-31.0029c-3.33301 -18.667 -9 -31.334 -17 -38.001c-7.33301 -6.66699 -15.666 -10 -24.999 -10c-16.667 0 -44 8.33301 -82 25c-38 16 -67.667 24 -89 24c-27.333 0 -48 -9.33301 -62 -28c-13.333 -19.333 -20 -41.666 -20 -66.999h32
c2 18.667 7.33301 31.334 16 38.001s17.334 10 26.001 10c16 0 43 -8.33301 81 -25c38 -16 67.667 -24 89 -24c28.667 0 49.334 9.33301 62.001 28c13.333 19.333 20 41.666 20 66.999zM427.997 0v271c0 58.667 -15.333 104.334 -46 137.001c-31.333 33.333 -73 50 -125 50
c-30 0 -56.667 -6.66699 -80 -20c-22.667 -12.667 -45.334 -36.334 -68.001 -71.001v82h-47v-449h48v317c16.667 25.333 36 47.333 58 66c22.667 18.667 52.334 28 89.001 28c40 0 70.667 -13.667 92 -41c20.667 -28 31 -66 31 -114v-256h48z" />
    <glyph glyph-name="ograve" unicode="&#xf2;" horiz-adv-x="542" 
d="M367 521l-104 156h-81l153 -156h32zM500 224c0 66 -22 121.668 -66 167.001c-42.667 44.667 -97 67 -163 67c-65.333 0 -120 -22.333 -164 -67c-43.333 -45.333 -65 -101 -65 -167s22 -121.333 66 -166c42.667 -44.667 97 -67 163 -67c65.333 0 120 22.333 164 67
c43.333 45.333 65 100.666 65 165.999zM449 224.001c0 -51.333 -17.333 -95.333 -52 -132c-35.333 -36 -77.333 -54 -126 -54c-49.333 0 -91.333 18.333 -126 55c-34.667 35.333 -52 79 -52 131s17.333 96.333 52 133c34.667 36 76.667 54 126 54s91.333 -18.333 126 -55
c34.667 -35.333 52 -79.333 52 -132z" />
    <glyph glyph-name="oacute" unicode="&#xf3;" horiz-adv-x="542" 
d="M443 677h-81l-104 -156h32zM500 224c0 66 -22 121.668 -66 167.001c-42.667 44.667 -97 67 -163 67c-65.333 0 -120 -22.333 -164 -67c-43.333 -45.333 -65 -101 -65 -167s22 -121.333 66 -166c42.667 -44.667 97 -67 163 -67c65.333 0 120 22.333 164 67
c43.333 45.333 65 100.666 65 165.999zM449 224.001c0 -51.333 -17.333 -95.333 -52 -132c-35.333 -36 -77.333 -54 -126 -54c-49.333 0 -91.333 18.333 -126 55c-34.667 35.333 -52 79 -52 131s17.333 96.333 52 133c34.667 36 76.667 54 126 54s91.333 -18.333 126 -55
c34.667 -35.333 52 -79.333 52 -132z" />
    <glyph glyph-name="ocircumflex" unicode="&#xf4;" horiz-adv-x="542" 
d="M409 512l-109 164h-58l-108 -164h38l99 108l100 -108h38zM500 224c0 66 -22 121.668 -66 167.001c-42.667 44.667 -97 67 -163 67c-65.333 0 -120 -22.333 -164 -67c-43.333 -45.333 -65 -101 -65 -167s22 -121.333 66 -166c42.667 -44.667 97 -67 163 -67
c65.333 0 120 22.333 164 67c43.333 45.333 65 100.666 65 165.999zM449 224.001c0 -51.333 -17.333 -95.333 -52 -132c-35.333 -36 -77.333 -54 -126 -54c-49.333 0 -91.333 18.333 -126 55c-34.667 35.333 -52 79 -52 131s17.333 96.333 52 133
c34.667 36 76.667 54 126 54s91.333 -18.333 126 -55c34.667 -35.333 52 -79.333 52 -132z" />
    <glyph glyph-name="otilde" unicode="&#xf5;" horiz-adv-x="542" 
d="M434 642h-31.0029c-3.33301 -18.667 -9 -31.334 -17 -38.001c-7.33301 -6.66699 -15.666 -10 -24.999 -10c-16.667 0 -44 8.33301 -82 25c-38 16 -67.667 24 -89 24c-27.333 0 -48 -9.33301 -62 -28c-13.333 -19.333 -20 -41.666 -20 -66.999h32
c2 18.667 7.33301 31.334 16 38.001s17.334 10 26.001 10c16 0 43 -8.33301 81 -25c38 -16 67.667 -24 89 -24c28.667 0 49.334 9.33301 62.001 28c13.333 19.333 20 41.666 20 66.999zM499.997 224c0 66 -22 121.668 -66 167.001c-42.667 44.667 -97 67 -163 67
c-65.333 0 -120 -22.333 -164 -67c-43.333 -45.333 -65 -101 -65 -167s22 -121.333 66 -166c42.667 -44.667 97 -67 163 -67c65.333 0 120 22.333 164 67c43.333 45.333 65 100.666 65 165.999zM448.997 224.001c0 -51.333 -17.333 -95.333 -52 -132
c-35.333 -36 -77.333 -54 -126 -54c-49.333 0 -91.333 18.333 -126 55c-34.667 35.333 -52 79 -52 131s17.333 96.333 52 133c34.667 36 76.667 54 126 54s91.333 -18.333 126 -55c34.667 -35.333 52 -79.333 52 -132z" />
    <glyph glyph-name="odieresis" unicode="&#xf6;" horiz-adv-x="542" 
d="M375 558v68h-68v-68h68zM238 558v68h-68v-68h68zM500 224c0 66 -22 121.668 -66 167.001c-42.667 44.667 -97 67 -163 67c-65.333 0 -120 -22.333 -164 -67c-43.333 -45.333 -65 -101 -65 -167s22 -121.333 66 -166c42.667 -44.667 97 -67 163 -67
c65.333 0 120 22.333 164 67c43.333 45.333 65 100.666 65 165.999zM449 224.001c0 -51.333 -17.333 -95.333 -52 -132c-35.333 -36 -77.333 -54 -126 -54c-49.333 0 -91.333 18.333 -126 55c-34.667 35.333 -52 79 -52 131s17.333 96.333 52 133
c34.667 36 76.667 54 126 54s91.333 -18.333 126 -55c34.667 -35.333 52 -79.333 52 -132z" />
    <glyph glyph-name="divide" unicode="&#xf7;" horiz-adv-x="660" 
d="M357 472v84h-54v-84h54zM592 329v44h-524v-44h524zM357 146v84h-54v-84h54z" />
    <glyph glyph-name="oslash" unicode="&#xf8;" horiz-adv-x="542" 
d="M500 224c0 65.333 -20.667 119.668 -62 163.001l54 62l-31 25l-52 -60c-37.333 29.333 -83.333 44 -138 44c-65.333 0 -120 -22.333 -164 -67c-43.333 -45.333 -65 -101 -65 -167c0 -65.333 20.333 -119.333 61 -162l-59 -68l31 -24l57 66c36.667 -30 83 -45 139 -45
c65.333 0 120 22.333 164 67c43.333 45.333 65 100.666 65 165.999zM449 224.002c0 -51.333 -17.333 -95.333 -52 -132c-35.333 -36 -77.333 -54 -126 -54c-42 0 -77.333 12 -106 36l239 274c30 -34 45 -75.333 45 -124zM376 376.002l-239 -275
c-29.333 34.667 -44 75.667 -44 123c0 52 17.333 96.333 52 133c34.667 36 76.667 54 126 54c40.667 0 75.667 -11.667 105 -35z" />
    <glyph glyph-name="ugrave" unicode="&#xf9;" 
d="M340 521l-104 156h-81l153 -156h32zM428 0l-0.00195312 449.001h-48v-314c-11.333 -22 -30 -43.667 -56 -65c-25.333 -21.333 -55.333 -32 -90 -32c-39.333 0 -70 12.667 -92 38c-21.333 25.333 -32 60.666 -32 105.999v267h-48v-277c0 -58.667 15.667 -103.667 47 -135
c30.667 -30.667 74.334 -46 131.001 -46c24.667 0 49.334 6.66699 74.001 20c23.333 12.667 45.333 35 66 67v-78h48z" />
    <glyph glyph-name="uacute" unicode="&#xfa;" 
d="M416 677h-81l-104 -156h32zM428 0l-0.00195312 449.001h-48v-314c-11.333 -22 -30 -43.667 -56 -65c-25.333 -21.333 -55.333 -32 -90 -32c-39.333 0 -70 12.667 -92 38c-21.333 25.333 -32 60.666 -32 105.999v267h-48v-277c0 -58.667 15.667 -103.667 47 -135
c30.667 -30.667 74.334 -46 131.001 -46c24.667 0 49.334 6.66699 74.001 20c23.333 12.667 45.333 35 66 67v-78h48z" />
    <glyph glyph-name="ucircumflex" unicode="&#xfb;" 
d="M382 512l-109 164h-58l-108 -164h38l99 108l100 -108h38zM428 0l-0.00195312 449.001h-48v-314c-11.333 -22 -30 -43.667 -56 -65c-25.333 -21.333 -55.333 -32 -90 -32c-39.333 0 -70 12.667 -92 38c-21.333 25.333 -32 60.666 -32 105.999v267h-48v-277
c0 -58.667 15.667 -103.667 47 -135c30.667 -30.667 74.334 -46 131.001 -46c24.667 0 49.334 6.66699 74.001 20c23.333 12.667 45.333 35 66 67v-78h48z" />
    <glyph glyph-name="udieresis" unicode="&#xfc;" 
d="M348 558v68h-68v-68h68zM211 558v68h-68v-68h68zM428 0l-0.00195312 449.001h-48v-314c-11.333 -22 -30 -43.667 -56 -65c-25.333 -21.333 -55.333 -32 -90 -32c-39.333 0 -70 12.667 -92 38c-21.333 25.333 -32 60.666 -32 105.999v267h-48v-277
c0 -58.667 15.667 -103.667 47 -135c30.667 -30.667 74.334 -46 131.001 -46c24.667 0 49.334 6.66699 74.001 20c23.333 12.667 45.333 35 66 67v-78h48z" />
    <glyph glyph-name="yacute" unicode="&#xfd;" horiz-adv-x="417" 
d="M379 677h-81l-104 -156h32zM422 449h-49l-154 -314l-162 314h-52l190 -363l-157 -316h49z" />
    <glyph glyph-name="thorn" unicode="&#xfe;" horiz-adv-x="510" 
d="M469 225c0 68.667 -21.333 124.664 -64 167.997c-43.333 43.333 -98 65 -164 65c-21.333 0 -43.333 -3 -66 -9c-23.333 -6 -44.666 -14.333 -63.999 -25v258h-48v-912h48v255c11.333 -5.33301 22.5 -10.166 33.5 -14.499s22.167 -8.16602 33.5 -11.499
c23.333 -5.33301 47.666 -8 72.999 -8c60 0 111.333 23.333 154 70s64 101.334 64 164.001zM416 223.997c0 -54 -16.665 -98.668 -49.998 -134.001c-32.667 -34.667 -76.334 -52 -131.001 -52c-28.667 0 -53.334 4 -74.001 12c-19.333 6.66699 -36 13.667 -50 21v308
c4.66699 2.66699 10.667 5.66699 18 9s16.333 7 27 11c20 8 44.333 12 73 12c53.333 0 98 -18 134 -54c35.333 -35.333 53 -79.666 53 -132.999z" />
    <glyph glyph-name="ydieresis" unicode="&#xff;" horiz-adv-x="417" 
d="M311 558v68h-68v-68h68zM174 558v68h-68v-68h68zM422 449h-49l-154 -314l-162 314h-52l190 -363l-157 -316h49z" />
    <glyph glyph-name="OE" unicode="&#x152;" horiz-adv-x="896" 
d="M859 0l-0.000976562 44.001h-330v277l314 1v43h-314v273h323v44h-454c-101.333 0 -186.333 -32.333 -255 -97c-68 -64 -102 -144 -102 -240c0 -100.667 34 -183.334 102 -248.001c66.667 -64.667 152.334 -97 257.001 -97h459zM475.999 44.001h-65
c-90.667 0 -165.334 28 -224.001 84c-59.333 56 -89 127 -89 213c0 84 29.667 154.667 89 212c58.667 56.667 132.334 85 221.001 85h68v-594z" />
    <glyph glyph-name="oe" unicode="&#x153;" horiz-adv-x="833" 
d="M790 241c0 62.667 -15.665 114.664 -46.998 155.997c-30.667 40.667 -71 61 -121 61c-37.333 0 -69.333 -7.33301 -96 -22c-26.667 -14 -52 -38.333 -76 -73c-23.333 34 -50 58.333 -80 73c-28.667 14.667 -65.667 22 -111 22c-63.333 0 -115.333 -22.333 -156 -67
c-41.333 -45.333 -62 -101 -62 -167c0 -65.333 20.667 -120.666 62 -165.999c40.667 -44.667 91.667 -67 153 -67c45.333 0 84.666 9.66699 117.999 29s60 45 80 77c16.667 -41.333 40.667 -69.333 72 -84c30 -14.667 64.333 -22 103 -22c32 0 62 6.66699 90 20
c13.333 6.66699 25.166 13.334 35.499 20.001s19.166 13.334 26.499 20.001v54c-6 -6 -13.667 -12.5 -23 -19.5s-20.333 -14.833 -33 -23.5c-25.333 -16 -53.333 -24 -84 -24c-45.333 0 -83.666 17.667 -114.999 53c-30 34.667 -45 78 -45 130v11
c0 3.33301 0.333008 6.33301 1 9h308zM731.002 279.997h-244.999c7.33301 32.667 17.666 58.667 30.999 78c23.333 35.333 56 53 98 53c34 0 60.667 -11.667 80 -35c18.667 -23.333 30.667 -55.333 36 -96zM429.003 223.997c0 -51.333 -16.334 -95.333 -49.001 -132
c-33.333 -36 -73 -54 -119 -54c-47.333 0 -87.333 18.333 -120 55c-32.667 35.333 -49 79 -49 131s16.333 96.333 49 133c32.667 36 72.667 54 120 54c46.667 0 86.334 -18.333 119.001 -55c32.667 -35.333 49 -79.333 49 -132z" />
    <glyph glyph-name="Scaron" unicode="&#x160;" horiz-adv-x="469" 
d="M373 894h-38l-100 -108l-99 108h-38l108 -164h58zM427 173c0 52 -12.6719 92.334 -38.0049 121.001c-24.667 27.333 -71.667 53.666 -141 78.999c-52 19.333 -89.333 38.666 -112 57.999c-22 18.667 -33 46.667 -33 84c0 34.667 14 64.667 42 90
c26.667 24.667 60.334 37 101.001 37c34 0 64 -6.33301 90 -19l36.5 -18c11 -5.33301 20.167 -10.333 27.5 -15l-1 58c-3.33301 2.66699 -9.66602 6.16699 -18.999 10.5s-21.666 9.5 -36.999 15.5c-30.667 11.333 -65 17 -103 17c-52 0 -97.667 -17.667 -137 -53
c-38 -35.333 -57 -77 -57 -125c0 -49.333 13 -87 39 -113c25.333 -26 66 -48.667 122 -68c54.667 -18.667 96 -39.334 124 -62.001c26.667 -22 40 -53.333 40 -94c0 -38.667 -14 -71 -42 -97s-62.667 -39 -104 -39c-26 0 -52.333 6 -79 18
c-13.333 6 -27.666 13.5 -42.999 22.5s-31.333 19.833 -48 32.5v-62c7.33301 -5.33301 16.833 -11.166 28.5 -17.499s25.834 -13.166 42.501 -20.499c32 -14.667 68 -22 108 -22c52.667 0 98 18 136 54s57 78.667 57 128z" />
    <glyph glyph-name="scaron" unicode="&#x161;" horiz-adv-x="354" 
d="M315 676h-38l-100 -108l-99 108h-38l108 -164h58zM323 116c0 36 -12.3359 63.998 -37.0029 83.998c-26 20.667 -57.667 37.334 -95 50.001c-29.333 10.667 -54 22.667 -74 36c-18 12.667 -27 30 -27 52c0 20.667 9 38.667 27 54c16.667 14.667 40.667 22 72 22
c21.333 0 43 -4.66699 65 -14c10.667 -4.66699 20.5 -9.66699 29.5 -15s17.5 -11 25.5 -17v51c-10 8.66699 -26 17.334 -48 26.001c-11.333 4 -23.166 7.16699 -35.499 9.5s-25.833 3.5 -40.5 3.5c-36 0 -68.667 -11.667 -98 -35c-28.667 -22.667 -43 -51.334 -43 -86.001
c0 -32 10 -57.333 30 -76c20.667 -20 49.334 -36.333 86.001 -49c48.667 -18 80.667 -34 96 -48c14 -14 21 -29.667 21 -47c0 -24 -9.33301 -43.333 -28 -58c-19.333 -14 -43 -21 -71 -21c-23.333 0 -47.666 4.33301 -72.999 13c-25.333 8 -46.666 17.667 -63.999 29v-48
c12 -7.33301 29.333 -16.333 52 -27c24 -10 52.333 -15 85 -15c41.333 0 75.666 12.333 102.999 37c28 24.667 42 54.334 42 89.001z" />
    <glyph glyph-name="Ydieresis" unicode="&#x178;" horiz-adv-x="583" 
d="M394 776v68h-68v-68h68zM257 776v68h-68v-68h68zM583 682h-64l-227 -270l-228 270h-64l265 -316v-366h53v366z" />
    <glyph glyph-name="florin" unicode="&#x192;" horiz-adv-x="556" 
d="M537 714c-4.66699 1.33301 -10.168 2.99902 -16.501 4.99902s-14.166 4 -23.499 6c-18.667 3.33301 -35 5 -49 5c-32.667 0 -60.667 -9.33301 -84 -28c-11.333 -9.33301 -20.833 -22.5 -28.5 -39.5s-14.5 -38.167 -20.5 -63.5l-18 -78h-82l-9 -47h82l-111 -513
c-5.33301 -25.333 -10.166 -46.166 -14.499 -62.499s-9.83301 -28.166 -16.5 -35.499c-13.333 -13.333 -31 -20 -53 -20c-15.333 0 -28.333 1.33301 -39 4c-6 1.33301 -12 2.5 -18 3.5s-12 2.16699 -18 3.5l-11 -49c6.66699 -2 17.667 -5 33 -9c14.667 -4 33 -6 55 -6
c37.333 0 66 9 86 27c20.667 18 35 44.333 43 79l126 578h107l11 47h-109l6 26c7.33301 31.333 13.833 56.166 19.5 74.499s11.5 30.5 17.5 36.5c12 12 29 18 51 18c14.667 0 28.667 -1 42 -3c6 -1.33301 11.667 -2.5 17 -3.5s10.666 -2.16699 15.999 -3.5z" />
    <glyph glyph-name="circumflex" unicode="&#x2c6;" horiz-adv-x="333" 
d="M304 512l-109 164h-58l-108 -164h38l99 108l100 -108h38z" />
    <glyph glyph-name="tilde" unicode="&#x2dc;" horiz-adv-x="333" 
d="M329 642h-31.0029c-3.33301 -18.667 -9 -31.334 -17 -38.001c-7.33301 -6.66699 -15.666 -10 -24.999 -10c-16.667 0 -44 8.33301 -82 25c-38 16 -67.667 24 -89 24c-27.333 0 -48 -9.33301 -62 -28c-13.333 -19.333 -20 -41.666 -20 -66.999h32
c2 18.667 7.33301 31.334 16 38.001s17.334 10 26.001 10c16 0 43 -8.33301 81 -25c38 -16 67.667 -24 89 -24c28.667 0 49.334 9.33301 62.001 28c13.333 19.333 20 41.666 20 66.999z" />
    <glyph glyph-name="endash" unicode="&#x2013;" horiz-adv-x="500" 
d="M506 234v32h-512v-32h512z" />
    <glyph glyph-name="emdash" unicode="&#x2014;" horiz-adv-x="1000" 
d="M1006 234v32h-1012v-32h1012z" />
    <glyph glyph-name="quoteleft" unicode="&#x2018;" horiz-adv-x="177" 
d="M131 649l-0.00195312 35c-7.33301 -4.66699 -16.166 -11.167 -26.499 -19.5s-19.166 -18.166 -26.499 -29.499c-14.667 -24 -22 -56 -22 -96v-69h65v97h-21c0 22 2 39 6 51c1.33301 5.33301 5 10.666 11 15.999s10.667 10.333 14 15z" />
    <glyph glyph-name="quoteright" unicode="&#x2019;" horiz-adv-x="177" 
d="M121 615l0.00195312 69h-65v-97h21c0 -22 -2 -39 -6 -51c-1.33301 -5.33301 -5 -10.666 -11 -15.999s-10.667 -10.333 -14 -15v-35c7.33301 4.66699 16.166 11.167 26.499 19.5s19.166 18.166 26.499 29.499c14.667 24 22 56 22 96z" />
    <glyph glyph-name="quotesinglbase" unicode="&#x201a;" horiz-adv-x="177" 
d="M121 28v69.001h-65v-97h21c0 -22 -2 -39 -6 -51c-3.33301 -12 -8.33301 -22.333 -15 -31v-35c7.33301 4.66699 14.5 11.167 21.5 19.5s14.167 18.166 21.5 29.499c14.667 24 22 56 22 96z" />
    <glyph glyph-name="quotedblleft" unicode="&#x201c;" horiz-adv-x="396" 
d="M350 649l-0.00195312 35c-7.33301 -4.66699 -16.166 -11.167 -26.499 -19.5s-19.166 -18.166 -26.499 -29.499c-14.667 -24 -22 -56 -22 -96v-69h65v97h-21c0 22 2 39 6 51c1.33301 5.33301 5 10.666 11 15.999s10.667 10.333 14 15zM130.998 649l-0.00195312 35
c-7.33301 -4.66699 -16.166 -11.167 -26.499 -19.5s-19.166 -18.166 -26.499 -29.499c-14.667 -24 -22 -56 -22 -96v-69h65v97h-21c0 22 2 39 6 51c1.33301 5.33301 5 10.666 11 15.999s10.667 10.333 14 15z" />
    <glyph glyph-name="quotedblright" unicode="&#x201d;" horiz-adv-x="396" 
d="M340 615l0.00195312 69h-65v-97h21c0 -22 -2 -39 -6 -51c-1.33301 -5.33301 -5 -10.666 -11 -15.999s-10.667 -10.333 -14 -15v-35c7.33301 4.66699 16.166 11.167 26.499 19.5s19.166 18.166 26.499 29.499c14.667 24 22 56 22 96zM121.002 615l0.00195312 69h-65v-97
h21c0 -22 -2 -39 -6 -51c-1.33301 -5.33301 -5 -10.666 -11 -15.999s-10.667 -10.333 -14 -15v-35c7.33301 4.66699 16.166 11.167 26.499 19.5s19.166 18.166 26.499 29.499c14.667 24 22 56 22 96z" />
    <glyph glyph-name="quotedblbase" unicode="&#x201e;" horiz-adv-x="396" 
d="M338 28v69.001h-65v-97h21c0 -21.333 -1.66699 -38 -5 -50c-2 -6 -6 -11.667 -12 -17s-10.667 -10.333 -14 -15v-35c7.33301 4.66699 16 11 26 19s18.667 17.667 26 29c15.333 23.333 23 55.666 23 96.999zM123 28.001v69.001h-65v-97h21c0 -21.333 -1.66699 -38 -5 -50
c-2 -6 -6 -11.667 -12 -17s-10.667 -10.333 -14 -15v-35c7.33301 4.66699 16 11 26 19s18.667 17.667 26 29c15.333 23.333 23 55.666 23 96.999z" />
    <glyph glyph-name="dagger" unicode="&#x2020;" 
d="M463 366v55l-190 2l1 268h-60l1 -268l-190 -2v-55l190 -2l-4 -594h66l-4 594z" />
    <glyph glyph-name="daggerdbl" unicode="&#x2021;" horiz-adv-x="479" 
d="M453 10v55l-201 -14l14 175l-14 185l201 -14v55l-201 -14l18 253h-62l18 -253l-200 14v-55l200 14l-14 -185l14 -175l-200 14v-55l200 14l-18 -254h62l-18 254z" />
    <glyph glyph-name="bullet" unicode="&#x2022;" horiz-adv-x="500" 
d="M372 341c0 34 -12 63 -36 87c-23.333 23.333 -52 35 -86 35s-63 -12 -87 -36c-23.333 -23.333 -35 -52 -35 -86s12 -63 36 -87c23.333 -23.333 52 -35 86 -35s63 12 87 36c23.333 23.333 35 52 35 86z" />
    <glyph glyph-name="ellipsis" unicode="&#x2026;" horiz-adv-x="1000" 
d="M864 0v98h-64v-98h64zM531 0v98h-64v-98h64zM198 0v98h-64v-98h64z" />
    <glyph glyph-name="perthousand" unicode="&#x2030;" horiz-adv-x="1052" 
d="M1035 147c0 44 -15.667 81.667 -47 113s-69 47 -113 47c-44.667 0 -82.667 -15.667 -114 -47s-47 -69 -47 -113c0 -43.333 15.667 -80.666 47 -111.999s69 -47 113 -47c44.667 0 82.667 15.667 114 47s47 68.666 47 111.999zM992 145
c0 -31.333 -11.334 -58.332 -34.001 -80.999c-23.333 -22 -50.666 -33 -81.999 -33c-33.333 0 -61.666 11.667 -84.999 35c-22.667 22.667 -34 50 -34 82c0 31.333 11.667 58.666 35 81.999c22.667 22.667 50.667 34 84 34c31.333 0 58.666 -11.667 81.999 -35
c22.667 -22.667 34 -50.667 34 -84zM337.999 531.001c0 44 -15.667 81.667 -47 113s-69.333 47 -114 47c-43.333 0 -81.333 -15.667 -114 -47c-31.333 -31.333 -47 -69 -47 -113s16 -82 48 -114c31.333 -31.333 69 -47 113 -47s82 16 114 48c31.333 31.333 47 69 47 113z
M294.999 529.001c0 -31.333 -11.666 -58.666 -34.999 -81.999c-22.667 -22.667 -50 -34 -82 -34c-32.667 0 -60.667 11.667 -84 35s-35 51.333 -35 84c0 31.333 12 58.666 36 81.999c22.667 22.667 50.667 34 84 34c31.333 0 58.666 -11.667 81.999 -35
c22.667 -22.667 34 -50.667 34 -84zM631 688.001h-49l-550 -699h51zM666 147.001c0 44 -15.667 81.667 -47 113s-69 47 -113 47c-44.667 0 -82.667 -15.667 -114 -47s-47 -69 -47 -113c0 -43.333 15.667 -80.666 47 -111.999s69 -47 113 -47c44.667 0 82.667 15.667 114 47
s47 68.666 47 111.999zM623 145.001c0 -31.333 -11.334 -58.332 -34.001 -80.999c-23.333 -22 -50.666 -33 -81.999 -33c-33.333 0 -61.666 11.667 -84.999 35c-22.667 22.667 -34 50 -34 82c0 31.333 11.667 58.666 35 81.999c22.667 22.667 50.667 34 84 34
c31.333 0 58.666 -11.667 81.999 -35c22.667 -22.667 34 -50.667 34 -84z" />
    <glyph glyph-name="guilsinglleft" unicode="&#x2039;" horiz-adv-x="281" 
d="M266 6l-189 225l187 225h-61l-187 -225l189 -225h61z" />
    <glyph glyph-name="guilsinglright" unicode="&#x203a;" horiz-adv-x="281" 
d="M264 231l-187 225h-61l187 -225l-189 -225h61z" />
    <glyph glyph-name="trademark" unicode="&#x2122;" horiz-adv-x="940" 
d="M814 317v365h-92l-89 -285l-90 285h-86v-365h47v328l111 -328h32l115 328v-328h52zM410 642v40h-309v-40h129v-325h52v325h128z" />
    <glyph glyph-name="HT" unicode="&#xe000;" horiz-adv-x="278" 
 />
    <glyph glyph-name="nonmarkingreturn" unicode="&#xe001;" horiz-adv-x="278" 
 />
    <glyph glyph-name="minus" unicode="&#xe002;" horiz-adv-x="660" 
d="M592 329v44h-524v-44h524z" />
    <glyph glyph-name="notequal" unicode="&#xe003;" horiz-adv-x="660" 
d="M592 208v44h-277l75 198h202v44h-185l46 122h-44l-46 -122h-295v-44h278l-75 -198h-203v-44h186l-46 -122h44l46 122h294z" />
    <glyph glyph-name="infinity" unicode="&#xe004;" horiz-adv-x="713" 
d="M689 264c0 40 -15.001 73.668 -45.001 101.001c-29.333 26 -61.666 39 -96.999 39c-28.667 0 -55.667 -6.33301 -81 -19c-12.667 -6.66699 -28.167 -17 -46.5 -31s-39.166 -32.333 -62.499 -55c-23.333 22.667 -44.166 41 -62.499 55s-34.166 24.333 -47.499 31
c-24.667 12.667 -51.334 19 -80.001 19c-36 0 -68.667 -13.333 -98 -40c-29.333 -26 -44 -59.333 -44 -100s15 -74.334 45 -101.001c28.667 -26 61 -39 97 -39c22 0 47 6 75 18c27.333 12 65.666 41 114.999 87c49.333 -46 87.666 -75 114.999 -87c28 -12 53 -18 75 -18
c36 0 68.667 13.333 98 40c29.333 26 44 59.333 44 100zM637.999 264.001c0 -27.333 -8.33301 -49 -25 -65c-16 -16 -38 -24 -66 -24c-30 0 -57.333 9 -82 27c-12.667 8.66699 -24.667 18.167 -36 28.5s-22.666 21.5 -33.999 33.5c21.333 23.333 45 44.333 71 63
c25.333 17.333 52.333 26 81 26c27.333 0 49.666 -9.66699 66.999 -29c16 -19.333 24 -39.333 24 -60zM318.999 264.001c-21.333 -23.333 -44.998 -44.333 -70.998 -63c-25.333 -17.333 -52.333 -26 -81 -26c-28 0 -50.333 8 -67 24c-16 16 -24 37.667 -24 65
c0 22 8.33301 42.333 25 61c16 18.667 38 28 66 28c29.333 0 56.666 -9 81.999 -27c12.667 -8.66699 24.667 -18.167 36 -28.5s22.666 -21.5 33.999 -33.5z" />
    <glyph glyph-name="lessequal" unicode="&#xe005;" horiz-adv-x="660" 
d="M592 150v49l-464 192l464 192v49l-524 -220v-42zM592 0v35h-524v-35h524z" />
    <glyph glyph-name="greaterequal" unicode="&#xe006;" horiz-adv-x="660" 
d="M592 370v42l-524 220v-49l463 -192l-463 -192v-49zM592 0v35h-524v-35h524z" />
    <glyph glyph-name="partialdiff" unicode="&#xe007;" horiz-adv-x="833" 
d="M746 0v24.002h-203l27 26l26 26l24 25.5c8 8.33301 15.667 17.5 23 27.5c6.66699 7.33301 13.334 15.5 20.001 24.5s13.667 19.833 21 32.5c13.333 25.333 20 48.666 20 69.999c0 29.333 -12.333 54 -37 74c-24.667 19.333 -55 29 -91 29
c-23.333 0 -44.333 -3.66699 -63 -11c-17.333 -7.33301 -30.333 -14.333 -39 -21v-32l22 15.5c7.33301 5 15 9.16699 23 12.5c16 7.33301 34 11 54 11c28 0 51.333 -7.33301 70 -22s28 -33.334 28 -56.001c0 -20.667 -5.33301 -40.667 -16 -60
c-5.33301 -10 -11.333 -20 -18 -30s-14 -20 -22 -30c-11.333 -13.333 -22.333 -25.5 -33 -36.5s-21.334 -21.167 -32.001 -30.5l-33.5 -29.5l-37.5 -32.5v-7h267zM627 691.002h-40l-525 -718h39zM179 332.002l-1 355h-33l1 -355h33z" />
    <glyph glyph-name="summation" unicode="&#xe008;" horiz-adv-x="833" 
d="M600 309v-151h-155zM692 137v21h-60v201h-13l-219 -213v-9h200v-137h32v137h60zM627 691h-40l-525 -718h39zM179 332l-1 355h-33l1 -355h33z" />
    <glyph glyph-name="product" unicode="&#xe009;" horiz-adv-x="833" 
d="M657 309v-151h-155zM749 137v21h-60v201h-13l-219 -213v-9h200v-137h32v137h60zM678 691h-40l-525 -718h39zM289 432c0 20.667 -7.66895 38.6689 -23.002 54.002c-14.667 15.333 -35.667 26.666 -63 33.999c28.667 8 49.334 19.333 62.001 34
c12 14.667 18 30.334 18 47.001c0 26 -12 47.667 -36 65c-22.667 16.667 -52.667 25 -90 25c-26 0 -47 -3 -63 -9c-15.333 -4.66699 -26.333 -9.33398 -33 -14.001v-25c3.33301 1.33301 7.66602 3.16602 12.999 5.49902l20 8.5c14.667 6 34 9 58 9
c28 0 51.667 -6.66699 71 -20c18.667 -12 28 -27.667 28 -47c0 -20 -10.333 -36.333 -31 -49c-22 -12.667 -46.333 -19 -73 -19h-4v-25h7c32 0 58 -7.33301 78 -22c18.667 -14 28 -32.667 28 -56c0 -22.667 -9.66699 -41 -29 -55s-43.666 -21 -72.999 -21
c-22 0 -41.333 2 -58 6c-8 2 -15.167 4 -21.5 6s-11.833 3.66699 -16.5 5v-24c8.66699 -3.33301 22 -7.33301 40 -12c18.667 -4 38.334 -6 59.001 -6c38 0 69.667 9.66699 95 29c24.667 18.667 37 44 37 76z" />
    <glyph glyph-name="pi" unicode="&#xe00a;" horiz-adv-x="549" 
d="M530 151l-22.001 0.000976562c0 -24 -6 -42.333 -18 -55c-11.333 -13.333 -25 -20 -41 -20c-14 0 -28.333 7 -43 21s-22 37 -22 69c0 25.333 1 62.666 3 111.999c2 48.667 5 89.667 9 123h126v86h-373c-37.333 0 -66.666 -14.667 -87.999 -44s-38.333 -64.333 -51 -105
h17c13.333 24 27 40.667 41 50c15.333 8.66699 30.666 13 45.999 13h47l-29 -229c-2 -15.333 -7.33301 -29.666 -16 -42.999c-4 -7.33301 -8.83301 -14.5 -14.5 -21.5s-12.167 -14.167 -19.5 -21.5s-13.333 -15.333 -18 -24c-4.66699 -7.33301 -7 -16.333 -7 -27
c0 -14.667 5.33301 -27.334 16 -38.001s23.334 -16 38.001 -16c19.333 0 34 7 44 21s17 30 21 48l46 351h113c-6.66699 -59.333 -11.667 -108 -15 -146c-1.33301 -18.667 -2.5 -36.5 -3.5 -53.5s-1.5 -33.5 -1.5 -49.5c0 -54.667 9.33301 -96.334 28 -125.001
s41.334 -43 68.001 -43c31.333 0 58.666 15 81.999 45c24 30.667 36.333 71.334 37 122.001z" />
    <glyph glyph-name="integral" unicode="&#xe00b;" horiz-adv-x="274" 
d="M291 860c0 19.333 -7.33301 33.3311 -22 41.998c-14.667 9.33301 -29.334 14 -44.001 14c-46 0 -75 -36.667 -87 -110s-18 -181 -18 -323c0 -168.667 1 -273.334 3 -314.001c2 -41.333 3 -73 3 -95c0 -38.667 -2.66699 -67 -8 -85c-4.66699 -16.667 -10.667 -25 -18 -25
c-6 0 -13.667 5.66699 -23 17c-8.66699 10.667 -19 16 -31 16c-11.333 0 -21.333 -4.33301 -30 -13c-9.33301 -9.33301 -14 -19.666 -14 -30.999c0 -18.667 7 -33.334 21 -44.001c12.667 -10.667 25.667 -16 39 -16c53.333 0 88.333 40.333 105 121
c8 40.667 14.167 92.834 18.5 156.501s6.5 139.834 6.5 228.501c0 46.667 -1 91.834 -3 135.501s-4.66699 85.834 -8 126.501s-5.83301 74.167 -7.5 100.5s-2.5 45.166 -2.5 56.499c0 5.33301 1.33301 10.333 4 15s7.33398 7 14.001 7c8 0 15.667 -4 23 -12
c6.66699 -8 16 -12 28 -12c16 0 28.667 5 38 15c8.66699 10 13 19.667 13 29z" />
    <glyph glyph-name="Omega" unicode="&#xe00c;" horiz-adv-x="768" 
d="M736 0l-0.000976562 162.002h-15c-6 -22.667 -12.667 -39 -20 -49c-7.33301 -8 -22.666 -12 -45.999 -12h-158l2 28c69.333 16 123 50 161 102c37.333 51.333 56 107.333 56 168c0 90.667 -33 161.667 -99 213c-64.667 50.667 -142 76 -232 76s-167.667 -25.667 -233 -77
s-98 -122 -98 -212c0 -68.667 19.667 -127.334 59 -176.001c39.333 -48 92 -79.333 158 -94l2 -28h-158c-22.667 0 -38 4 -46 12c-7.33301 8.66699 -14 25 -20 49h-15v-162h295l-16 152c-40.667 11.333 -74.334 37.333 -101.001 78c-27.333 41.333 -41 98.666 -41 171.999
c0 84 19.667 147.667 59 191c38.667 42 90.334 63 155.001 63s116.667 -21.667 156 -65c38.667 -42.667 58 -105.667 58 -189c0 -74 -14.333 -131.333 -43 -172c-29.333 -40 -62.333 -66 -99 -78l-16 -152h295z" />
    <glyph glyph-name="radical" unicode="&#xe00d;" horiz-adv-x="549" 
d="M515 912l-35 5l-127 -798l-197 403l-146 -72l16 -33l96 47l243 -502z" />
    <glyph glyph-name="approxequal" unicode="&#xe00e;" horiz-adv-x="660" 
d="M570 507l-40.002 13c-12.667 -18 -27.667 -31.333 -45 -40c-17.333 -9.33301 -35.666 -14 -54.999 -14c-12 0 -46.667 8.66699 -104 26c-56 17.333 -94.667 26 -116 26c-27.333 0 -52.333 -6 -75 -18c-24.667 -12.667 -47 -33 -67 -61l40 -16c16 22 32 37.667 48 47
c13.333 8.66699 30.333 13 51 13c17.333 0 54 -9.33301 110 -28c56.667 -18 95.334 -27 116.001 -27c25.333 0 51 7 77 21c25.333 12.667 45.333 32 60 58zM569.998 265l-40.002 13c-12.667 -18 -27.667 -31.333 -45 -40c-17.333 -9.33301 -35.666 -14 -54.999 -14
c-12 0 -46.667 8.66699 -104 26c-56 17.333 -94.667 26 -116 26c-27.333 0 -52.333 -6 -75 -18c-24.667 -12.667 -47 -33 -67 -61l40 -16c16 22 32 37.667 48 47c13.333 8.66699 30.333 13 51 13c17.333 0 54 -9.33301 110 -28c56.667 -18 95.334 -27 116.001 -27
c25.333 0 51 7 77 21c25.333 12.667 45.333 32 60 58z" />
    <glyph glyph-name="Delta" unicode="&#xe00f;" horiz-adv-x="612" 
d="M608 0l-282 688l-320 -688h602zM484 49h-412l218 468z" />
    <glyph glyph-name="nonbreakingspace" unicode="&#xe010;" horiz-adv-x="500" 
 />
    <glyph glyph-name="lozenge" unicode="&#xe011;" horiz-adv-x="494" 
d="M466 377l-194 368h-60l-194 -368l194 -377h60zM406 377l-164 -323l-164 323l164 314z" />
    <glyph glyph-name="ch337" unicode="&#xe012;" horiz-adv-x="427" 
d="M421 38v39.001l-14.5 -10.5l-17.5 -12.5c-6.66699 -4 -12.667 -7.33301 -18 -10s-10.666 -4.66699 -15.999 -6c-2.66699 0 -5 2 -7 6c-1.33301 4 -2 8.33301 -2 13v279c0 39.333 -12.667 69.666 -38 90.999c-24.667 20.667 -59 31 -103 31
c-32 0 -62.333 -6.66699 -91 -20c-14 -6.66699 -25.5 -12.334 -34.5 -17.001s-15.167 -8.66699 -18.5 -12v-49c10.667 9.33301 28 21.333 52 36c24.667 14.667 53.667 22 87 22c31.333 0 55.333 -7.33301 72 -22c17.333 -14 26 -38 26 -72v-55
c-20 -1.33301 -37.5 -2.83301 -52.5 -4.5s-27.833 -3.83398 -38.5 -6.50098c-10.667 -2 -21 -4.33301 -31 -7s-19.667 -5.66699 -29 -9c-32 -11.333 -58.333 -28.333 -79 -51c-21.333 -23.333 -32 -53.666 -32 -90.999c0 -29.333 12 -55 36 -77s54.667 -33 92 -33
c22 0 46 5.66699 72 17c24.667 10.667 45.667 24.667 63 42c0 -19.333 2.33301 -33.666 7 -42.999c4 -10 12.333 -15 25 -15c14 0 30.667 6 50 18c9.33301 5.33301 17.166 10.5 23.499 15.5zM298 89.001c-6.66699 -6.66699 -14.333 -13.166 -23 -19.499
s-18.334 -12.833 -29.001 -19.5c-21.333 -13.333 -45.666 -20 -72.999 -20c-28.667 0 -50.667 7.33301 -66 22c-15.333 14 -23 31 -23 51c0 26 9.66699 48.667 29 68c18 18 40.667 31.667 68 41c28 9.33301 51.333 14.666 70 15.999c8.66699 0.666992 16.667 1 24 1h23v-140
z" />
    <glyph glyph-name="udoubleacute" unicode="&#xe013;" horiz-adv-x="427" 
d="M417 420l0.00195312 37.9961h-203h-4c-43.333 0 -81.666 -15.667 -114.999 -47c-32.667 -30.667 -49 -69.334 -49 -116.001c0 -45.333 15.667 -83.666 47 -114.999c20 -20 44.333 -34 73 -42c-32 -9.33301 -54 -18.666 -66 -27.999c-16 -12 -24 -27 -24 -45
c0 -30 21.333 -51.333 64 -64l8 -2c-44 -7.33301 -75.333 -19.333 -94 -36c-24 -21.333 -36 -45.666 -36 -72.999c0 -37.333 17.667 -66.666 53 -87.999s84 -32 146 -32c57.333 0 105 11 143 33c37.333 22 56 53.667 56 95c0 48 -16.333 80.333 -49 97
c-16 8.66699 -35 15.334 -57 20.001s-47 7 -75 7c-32.667 0 -59.334 3.33301 -80.001 10c-22 6 -33 18.333 -33 37c0 18 14.333 32.333 43 43l33 12c11.333 4 23.666 7.66699 36.999 11c40 5.33301 71.667 19 95 41c30.667 28.667 46 67.334 46 116.001
c0 47.333 -16 86.666 -48 117.999l-4.5 4.5c-1.66699 1.66699 -3.83398 3.5 -6.50098 5.5h100zM331.002 292.996c0 -32.667 -12 -61.333 -36 -86s-52 -37 -84 -37c-33.333 0 -61.333 12 -84 36c-23.333 24.667 -35 54 -35 88c0 34.667 11.667 64.334 35 89.001
c22.667 24 50.667 36 84 36c34 0 62.333 -12.333 85 -37c23.333 -24.667 35 -54.334 35 -89.001zM370.002 -102.003c0 -28.667 -15.667 -50.667 -47 -66c-32.667 -14.667 -67 -22 -103 -22c-52 0 -91 8 -117 24s-39 34.667 -39 56c0 25.333 11.667 46 35 62
c24 16 67.333 24 130 24c24 0 44.833 -1.83301 62.5 -5.5s32.167 -8.5 43.5 -14.5c23.333 -12 35 -31.333 35 -58z" />
    <glyph glyph-name="Udoubleacute" unicode="&#xe014;" horiz-adv-x="698" 
d="M556 895h-81l-104 -156h34l37.5 40.5l36.5 37.5l37.5 37.5zM423 895h-81l-104 -156h34zM635 296v386h-53v-382c0 -79.333 -21 -142.333 -63 -189c-41.333 -47.333 -97.333 -71 -168 -71c-71.333 0 -128.333 23 -171 69c-42 46 -63 108 -63 186v387h-53v-391
c0 -88 26.667 -160.333 80 -217c53.333 -55.333 122 -83 206 -83s152.667 28.667 206 86c52.667 58 79 131 79 219z" />
    <glyph glyph-name="thacek" unicode="&#xe015;" horiz-adv-x="400" 
d="M410 615v69.001h-65v-97h21c0 -22 -2 -39 -6 -51c-3.33301 -12 -8.33301 -22.333 -15 -31v-35c7.33301 4.66699 14.5 11.167 21.5 19.5s14.167 18.166 21.5 29.499c14.667 24 22 56 22 96zM293 13.001l0.000976562 47c-14 -6.66699 -27.667 -12 -41 -16s-26 -6 -38 -6
c-28.667 0 -47.667 5.66699 -57 17c-8.66699 10.667 -13 33.667 -13 69v286h126v39h-126v149h-15l-33 -22v-127h-121v-39h121v-319c0 -31.333 9.33301 -56 28 -74c19.333 -17.333 45 -26 77 -26c17.333 0 33 2 47 6c7.33301 2 14.666 4.33301 21.999 7s15 5.66699 23 9z" />
    <glyph glyph-name="Thacek" unicode="&#xe016;" horiz-adv-x="573" 
d="M421 894h-38l-100 -108l-99 108h-38l108 -164h58zM569 638v44h-565v-44h256v-638h53v638h256z" />
    <glyph glyph-name="rhacek" unicode="&#xe017;" horiz-adv-x="333" 
d="M353 676h-38l-100 -108l-99 108h-38l108 -164h58zM373 404c-4.66699 6 -17.333 16.333 -38 31c-21.333 15.333 -43 23 -65 23c-13.333 0 -26.833 -1.33301 -40.5 -4s-27.5 -9.66699 -41.5 -21c-13.333 -11.333 -26.5 -23.333 -39.5 -36s-25.5 -29 -37.5 -49v101h-48v-449
h48v283c13.333 24 33.666 51 60.999 81c28 31.333 56 47 84 47c12.667 0 26.667 -4.66699 42 -14c7.33301 -4.66699 14.833 -10 22.5 -16s15.834 -13 24.501 -21z" />
    <glyph glyph-name="Rhacek" unicode="&#xe018;" horiz-adv-x="573" 
d="M393 894h-38l-100 -108l-99 108h-38l108 -164h58zM595 0l-128 196.001l-28 42l-30 43c-20.667 28 -40 47.667 -58 59c33.333 10.667 63.333 30 90 58c26 26.667 39 62 39 106c0 57.333 -20 101.666 -60 132.999c-40 30 -96.333 45 -169 45h-172v-682h53v327h104
c46.667 0 82 -13.667 106 -41c12 -13.333 23.833 -28.333 35.5 -45s23.5 -34.667 35.5 -54l120 -187h62zM423 505.001c0 -43.333 -15.665 -76.666 -46.998 -99.999c-30.667 -22.667 -74.334 -34 -131.001 -34h-113v267h118c53.333 0 95.666 -11.667 126.999 -35
c30.667 -22.667 46 -55.334 46 -98.001z" />
    <glyph glyph-name="odoubleacute" unicode="&#xe019;" horiz-adv-x="542" 
d="M479 677h-81l-104 -156h34l37.5 40.5l36.5 37.5l37.5 37.5zM346 677h-81l-104 -156h34zM500 224c0 66 -22 121.668 -66 167.001c-42.667 44.667 -97 67 -163 67c-65.333 0 -120 -22.333 -164 -67c-43.333 -45.333 -65 -101 -65 -167s22 -121.333 66 -166
c42.667 -44.667 97 -67 163 -67c65.333 0 120 22.333 164 67c43.333 45.333 65 100.666 65 165.999zM449 224.001c0 -51.333 -17.333 -95.333 -52 -132c-35.333 -36 -77.333 -54 -126 -54c-49.333 0 -91.333 18.333 -126 55c-34.667 35.333 -52 79 -52 131
s17.333 96.333 52 133c34.667 36 76.667 54 126 54s91.333 -18.333 126 -55c34.667 -35.333 52 -79.333 52 -132z" />
    <glyph glyph-name="Odoubleacute" unicode="&#xe01a;" horiz-adv-x="823" 
d="M619 895h-81l-104 -156h34l37.5 40.5l36.5 37.5l37.5 37.5zM486 895h-81l-104 -156h34zM773 341c0 99.333 -34.668 182.666 -104.001 249.999c-70 66.667 -155.667 100 -257 100c-102.667 0 -188.667 -33.667 -258 -101c-68.667 -66.667 -103 -149.667 -103 -249
s34.667 -182.666 104 -249.999c68.667 -66.667 154.334 -100 257.001 -100c102 0 187.667 33.667 257 101s104 150.333 104 249zM715.999 341c0 -82.667 -29.668 -153.667 -89.001 -213c-58.667 -58.667 -130.334 -88 -215.001 -88c-85.333 0 -157.333 29.333 -216 88
s-88 129.667 -88 213c0 82.667 29.667 153.667 89 213c58.667 58.667 130.334 88 215.001 88s156.334 -29.333 215.001 -88c59.333 -59.333 89 -130.333 89 -213z" />
    <glyph glyph-name="nhacek" unicode="&#xe01b;" 
d="M392 676h-38l-100 -108l-99 108h-38l108 -164h58zM428 0v271c0 58.667 -15.333 104.334 -46 137.001c-31.333 33.333 -73 50 -125 50c-30 0 -56.667 -6.66699 -80 -20c-22.667 -12.667 -45.334 -36.334 -68.001 -71.001v82h-47v-449h48v317
c16.667 25.333 36 47.333 58 66c22.667 18.667 52.334 28 89.001 28c40 0 70.667 -13.667 92 -41c20.667 -28 31 -66 31 -114v-256h48z" />
    <glyph glyph-name="Nhacek" unicode="&#xe01c;" horiz-adv-x="771" 
d="M535 894h-38l-100 -108l-99 108h-38l108 -164h58zM694 0v682h-53v-598l-129 152l-130 147l-130 147l-129 152h-45v-682h53v596l518 -596h45z" />
    <glyph glyph-name="lmiddledot" unicode="&#xe01d;" horiz-adv-x="330" 
d="M286 283v88h-88v-88h88zM118 0v682h-48v-682h48z" />
    <glyph glyph-name="Lmiddledot" unicode="&#xe01e;" horiz-adv-x="469" 
d="M341 283v88h-88v-88h88zM469 0v44h-337v638h-53v-682h390z" />
    <glyph glyph-name="lhacek" unicode="&#xe01f;" horiz-adv-x="250" 
d="M257 614v69.001h-65v-97h21c0 -22 -2 -39 -6 -51c-3.33301 -12 -8.33301 -22.333 -15 -31v-35c7.33301 4.66699 14.5 11.167 21.5 19.5s14.167 18.166 21.5 29.499c14.667 24 22 56 22 96zM118 0.000976562v682h-48v-682h48z" />
    <glyph glyph-name="Lhacek" unicode="&#xe020;" horiz-adv-x="469" 
d="M368 615v69.001h-65v-97h21c0 -22 -2 -39 -6 -51c-3.33301 -12 -8.33301 -22.333 -15 -31v-35c7.33301 4.66699 14.5 11.167 21.5 19.5s14.167 18.166 21.5 29.499c14.667 24 22 56 22 96zM469 0.000976562v44h-337v638h-53v-682h390z" />
    <glyph glyph-name="ehacek" unicode="&#xe021;" horiz-adv-x="479" 
d="M385 676h-38l-100 -108l-99 108h-38l108 -164h58zM446 241c0 62.667 -18.6631 114.665 -55.9961 155.998c-36.667 40.667 -84.334 61 -143.001 61c-60.667 0 -110.334 -22 -149.001 -66c-38.667 -43.333 -58 -97 -58 -161c0 -70 21.667 -127.667 65 -173
c42.667 -44.667 98 -67 166 -67c35.333 0 68 6.66699 98 20c14.667 6.66699 27.5 13.334 38.5 20.001s20.833 13.334 29.5 20.001v54c-6.66699 -6 -15.334 -12.5 -26.001 -19.5s-23.334 -14.833 -38.001 -23.5c-29.333 -16 -62 -24 -98 -24
c-52.667 0 -96.667 17.667 -132 53c-35.333 34 -53 77.333 -53 130v11c0 3.33301 0.333008 6.33301 1 9h355zM387.004 279.998h-290.999c9.33301 32.667 21.666 58.667 36.999 78c28.667 35.333 67 53 115 53c40 0 71.667 -11.667 95 -35c22 -22 36.667 -54 44 -96z" />
    <glyph glyph-name="Ehacek" unicode="&#xe022;" 
d="M403 894h-38l-100 -108l-99 108h-38l108 -164h58zM460 0v44h-327v277l311 1v43h-311v273h320v44h-373v-682h380z" />
    <glyph glyph-name="dhacek" unicode="&#xe023;" horiz-adv-x="603" 
d="M613 614v69.001h-65v-97h21c0 -22 -2 -39 -6 -51c-3.33301 -12 -8.33301 -22.333 -15 -31v-35c7.33301 4.66699 14.5 11.167 21.5 19.5s14.167 18.166 21.5 29.499c14.667 24 22 56 22 96zM450 0.000976562v682h-48v-260c-12.667 8 -31.667 16.333 -57 25
c-24 7.33301 -47 11 -69 11c-70 0 -126.667 -21.667 -170 -65s-65 -99.666 -65 -168.999c0 -66 22 -121.333 66 -166s98 -67 162 -67c26 0 49 3.33301 69 10c20 7.33301 41.333 18.666 64 33.999v-35h48zM401 79.001c-3.33301 -2.66699 -8.33203 -6.16797 -14.999 -10.501
s-15.334 -9.16602 -26.001 -14.499c-19.333 -10.667 -46 -16 -80 -16c-54 0 -99 18 -135 54c-35.333 35.333 -53 79.333 -53 132c0 54.667 17 99.667 51 135c32.667 34.667 76 52 130 52c29.333 0 55 -5 77 -15c23.333 -10.667 40.333 -20 51 -28v-289z" />
    <glyph glyph-name="Dhacek" unicode="&#xe024;" horiz-adv-x="740" 
d="M461 894h-38l-100 -108l-99 108h-38l108 -164h58zM689 340c0 106 -32.999 189.667 -98.999 251c-66 60.667 -155.333 91 -268 91h-243v-682h250c113.333 0 201.666 31.667 264.999 95s95 145 95 245zM632.001 340c0 -89.333 -28.999 -161 -86.999 -215
s-134.667 -81 -230 -81h-183v594h185c95.333 0 171.666 -27.333 228.999 -82c57.333 -55.333 86 -127.333 86 -216z" />
    <glyph glyph-name="Dbar" unicode="&#xe025;" horiz-adv-x="740" 
d="M689 340c0 106 -32.999 189.668 -98.999 251.001c-64.667 59.333 -154 89.666 -268 90.999l-243 3v-321h-102v-44h102v-320h250c113.333 0 201.666 31.667 264.999 95s95 145 95 245zM632.001 340.001c0 -89.333 -28.999 -161 -86.999 -215s-134.667 -81 -230 -81h-183
v276h221v44h-221v274h185c95.333 0 171.666 -27.333 228.999 -82c57.333 -55.333 86 -127.333 86 -216z" />
    <glyph glyph-name="zdot" unicode="&#xe026;" horiz-adv-x="396" 
d="M241 548v88h-88v-88h88zM385 0v44h-295l295 390l-4 15h-355v-44h281l-297 -390l5 -15h370z" />
    <glyph glyph-name="Zdot" unicode="&#xe027;" horiz-adv-x="635" 
d="M358 766v88h-88v-88h88zM611 0v44h-515l512 619l-5 19h-571v-44h488l-511 -623l5 -15h597z" />
    <glyph glyph-name="zacute" unicode="&#xe028;" horiz-adv-x="396" 
d="M364 677h-81l-104 -156h32zM385 0v44h-295l295 390l-4 15h-355v-44h281l-297 -390l5 -15h370z" />
    <glyph glyph-name="Zacute" unicode="&#xe029;" horiz-adv-x="635" 
d="M481 895h-81l-104 -156h32zM611 0v44h-515l512 619l-5 19h-571v-44h488l-511 -623l5 -15h597z" />
    <glyph glyph-name="uogonek" unicode="&#xe02a;" 
d="M460 -165l0.000976562 38.001l-18 -1c-9.33301 -0.666992 -17.833 0.333008 -25.5 3s-14.834 6.33398 -21.501 11.001c-12.667 8 -19 22.333 -19 43c0 15.333 6.33301 30.333 19 45c8 10 15.667 18.667 23 26h10v9l1 1h-1v439h-48v-314c-11.333 -22 -30 -43.667 -56 -65
c-25.333 -21.333 -55.333 -32 -90 -32c-39.333 0 -70 12.667 -92 38c-21.333 25.333 -32 60.666 -32 105.999v267h-48v-277c0 -58.667 15.667 -103.667 47 -135c30.667 -30.667 74.334 -46 131.001 -46c24.667 0 49.334 6.66699 74.001 20c23.333 12.667 45.333 35 66 67
v-75c-14.667 -8.66699 -27.334 -19.667 -38.001 -33c-12 -17.333 -18 -36 -18 -56c0 -26.667 9.33301 -47.334 28 -62.001c17.333 -14.667 39.666 -22 66.999 -22z" />
    <glyph glyph-name="Uogonek" unicode="&#xe02b;" horiz-adv-x="698" 
d="M428 -165l0.000976562 38l-18 -1c-9.33301 -0.666992 -17.833 0.333008 -25.5 3s-14.834 6.33398 -21.501 11.001c-12.667 8 -19 22.333 -19 43c0 15.333 6.33301 30.333 19 45c2.66699 3.33301 5.33398 6.5 8.00098 9.5s5.33398 5.83301 8.00098 8.5
c71.333 6 130.333 34.333 177 85c52.667 58 79 131 79 219v386h-53v-382c0 -79.333 -21 -142.333 -63 -189c-41.333 -47.333 -97.333 -71 -168 -71c-71.333 0 -128.333 23 -171 69c-42 46 -63 108 -63 186v387h-53v-391c0 -88 26.667 -160.333 80 -217
c49.333 -51.333 111.666 -79 186.999 -83c-8 -6 -15 -13 -21 -21c-12 -17.333 -18 -36 -18 -56c0 -26.667 9.33301 -47.334 28 -62.001c17.333 -14.667 39.666 -22 66.999 -22z" />
    <glyph glyph-name="uring" unicode="&#xe02c;" 
d="M332 592c0 23.333 -8.66797 43.667 -26.001 61c-16.667 16.667 -37 25 -61 25s-44.333 -8.33301 -61 -25s-25 -37 -25 -61s8.33301 -44.333 25 -61s37 -25 61 -25c24.667 0 45.334 8.33301 62.001 25s25 37 25 61zM304.999 592.001c0 -17.333 -6 -31.333 -18 -42
c-11.333 -11.333 -25.333 -17 -42 -17s-30.667 5.66699 -42 17s-17 25.333 -17 42s5.66699 30.667 17 42s25.333 17 42 17c16 0 30.333 -5.66699 43 -17c11.333 -11.333 17 -25.333 17 -42zM427.999 0.000976562l-0.00195312 449.001h-48v-314
c-11.333 -22 -30 -43.667 -56 -65c-25.333 -21.333 -55.333 -32 -90 -32c-39.333 0 -70 12.667 -92 38c-21.333 25.333 -32 60.666 -32 105.999v267h-48v-277c0 -58.667 15.667 -103.667 47 -135c30.667 -30.667 74.334 -46 131.001 -46c24.667 0 49.334 6.66699 74.001 20
c23.333 12.667 45.333 35 66 67v-78h48z" />
    <glyph glyph-name="Uring" unicode="&#xe02d;" horiz-adv-x="698" 
d="M436 810c0 23.333 -8.66797 43.667 -26.001 61c-16.667 16.667 -37 25 -61 25s-44.333 -8.33301 -61 -25s-25 -37 -25 -61s8.33301 -44.333 25 -61s37 -25 61 -25c24.667 0 45.334 8.33301 62.001 25s25 37 25 61zM408.999 810.001c0 -17.333 -6 -31.333 -18 -42
c-11.333 -11.333 -25.333 -17 -42 -17s-30.667 5.66699 -42 17s-17 25.333 -17 42s5.66699 30.667 17 42s25.333 17 42 17c16 0 30.333 -5.66699 43 -17c11.333 -11.333 17 -25.333 17 -42zM634.999 296.001v386h-53v-382c0 -79.333 -21 -142.333 -63 -189
c-41.333 -47.333 -97.333 -71 -168 -71c-71.333 0 -128.333 23 -171 69c-42 46 -63 108 -63 186v387h-53v-391c0 -88 26.667 -160.333 80 -217c53.333 -55.333 122 -83 206 -83s152.667 28.667 206 86c52.667 58 79 131 79 219z" />
    <glyph glyph-name="umacron" unicode="&#xe02e;" 
d="M383 572v51h-266v-51h266zM428 0l-0.00195312 449.001h-48v-314c-11.333 -22 -30 -43.667 -56 -65c-25.333 -21.333 -55.333 -32 -90 -32c-39.333 0 -70 12.667 -92 38c-21.333 25.333 -32 60.666 -32 105.999v267h-48v-277c0 -58.667 15.667 -103.667 47 -135
c30.667 -30.667 74.334 -46 131.001 -46c24.667 0 49.334 6.66699 74.001 20c23.333 12.667 45.333 35 66 67v-78h48z" />
    <glyph glyph-name="Umacron" unicode="&#xe02f;" horiz-adv-x="698" 
d="M487 790v51h-266v-51h266zM635 296v386h-53v-382c0 -79.333 -21 -142.333 -63 -189c-41.333 -47.333 -97.333 -71 -168 -71c-71.333 0 -128.333 23 -171 69c-42 46 -63 108 -63 186v387h-53v-391c0 -88 26.667 -160.333 80 -217c53.333 -55.333 122 -83 206 -83
s152.667 28.667 206 86c52.667 58 79 131 79 219z" />
    <glyph glyph-name="tcedilla" unicode="&#xe030;" horiz-adv-x="302" 
d="M275 -101c0 18 -5.99902 33.665 -17.999 46.998c-12 12.667 -26.667 19 -44 19l8 27c8.66699 0.666992 17.667 2.33398 27 5.00098c7.33301 2 14.666 4.33301 21.999 7s15 5.66699 23 9v47c-14 -6.66699 -27.667 -12 -41 -16s-26 -6 -38 -6
c-28.667 0 -47.667 5.66699 -57 17c-8.66699 10.667 -13 33.667 -13 69v286h126v39h-126v149h-15l-33 -22v-127h-121v-39h121v-319c0 -31.333 9.33301 -56 28 -74c17.333 -15.333 39.333 -24 66 -26l-16 -53c20 0 35.333 -3.33301 46 -10s16 -16.667 16 -30
s-5.66699 -23 -17 -29c-12.667 -6.66699 -28.667 -9.66699 -48 -9l-33 2l-5 -32l45 -5c28.667 0 52 7 70 21c18 12.667 27 30.334 27 53.001z" />
    <glyph glyph-name="Tcedilla" unicode="&#xe031;" horiz-adv-x="573" 
d="M355 -101c0 18 -6 33.666 -18 46.999c-12 12.667 -26.667 19 -44 19l10 35h10v638h256v44h-565v-44h256v-638h13l-19 -62c20 0 35.333 -3.33301 46 -10s16 -16.667 16 -30s-5.66699 -23 -17 -29c-12.667 -6.66699 -28.667 -9.66699 -48 -9l-33 2l-5 -32l45 -5
c28.667 0 52 7 70 21c18 12.667 27 30.334 27 53.001z" />
    <glyph glyph-name="sacute" unicode="&#xe032;" horiz-adv-x="354" 
d="M341 677h-81l-104 -156h32zM323 116c0 36 -12.3359 63.998 -37.0029 83.998c-26 20.667 -57.667 37.334 -95 50.001c-29.333 10.667 -54 22.667 -74 36c-18 12.667 -27 30 -27 52c0 20.667 9 38.667 27 54c16.667 14.667 40.667 22 72 22c21.333 0 43 -4.66699 65 -14
c10.667 -4.66699 20.5 -9.66699 29.5 -15s17.5 -11 25.5 -17v51c-10 8.66699 -26 17.334 -48 26.001c-11.333 4 -23.166 7.16699 -35.499 9.5s-25.833 3.5 -40.5 3.5c-36 0 -68.667 -11.667 -98 -35c-28.667 -22.667 -43 -51.334 -43 -86.001c0 -32 10 -57.333 30 -76
c20.667 -20 49.334 -36.333 86.001 -49c48.667 -18 80.667 -34 96 -48c14 -14 21 -29.667 21 -47c0 -24 -9.33301 -43.333 -28 -58c-19.333 -14 -43 -21 -71 -21c-23.333 0 -47.666 4.33301 -72.999 13c-25.333 8 -46.666 17.667 -63.999 29v-48
c12 -7.33301 29.333 -16.333 52 -27c24 -10 52.333 -15 85 -15c41.333 0 75.666 12.333 102.999 37c28 24.667 42 54.334 42 89.001z" />
    <glyph glyph-name="Sacute" unicode="&#xe033;" horiz-adv-x="469" 
d="M399 895h-81l-104 -156h32zM427 173c0 52 -12.6719 92.334 -38.0049 121.001c-24.667 27.333 -71.667 53.666 -141 78.999c-52 19.333 -89.333 38.666 -112 57.999c-22 18.667 -33 46.667 -33 84c0 34.667 14 64.667 42 90c26.667 24.667 60.334 37 101.001 37
c34 0 64 -6.33301 90 -19l36.5 -18c11 -5.33301 20.167 -10.333 27.5 -15l-1 58c-3.33301 2.66699 -9.66602 6.16699 -18.999 10.5s-21.666 9.5 -36.999 15.5c-30.667 11.333 -65 17 -103 17c-52 0 -97.667 -17.667 -137 -53c-38 -35.333 -57 -77 -57 -125
c0 -49.333 13 -87 39 -113c25.333 -26 66 -48.667 122 -68c54.667 -18.667 96 -39.334 124 -62.001c26.667 -22 40 -53.333 40 -94c0 -38.667 -14 -71 -42 -97s-62.667 -39 -104 -39c-26 0 -52.333 6 -79 18c-13.333 6 -27.666 13.5 -42.999 22.5s-31.333 19.833 -48 32.5
v-62c7.33301 -5.33301 16.833 -11.166 28.5 -17.499s25.834 -13.166 42.501 -20.499c32 -14.667 68 -22 108 -22c52.667 0 98 18 136 54s57 78.667 57 128z" />
    <glyph glyph-name="rcedilla" unicode="&#xe034;" horiz-adv-x="333" 
d="M156 -101c0 18 -5.99902 33.666 -17.999 46.999c-12 12.667 -26.667 19 -44 19l10 35h7v283c13.333 24 33.666 51 60.999 81c28 31.333 56 47 84 47c12.667 0 26.667 -4.66699 42 -14c7.33301 -4.66699 14.833 -10 22.5 -16s15.834 -13 24.501 -21l28 44
c-4.66699 6 -17.334 16.333 -38.001 31c-21.333 15.333 -43 23 -65 23c-13.333 0 -26.833 -1.33301 -40.5 -4s-27.5 -9.66699 -41.5 -21c-13.333 -11.333 -26.5 -23.333 -39.5 -36s-25.5 -29 -37.5 -49v101h-48v-449h11l-19 -62c20 0 35.333 -3.33301 46 -10
s16 -16.667 16 -30s-5.66699 -23 -17 -29c-12.667 -6.66699 -28.667 -9.66699 -48 -9l-33 2l-5 -32l45 -5c28.667 0 52 7 70 21c18 12.667 27 30.334 27 53.001z" />
    <glyph glyph-name="Rcedilla" unicode="&#xe035;" horiz-adv-x="573" 
d="M173 -101c0 18 -6 33.667 -18 47c-12 12.667 -26.667 19 -44 19l10 35h11v327h104c46.667 0 82 -13.667 106 -41c12 -13.333 23.833 -28.333 35.5 -45s23.5 -34.667 35.5 -54l120 -187h62l-128 196l-28 42l-30 43c-20.667 28 -40 47.667 -58 59
c33.333 10.667 63.333 30 90 58c26 26.667 39 62 39 106c0 57.333 -20 101.666 -60 132.999c-40 30 -96.333 45 -169 45h-172v-682h12l-19 -62c20 0 35.333 -3.33301 46 -10s16 -16.667 16 -30s-5.66699 -23 -17 -29c-12.667 -6.66699 -28.667 -9.66699 -48 -9l-33 2l-5 -32
l45 -5c28.667 0 52 7 70 21c18 12.667 27 30.334 27 53.001zM423 505c0 -43.333 -15.665 -76.666 -46.998 -99.999c-30.667 -22.667 -74.334 -34 -131.001 -34h-113v267h118c53.333 0 95.666 -11.667 126.999 -35c30.667 -22.667 46 -55.334 46 -98.001z" />
    <glyph glyph-name="racute" unicode="&#xe036;" horiz-adv-x="333" 
d="M379 677h-81l-104 -156h32zM373 404c-4.66699 6 -17.333 16.333 -38 31c-21.333 15.333 -43 23 -65 23c-13.333 0 -26.833 -1.33301 -40.5 -4s-27.5 -9.66699 -41.5 -21c-13.333 -11.333 -26.5 -23.333 -39.5 -36s-25.5 -29 -37.5 -49v101h-48v-449h48v283
c13.333 24 33.666 51 60.999 81c28 31.333 56 47 84 47c12.667 0 26.667 -4.66699 42 -14c7.33301 -4.66699 14.833 -10 22.5 -16s15.834 -13 24.501 -21z" />
    <glyph glyph-name="Racute" unicode="&#xe037;" horiz-adv-x="573" 
d="M419 895h-81l-104 -156h32zM595 0l-128 196.001l-28 42l-30 43c-20.667 28 -40 47.667 -58 59c33.333 10.667 63.333 30 90 58c26 26.667 39 62 39 106c0 57.333 -20 101.666 -60 132.999c-40 30 -96.333 45 -169 45h-172v-682h53v327h104c46.667 0 82 -13.667 106 -41
c12 -13.333 23.833 -28.333 35.5 -45s23.5 -34.667 35.5 -54l120 -187h62zM423 505.001c0 -43.333 -15.665 -76.666 -46.998 -99.999c-30.667 -22.667 -74.334 -34 -131.001 -34h-113v267h118c53.333 0 95.666 -11.667 126.999 -35c30.667 -22.667 46 -55.334 46 -98.001z
" />
    <glyph glyph-name="omacron" unicode="&#xe038;" horiz-adv-x="542" 
d="M410 572v51h-266v-51h266zM500 224c0 66 -22 121.668 -66 167.001c-42.667 44.667 -97 67 -163 67c-65.333 0 -120 -22.333 -164 -67c-43.333 -45.333 -65 -101 -65 -167s22 -121.333 66 -166c42.667 -44.667 97 -67 163 -67c65.333 0 120 22.333 164 67
c43.333 45.333 65 100.666 65 165.999zM449 224.001c0 -51.333 -17.333 -95.333 -52 -132c-35.333 -36 -77.333 -54 -126 -54c-49.333 0 -91.333 18.333 -126 55c-34.667 35.333 -52 79 -52 131s17.333 96.333 52 133c34.667 36 76.667 54 126 54s91.333 -18.333 126 -55
c34.667 -35.333 52 -79.333 52 -132z" />
    <glyph glyph-name="Omacron" unicode="&#xe039;" horiz-adv-x="823" 
d="M550 790v51h-266v-51h266zM773 341c0 99.333 -34.668 182.666 -104.001 249.999c-70 66.667 -155.667 100 -257 100c-102.667 0 -188.667 -33.667 -258 -101c-68.667 -66.667 -103 -149.667 -103 -249s34.667 -182.666 104 -249.999
c68.667 -66.667 154.334 -100 257.001 -100c102 0 187.667 33.667 257 101s104 150.333 104 249zM715.999 341c0 -82.667 -29.668 -153.667 -89.001 -213c-58.667 -58.667 -130.334 -88 -215.001 -88c-85.333 0 -157.333 29.333 -216 88s-88 129.667 -88 213
c0 82.667 29.667 153.667 89 213c58.667 58.667 130.334 88 215.001 88s156.334 -29.333 215.001 -88c59.333 -59.333 89 -130.333 89 -213z" />
    <glyph glyph-name="ncedilla" unicode="&#xe03a;" 
d="M153 -101c0 18 -6 33.666 -18 46.999c-12 12.667 -26.667 19 -44 19l10 35h9v317c16.667 25.333 36 47.333 58 66c22.667 18.667 52.334 28 89.001 28c40 0 70.667 -13.667 92 -41c20.667 -28 31 -66 31 -114v-256h48v271c0 58.667 -15.333 104.334 -46 137.001
c-31.333 33.333 -73 50 -125 50c-30 0 -56.667 -6.66699 -80 -20c-22.667 -12.667 -45.334 -36.334 -68.001 -71.001v82h-47v-449h9l-19 -62c20 0 35.333 -3.33301 46 -10s16 -16.667 16 -30s-5.66699 -23 -17 -29c-12.667 -6.66699 -28.667 -9.66699 -48 -9l-33 2l-5 -32
l45 -5c28.667 0 52 7 70 21c18 12.667 27 30.334 27 53.001z" />
    <glyph glyph-name="Ncedilla" unicode="&#xe03b;" horiz-adv-x="771" 
d="M173 -101c0 18 -6 33.666 -18 46.999c-12 12.667 -26.667 19 -44 19l10 35h10v596l518 -596h45v682h-53v-598l-129 152l-130 147l-130 147l-129 152h-45v-682h13l-19 -62c20 0 35.333 -3.33301 46 -10s16 -16.667 16 -30s-5.66699 -23 -17 -29
c-12.667 -6.66699 -28.667 -9.66699 -48 -9l-33 2l-5 -32l45 -5c28.667 0 52 7 70 21c18 12.667 27 30.334 27 53.001z" />
    <glyph glyph-name="nacute" unicode="&#xe03c;" 
d="M418 677h-81l-104 -156h32zM428 0v271c0 58.667 -15.333 104.334 -46 137.001c-31.333 33.333 -73 50 -125 50c-30 0 -56.667 -6.66699 -80 -20c-22.667 -12.667 -45.334 -36.334 -68.001 -71.001v82h-47v-449h48v317c16.667 25.333 36 47.333 58 66
c22.667 18.667 52.334 28 89.001 28c40 0 70.667 -13.667 92 -41c20.667 -28 31 -66 31 -114v-256h48z" />
    <glyph glyph-name="Nacute" unicode="&#xe03d;" horiz-adv-x="771" 
d="M561 895h-81l-104 -156h32zM694 0v682h-53v-598l-129 152l-130 147l-130 147l-129 152h-45v-682h53v596l518 -596h45z" />
    <glyph glyph-name="lcedilla" unicode="&#xe03e;" horiz-adv-x="188" 
d="M161 -101c0 18 -6 33.666 -18 46.999c-12 12.667 -26.667 19 -44 19l10 35h9v682h-48v-682h9l-19 -62c20 0 35.333 -3.33301 46 -10s16 -16.667 16 -30s-5.66699 -23 -17 -29c-12.667 -6.66699 -28.667 -9.66699 -48 -9l-33 2l-5 -32l45 -5c28.667 0 52 7 70 21
c18 12.667 27 30.334 27 53.001z" />
    <glyph glyph-name="Lcedilla" unicode="&#xe03f;" horiz-adv-x="469" 
d="M342 -101c0 18 -6 33.666 -18 46.999c-12 12.667 -26.667 19 -44 19l10 35h179v44h-337v638h-53v-682h181l-19 -62c20 0 35.333 -3.33301 46 -10s16 -16.667 16 -30s-5.66699 -23 -17 -29c-12.667 -6.66699 -28.667 -9.66699 -48 -9l-33 2l-5 -32l45 -5
c28.667 0 52 7 70 21c18 12.667 27 30.334 27 53.001z" />
    <glyph glyph-name="lacute" unicode="&#xe040;" horiz-adv-x="188" 
d="M260 883h-81l-104 -156h32zM118 0v682h-48v-682h48z" />
    <glyph glyph-name="Lacute" unicode="&#xe041;" horiz-adv-x="469" 
d="M276 895h-81l-104 -156h32zM469 0v44h-337v638h-53v-682h390z" />
    <glyph glyph-name="kcedilla" unicode="&#xe042;" horiz-adv-x="427" 
d="M463 0l-284 236l246 213h-63l-248 -213l284 -236h65zM152 -101c0 18 -6 33.666 -18 46.999c-12 12.667 -26.667 19 -44 19l10 35h7v236v446h-48v-682h11l-19 -62c20 0 35.333 -3.33301 46 -10s16 -16.667 16 -30s-5.66699 -23 -17 -29
c-12.667 -6.66699 -28.667 -9.66699 -48 -9l-33 2l-5 -32l45 -5c28.667 0 52 7 70 21c18 12.667 27 30.334 27 53.001z" />
    <glyph glyph-name="Kcedilla" unicode="&#xe043;" horiz-adv-x="531" 
d="M174 -101c0 18 -6 33.666 -18 46.999c-12 12.667 -26.667 19 -44 19l10 35h7v342l357 -342h67l-356 342l325 340h-66l-327 -340v340h-53v-682h16l-19 -62c20 0 35.333 -3.33301 46 -10s16 -16.667 16 -30s-5.66699 -23 -17 -29c-12.667 -6.66699 -28.667 -9.66699 -48 -9
l-33 2l-5 -32l45 -5c28.667 0 52 7 70 21c18 12.667 27 30.334 27 53.001z" />
    <glyph glyph-name="iogonek" unicode="&#xe044;" horiz-adv-x="188" 
d="M118 600v82h-48v-82h48zM148 -165l0.00195312 38l-18 -1c-9.33301 -0.666992 -17.833 0.333008 -25.5 3s-14.834 6.33398 -21.501 11.001c-12.667 8 -19 22.333 -19 43c0 15.333 6.33301 30.333 19 45c8 10 15.667 18.667 23 26h12v449h-48v-445
c-16.667 -8.66699 -30 -20 -40 -34c-12 -17.333 -18 -36 -18 -56c0 -26.667 9.33301 -47.334 28 -62.001c17.333 -14.667 39.666 -22 66.999 -22z" />
    <glyph glyph-name="Iogonek" unicode="&#xe045;" horiz-adv-x="208" 
d="M159 -165l0.00195312 38.001l-18 -1c-9.33301 -0.666992 -17.833 0.333008 -25.5 3s-14.834 6.33398 -21.501 11.001c-12.667 8 -19 22.333 -19 43c0 15.333 6.33301 30.333 19 45c8 10 15.667 18.667 23 26h13v682h-52v-680c-16 -8.66699 -28.333 -19.334 -37 -32.001
c-12 -17.333 -18 -36 -18 -56c0 -26.667 9.33301 -47.334 28 -62.001c17.333 -14.667 39.666 -22 66.999 -22z" />
    <glyph glyph-name="imacron" unicode="&#xe046;" horiz-adv-x="188" 
d="M232 572v51h-266v-51h266zM118 0v449h-48v-449h48z" />
    <glyph glyph-name="Imacron" unicode="&#xe047;" horiz-adv-x="208" 
d="M244 790v51h-266v-51h266zM130 0v682h-52v-682h52z" />
    <glyph glyph-name="gcedilla" unicode="&#xe048;" horiz-adv-x="427" 
d="M385 677h-81l-104 -156h32zM447 -92l-0.999023 0.000976562v541h-47v-31c-21.333 12.667 -44 22.667 -68 30c-22 6.66699 -44.333 10 -67 10c-66.667 0 -121.334 -23 -164.001 -69c-42 -46 -63 -105 -63 -177c0 -64.667 20.333 -117.667 61 -159
c41.333 -41.333 93.333 -62 156 -62c28.667 0 54.334 3.33301 77.001 10c24.667 6.66699 47 14.667 67 24v-117c0 -10.667 -4.16699 -20.834 -12.5 -30.501s-18.5 -18.334 -30.5 -26.001s-24.667 -13.667 -38 -18s-24.666 -6.5 -33.999 -6.5
c-23.333 0 -45.333 6.66699 -66 20c-9.33301 6.66699 -17.833 15.334 -25.5 26.001s-14.834 22.667 -21.501 36l-50 -1c14 -41.333 36 -74.666 66 -99.999c29.333 -24.667 61.666 -37 96.999 -37c16 0 33.5 3.83301 52.5 11.5s36.833 18 53.5 31s30.5 27.667 41.5 44
s16.5 33.166 16.5 50.499zM399.001 75.001c-14.667 -9.33301 -33.666 -18.666 -56.999 -27.999c-22 -8 -48.333 -12 -79 -12c-52.667 0 -95 16.333 -127 49c-32 32 -48 75 -48 129c0 57.333 17.667 104.666 53 141.999s79.666 56 132.999 56c28 0 53.667 -5 77 -15
c23.333 -10.667 39.333 -19 48 -25v-296z" />
    <glyph glyph-name="Gcedilla" unicode="&#xe049;" horiz-adv-x="719" 
d="M476 -101c0 18 -5.99805 33.666 -17.998 46.999c-12 12.667 -26.667 19 -44 19l7 26c44.667 0 88.667 5.66699 132 17c41.333 11.333 77.666 25 108.999 41v261h-196v-44h144v-184c-17.333 -10 -42.666 -19.667 -75.999 -29c-32 -8.66699 -67.333 -13 -106 -13
c-96 0 -173.667 27.667 -233 83c-58.667 54.667 -88 127.667 -88 219c0 86 29 157.667 87 215c58.667 56.667 131 85 217 85c42.667 0 84 -6.33301 124 -19c39.333 -11.333 77.666 -28 114.999 -50v60c-18.667 10.667 -50.334 23 -95.001 37c-44 14 -92 21 -144 21
c-103.333 0 -189.333 -33.333 -258 -100c-68.667 -66 -103 -148.667 -103 -248c0 -101.333 35.333 -185.333 106 -252c64 -60 142.333 -93 235 -99l-16 -54c20 0 35.333 -3.33301 46 -10s16 -16.667 16 -30s-5.66699 -23 -17 -29c-12.667 -6.66699 -28.667 -9.66699 -48 -9
l-33 2l-5 -32l45 -5c28.667 0 52 7 70 21c18 12.667 27 30.334 27 53.001z" />
    <glyph glyph-name="eogonek" unicode="&#xe04a;" horiz-adv-x="479" 
d="M336 -165l0.00488281 37.998l-18 -1c-9.33301 -0.666992 -17.833 0.333008 -25.5 3s-14.834 6.33398 -21.501 11.001c-12.667 8 -19 22.333 -19 43c0 15.333 6.33301 30.333 19 45l7.5 9c2.33301 2.66699 4.83301 5.33398 7.5 8.00098c29.333 2 57 8.66699 83 20
c14.667 6.66699 27.5 13.334 38.5 20.001s20.833 13.334 29.5 20.001v54c-6.66699 -6 -15.334 -12.5 -26.001 -19.5s-23.334 -14.833 -38.001 -23.5c-29.333 -16 -62 -24 -98 -24c-52.667 0 -96.667 17.667 -132 53c-35.333 34 -53 77.333 -53 130v11
c0 3.33301 0.333008 6.33301 1 9h355c0 62.667 -18.667 114.667 -56 156c-36.667 40.667 -84.334 61 -143.001 61c-60.667 0 -110.334 -22 -149.001 -66c-38.667 -43.333 -58 -97 -58 -161c0 -70 21.667 -127.667 65 -173c36.667 -38.667 81.667 -60.334 135 -65.001
c-9.33301 -8 -16.666 -15.667 -21.999 -23c-12 -17.333 -18 -36 -18 -56c0 -26.667 9.33301 -47.334 28 -62.001c17.333 -14.667 39.666 -22 66.999 -22zM387.005 279.998h-290.999c9.33301 32.667 21.666 58.667 36.999 78c28.667 35.333 67 53 115 53
c40 0 71.667 -11.667 95 -35c22 -22 36.667 -54 44 -96z" />
    <glyph glyph-name="Eogonek" unicode="&#xe04b;" 
d="M487 -165l0.00195312 38l-18 -1c-9.33301 -0.666992 -17.833 0.333008 -25.5 3s-14.834 6.33398 -21.501 11.001c-12.667 8 -19 22.333 -19 43c0 15.333 6.33301 30.333 19 45c8 10 15.667 18.667 23 26h15v44h-327v277l311 1v43h-311v273h320v44h-373v-682h322
c-13.333 -8 -24.333 -18 -33 -30c-12 -17.333 -18 -36 -18 -56c0 -26.667 9.33301 -47.334 28 -62.001c17.333 -14.667 39.666 -22 66.999 -22z" />
    <glyph glyph-name="edot" unicode="&#xe04c;" horiz-adv-x="479" 
d="M288 548v88h-88v-88h88zM446 241c0 62.667 -18.6631 114.665 -55.9961 155.998c-36.667 40.667 -84.334 61 -143.001 61c-60.667 0 -110.334 -22 -149.001 -66c-38.667 -43.333 -58 -97 -58 -161c0 -70 21.667 -127.667 65 -173c42.667 -44.667 98 -67 166 -67
c35.333 0 68 6.66699 98 20c14.667 6.66699 27.5 13.334 38.5 20.001s20.833 13.334 29.5 20.001v54c-6.66699 -6 -15.334 -12.5 -26.001 -19.5s-23.334 -14.833 -38.001 -23.5c-29.333 -16 -62 -24 -98 -24c-52.667 0 -96.667 17.667 -132 53
c-35.333 34 -53 77.333 -53 130v11c0 3.33301 0.333008 6.33301 1 9h355zM387.004 279.998h-290.999c9.33301 32.667 21.666 58.667 36.999 78c28.667 35.333 67 53 115 53c40 0 71.667 -11.667 95 -35c22 -22 36.667 -54 44 -96z" />
    <glyph glyph-name="Edot" unicode="&#xe04d;" 
d="M306 766v88h-88v-88h88zM460 0v44h-327v277l311 1v43h-311v273h320v44h-373v-682h380z" />
    <glyph glyph-name="emacron" unicode="&#xe04e;" horiz-adv-x="479" 
d="M378 572v51h-266v-51h266zM446 241c0 62.667 -18.6631 114.665 -55.9961 155.998c-36.667 40.667 -84.334 61 -143.001 61c-60.667 0 -110.334 -22 -149.001 -66c-38.667 -43.333 -58 -97 -58 -161c0 -70 21.667 -127.667 65 -173c42.667 -44.667 98 -67 166 -67
c35.333 0 68 6.66699 98 20c14.667 6.66699 27.5 13.334 38.5 20.001s20.833 13.334 29.5 20.001v54c-6.66699 -6 -15.334 -12.5 -26.001 -19.5s-23.334 -14.833 -38.001 -23.5c-29.333 -16 -62 -24 -98 -24c-52.667 0 -96.667 17.667 -132 53
c-35.333 34 -53 77.333 -53 130v11c0 3.33301 0.333008 6.33301 1 9h355zM387.004 279.998h-290.999c9.33301 32.667 21.666 58.667 36.999 78c28.667 35.333 67 53 115 53c40 0 71.667 -11.667 95 -35c22 -22 36.667 -54 44 -96z" />
    <glyph glyph-name="Emacron" unicode="&#xe04f;" 
d="M396 790v51h-266v-51h266zM460 0v44h-327v277l311 1v43h-311v273h320v44h-373v-682h380z" />
    <glyph glyph-name="aogonek" unicode="&#xe050;" horiz-adv-x="427" 
d="M237 -165l0.000976562 38l-18 -1c-9.33301 -0.666992 -17.833 0.333008 -25.5 3s-14.834 6.33398 -21.501 11.001c-12.667 8 -19 22.333 -19 43c0 15.333 6.33301 30.333 19 45c8 8.66699 15 16.667 21 24c18 -4.66699 38.333 -7 61 -7
c28.667 0 54.334 3.33301 77.001 10c24.667 6.66699 47 14.667 67 24v-27h48v451h-47v-31c-21.333 12.667 -44 22.667 -68 30c-22 6.66699 -44.333 10 -67 10c-66.667 0 -121.334 -23 -164.001 -69c-42 -46 -63 -105 -63 -177c0 -64.667 20.333 -117.667 61 -159
c20.667 -20.667 43.334 -36 68.001 -46c-20 -8.66699 -35.667 -21 -47 -37c-12 -17.333 -18 -36 -18 -56c0 -26.667 9.33301 -47.334 28 -62.001c17.333 -14.667 39.666 -22 66.999 -22zM399.001 75c-14.667 -9.33301 -33.666 -18.666 -56.999 -27.999
c-22 -8 -48.333 -12 -79 -12c-52.667 0 -95 16.333 -127 49c-32 32 -48 75 -48 129c0 57.333 17.667 104.666 53 141.999s79.666 56 132.999 56c28 0 53.667 -5 77 -15c23.333 -10.667 39.333 -19 48 -25v-296z" />
    <glyph glyph-name="Aogonek" unicode="&#xe051;" horiz-adv-x="667" 
d="M689 -165l0.00195312 38l-18 -1c-9.33301 -0.666992 -17.833 0.333008 -25.5 3s-14.834 6.33398 -21.501 11.001c-12.667 8 -19 22.333 -19 43c0 15.333 6.33301 30.333 19 45c8 10 15.667 18.667 23 26h15l-4 10h-1l-309 677h-29l-315 -687h55l108 236h333l107 -234
c-16 -9.33301 -28 -20 -36 -32c-12 -17.333 -18 -36 -18 -56c0 -26.667 9.33301 -47.334 28 -62.001c17.333 -14.667 39.666 -22 66.999 -22zM480.002 280h-293l146 321z" />
    <glyph glyph-name="abreve" unicode="&#xe052;" horiz-adv-x="427" 
d="M349 647l-41.0029 -0.00195312c-11.333 -23.333 -25 -40.333 -41 -51c-16.667 -10.667 -35 -16 -55 -16c-19.333 0 -37.666 5.66699 -54.999 17c-16 10.667 -29.333 27.334 -40 50.001h-41c11.333 -34 30 -61.667 56 -83c24.667 -20.667 51.334 -31 80.001 -31
c29.333 0 56.333 10.333 81 31s43.334 48.334 56.001 83.001zM445.997 -2.00195v451h-47v-31c-21.333 12.667 -44 22.667 -68 30c-22 6.66699 -44.333 10 -67 10c-66.667 0 -121.334 -23 -164.001 -69c-42 -46 -63 -105 -63 -177c0 -64.667 20.333 -117.667 61 -159
c41.333 -41.333 93.333 -62 156 -62c28.667 0 54.334 3.33301 77.001 10c24.667 6.66699 47 14.667 67 24v-27h48zM398.997 74.998c-14.667 -9.33301 -33.666 -18.666 -56.999 -27.999c-22 -8 -48.333 -12 -79 -12c-52.667 0 -95 16.333 -127 49c-32 32 -48 75 -48 129
c0 57.333 17.667 104.666 53 141.999s79.666 56 132.999 56c28 0 53.667 -5 77 -15c23.333 -10.667 39.333 -19 48 -25v-296z" />
    <glyph glyph-name="Abreve" unicode="&#xe053;" horiz-adv-x="667" 
d="M470 865l-41.0029 -0.00195312c-11.333 -23.333 -25 -40.333 -41 -51c-16.667 -10.667 -35 -16 -55 -16c-19.333 0 -37.666 5.66699 -54.999 17c-16 10.667 -29.333 27.334 -40 50.001h-41c11.333 -34 30 -61.667 56 -83c24.667 -20.667 51.334 -31 80.001 -31
c29.333 0 56.333 10.333 81 31s43.334 48.334 56.001 83.001zM661.997 -0.00195312l-314 687h-29l-315 -687h55l108 236h333l108 -236h54zM479.997 279.998h-293l146 321z" />
    <glyph glyph-name="amacron" unicode="&#xe054;" horiz-adv-x="427" 
d="M351 572v51h-266v-51h266zM446 -2v451h-47v-31c-21.333 12.667 -44 22.667 -68 30c-22 6.66699 -44.333 10 -67 10c-66.667 0 -121.334 -23 -164.001 -69c-42 -46 -63 -105 -63 -177c0 -64.667 20.333 -117.667 61 -159c41.333 -41.333 93.333 -62 156 -62
c28.667 0 54.334 3.33301 77.001 10c24.667 6.66699 47 14.667 67 24v-27h48zM399 75c-14.667 -9.33301 -33.666 -18.666 -56.999 -27.999c-22 -8 -48.333 -12 -79 -12c-52.667 0 -95 16.333 -127 49c-32 32 -48 75 -48 129c0 57.333 17.667 104.666 53 141.999
s79.666 56 132.999 56c28 0 53.667 -5 77 -15c23.333 -10.667 39.333 -19 48 -25v-296z" />
    <glyph glyph-name="Amacron" unicode="&#xe055;" horiz-adv-x="667" 
d="M472 790v51h-266v-51h266zM662 0l-314 687h-29l-315 -687h55l108 236h333l108 -236h54zM480 280h-293l146 321z" />
    <glyph glyph-name="sfthyphen" unicode="&#xe056;" horiz-adv-x="313" 
d="M275 226v47h-237v-47h237z" />
    <glyph glyph-name="dmacron" unicode="&#xe057;" horiz-adv-x="550" 
d="M537 534v42h-87v106h-48v-106h-102v-42h102v-112c-12.667 8 -31.667 16.333 -57 25c-24 7.33301 -47 11 -69 11c-70 0 -126.667 -21.667 -170 -65s-65 -99.666 -65 -168.999c0 -66 22 -121.333 66 -166s98 -67 162 -67c26 0 49 3.33301 69 10
c20 7.33301 41.333 18.666 64 33.999v-35h48v534h87zM401 80c-3.33301 -3.33301 -8.33203 -7.16797 -14.999 -11.501s-15.334 -9.16602 -26.001 -14.499c-19.333 -10.667 -46 -16 -80 -16c-54 0 -99 18 -135 54c-35.333 35.333 -53 79.333 -53 132
c0 54.667 17 99.667 51 135c32.667 34.667 76 52 130 52c29.333 0 55 -5 77 -15c23.333 -10.667 40.333 -20 51 -28v-288z" />
    <glyph glyph-name="ccaron" unicode="&#xe058;" horiz-adv-x="417" 
d="M374 676h-38l-100 -108l-99 108h-38l108 -164h58zM387 14l0.00195312 50.001c-12 -5.33301 -28.333 -11 -49 -17c-21.333 -6 -44.333 -9 -69 -9c-55.333 0 -98.333 17 -129 51c-31.333 33.333 -47 78.333 -47 135c0 54.667 15.667 99.667 47 135
c30.667 34.667 71.667 52 123 52c26.667 0 49 -3.33301 67 -10c9.33301 -3.33301 18.166 -6.33301 26.499 -9s15.833 -5.66699 22.5 -9v53c-9.33301 3.33301 -18.5 6.16602 -27.5 8.49902l-27.5 7.5c-19.333 4 -40 6 -62 6c-67.333 0 -121 -23 -161 -69
c-39.333 -45.333 -59 -100.333 -59 -165c0 -71.333 20 -128 60 -170s95 -63 165 -63c25.333 0 49.666 3 72.999 9l28.5 8.5z" />
    <glyph glyph-name="Ccaron" unicode="&#xe059;" horiz-adv-x="677" 
d="M529 894h-38l-100 -108l-99 108h-38l108 -164h58zM655 56l0.000976562 54.999c-15.333 -8.66699 -31.833 -17.167 -49.5 -25.5s-37.167 -16.166 -58.5 -23.499c-41.333 -14.667 -86.333 -22 -135 -22c-90.667 0 -164.334 28 -221.001 84s-85 128.333 -85 217
c0 86 29 157.667 87 215c57.333 57.333 129.333 86 216 86c44 0 86 -6.33301 126 -19c42.667 -13.333 80 -29.333 112 -48v59c-33.333 17.333 -71 31.333 -113 42c-42 10 -80.667 15 -116 15c-105.333 0 -193.333 -33.333 -264 -100
c-70 -67.333 -105 -150.666 -105 -249.999c0 -103.333 35 -187.333 105 -252c69.333 -65.333 158.333 -98 267 -98c39.333 0 80 6.33301 122 19c21.333 6.66699 41.5 13.667 60.5 21s36.167 15.666 51.5 24.999z" />
    <glyph glyph-name="cacute" unicode="&#xe05a;" horiz-adv-x="417" 
d="M400 677h-81l-104 -156h32zM387 14l0.00195312 50.001c-12 -5.33301 -28.333 -11 -49 -17c-21.333 -6 -44.333 -9 -69 -9c-55.333 0 -98.333 17 -129 51c-31.333 33.333 -47 78.333 -47 135c0 54.667 15.667 99.667 47 135c30.667 34.667 71.667 52 123 52
c26.667 0 49 -3.33301 67 -10c9.33301 -3.33301 18.166 -6.33301 26.499 -9s15.833 -5.66699 22.5 -9v53c-9.33301 3.33301 -18.5 6.16602 -27.5 8.49902l-27.5 7.5c-19.333 4 -40 6 -62 6c-67.333 0 -121 -23 -161 -69c-39.333 -45.333 -59 -100.333 -59 -165
c0 -71.333 20 -128 60 -170s95 -63 165 -63c25.333 0 49.666 3 72.999 9l28.5 8.5z" />
    <glyph glyph-name="Cacute" unicode="&#xe05b;" horiz-adv-x="677" 
d="M555 895h-81l-104 -156h32zM655 56l0.000976562 54.999c-15.333 -8.66699 -31.833 -17.167 -49.5 -25.5s-37.167 -16.166 -58.5 -23.499c-41.333 -14.667 -86.333 -22 -135 -22c-90.667 0 -164.334 28 -221.001 84s-85 128.333 -85 217c0 86 29 157.667 87 215
c57.333 57.333 129.333 86 216 86c44 0 86 -6.33301 126 -19c42.667 -13.333 80 -29.333 112 -48v59c-33.333 17.333 -71 31.333 -113 42c-42 10 -80.667 15 -116 15c-105.333 0 -193.333 -33.333 -264 -100c-70 -67.333 -105 -150.666 -105 -249.999
c0 -103.333 35 -187.333 105 -252c69.333 -65.333 158.333 -98 267 -98c39.333 0 80 6.33301 122 19c21.333 6.66699 41.5 13.667 60.5 21s36.167 15.666 51.5 24.999z" />
    <glyph glyph-name="scedilla" unicode="&#xe05c;" horiz-adv-x="354" 
d="M248 -101c0 18 -6.00391 33.6641 -18.0039 46.9971c-12 12.667 -26.667 19 -44 19l7 26c34.667 2 64 14 88 36c28 24.667 42 54.334 42 89.001c0 36 -12.333 64 -37 84c-26 20.667 -57.667 37.334 -95 50.001c-29.333 10.667 -54 22.667 -74 36c-18 12.667 -27 30 -27 52
c0 20.667 9 38.667 27 54c16.667 14.667 40.667 22 72 22c21.333 0 43 -4.66699 65 -14c10.667 -4.66699 20.5 -9.66699 29.5 -15s17.5 -11 25.5 -17v51c-10 8.66699 -26 17.334 -48 26.001c-11.333 4 -23.166 7.16699 -35.499 9.5s-25.833 3.5 -40.5 3.5
c-36 0 -68.667 -11.667 -98 -35c-28.667 -22.667 -43 -51.334 -43 -86.001c0 -32 10 -57.333 30 -76c20.667 -20 49.334 -36.333 86.001 -49c48.667 -18 80.667 -34 96 -48c14 -14 21 -29.667 21 -47c0 -24 -9.33301 -43.333 -28 -58c-19.333 -14 -43 -21 -71 -21
c-23.333 0 -47.666 4.33301 -72.999 13c-25.333 8 -46.666 17.667 -63.999 29v-48c12 -7.33301 29.333 -16.333 52 -27c10 -4.66699 20.833 -8 32.5 -10s24.167 -3.66699 37.5 -5l-16 -52c20 0 35.333 -3.33301 46 -10s16 -16.667 16 -30s-5.66699 -23 -17 -29
c-12.667 -6.66699 -28.667 -9.66699 -48 -9l-33 2l-5 -32l45 -5c28.667 0 52 7 70 21c18 12.667 27 30.334 27 53.001z" />
    <glyph glyph-name="Scedilla" unicode="&#xe05d;" horiz-adv-x="469" 
d="M305 -101c0 18 -6.00488 33.666 -18.0049 46.999c-12 12.667 -26.667 19 -44 19l7 27c45.333 2.66699 85.333 20.334 120 53.001c38 36 57 78.667 57 128c0 52 -12.667 92.333 -38 121c-24.667 27.333 -71.667 53.666 -141 78.999c-52 19.333 -89.333 38.666 -112 57.999
c-22 18.667 -33 46.667 -33 84c0 34.667 14 64.667 42 90c26.667 24.667 60.334 37 101.001 37c34 0 64 -6.33301 90 -19l36.5 -18c11 -5.33301 20.167 -10.333 27.5 -15l-1 58c-3.33301 2.66699 -9.66602 6.16699 -18.999 10.5s-21.666 9.5 -36.999 15.5
c-30.667 11.333 -65 17 -103 17c-52 0 -97.667 -17.667 -137 -53c-38 -35.333 -57 -77 -57 -125c0 -49.333 13 -87 39 -113c25.333 -26 66 -48.667 122 -68c54.667 -18.667 96 -39.334 124 -62.001c26.667 -22 40 -53.333 40 -94c0 -38.667 -14 -71 -42 -97
s-62.667 -39 -104 -39c-26 0 -52.333 6 -79 18c-13.333 6 -27.666 13.5 -42.999 22.5s-31.333 19.833 -48 32.5v-62c7.33301 -5.33301 16.833 -11.166 28.5 -17.499s25.834 -13.166 42.501 -20.499c28 -12.667 59.333 -20 94 -22l-16 -53c20 0 35.333 -3.33301 46 -10
s16 -16.667 16 -30s-5.66699 -23 -17 -29c-12.667 -6.66699 -28.667 -9.66699 -48 -9l-33 2l-5 -32l45 -5c28.667 0 52 7 70 21c18 12.667 27 30.334 27 53.001z" />
    <glyph glyph-name="Idotaccent" unicode="&#xe05e;" horiz-adv-x="208" 
d="M154 766v88h-88v-88h88zM130 0v682h-52v-682h52z" />
    <glyph glyph-name="gbreve" unicode="&#xe05f;" horiz-adv-x="427" 
d="M350 647l-41.0029 -0.00195312c-11.333 -23.333 -25 -40.333 -41 -51c-16.667 -10.667 -35 -16 -55 -16c-19.333 0 -37.666 5.66699 -54.999 17c-16 10.667 -29.333 27.334 -40 50.001h-41c11.333 -34 30 -61.667 56 -83c24.667 -20.667 51.334 -31 80.001 -31
c29.333 0 56.333 10.333 81 31s43.334 48.334 56.001 83.001zM446.997 -92.002l-0.999023 0.000976562v541h-47v-31c-21.333 12.667 -44 22.667 -68 30c-22 6.66699 -44.333 10 -67 10c-66.667 0 -121.334 -23 -164.001 -69c-42 -46 -63 -105 -63 -177
c0 -64.667 20.333 -117.667 61 -159c41.333 -41.333 93.333 -62 156 -62c28.667 0 54.334 3.33301 77.001 10c24.667 6.66699 47 14.667 67 24v-117c0 -10.667 -4.16699 -20.834 -12.5 -30.501s-18.5 -18.334 -30.5 -26.001s-24.667 -13.667 -38 -18
s-24.666 -6.5 -33.999 -6.5c-23.333 0 -45.333 6.66699 -66 20c-9.33301 6.66699 -17.833 15.334 -25.5 26.001s-14.834 22.667 -21.501 36l-50 -1c14 -41.333 36 -74.666 66 -99.999c29.333 -24.667 61.666 -37 96.999 -37c16 0 33.5 3.83301 52.5 11.5s36.833 18 53.5 31
s30.5 27.667 41.5 44s16.5 33.166 16.5 50.499zM398.998 74.999c-14.667 -9.33301 -33.666 -18.666 -56.999 -27.999c-22 -8 -48.333 -12 -79 -12c-52.667 0 -95 16.333 -127 49c-32 32 -48 75 -48 129c0 57.333 17.667 104.666 53 141.999s79.666 56 132.999 56
c28 0 53.667 -5 77 -15c23.333 -10.667 39.333 -19 48 -25v-296z" />
    <glyph glyph-name="Gbreve" unicode="&#xe060;" horiz-adv-x="719" 
d="M546 865l-41.0029 -0.00195312c-11.333 -23.333 -25 -40.333 -41 -51c-16.667 -10.667 -35 -16 -55 -16c-19.333 0 -37.666 5.66699 -54.999 17c-16 10.667 -29.333 27.334 -40 50.001h-41c11.333 -34 30 -61.667 56 -83c24.667 -20.667 51.334 -31 80.001 -31
c29.333 0 56.333 10.333 81 31s43.334 48.334 56.001 83.001zM661.997 48.998l0.00292969 261h-196v-44h144v-184c-17.333 -10 -42.666 -19.667 -75.999 -29c-32 -8.66699 -67.333 -13 -106 -13c-96 0 -173.667 27.667 -233 83c-58.667 54.667 -88 127.667 -88 219
c0 86 29 157.667 87 215c58.667 56.667 131 85 217 85c42.667 0 84 -6.33301 124 -19c39.333 -11.333 77.666 -28 114.999 -50v60c-18.667 10.667 -50.334 23 -95.001 37c-44 14 -92 21 -144 21c-103.333 0 -189.333 -33.333 -258 -100c-68.667 -66 -103 -148.667 -103 -248
c0 -101.333 35.333 -185.333 106 -252c69.333 -66.667 157.666 -100 264.999 -100c44.667 0 88.667 5.66699 132 17c41.333 11.333 77.666 25 108.999 41z" />
    <glyph glyph-name="franc" unicode="&#xe061;" horiz-adv-x="438" 
d="M431 638v44h-353v-487h-57v-44h57v-151h53v151h58v44h-58v140h269v44h-269v259h300z" />
    </font>
</defs>
</svg>
